G04 #@! TF.FileFunction,Legend,Top*
%FSLAX46Y46*%
G04 Gerber Fmt 4.6, Leading zero omitted, Abs format (unit mm)*
G04 Created by KiCad (PCBNEW 4.0.7) date 01/03/18 18:17:07*
%MOMM*%
%LPD*%
G01*
G04 APERTURE LIST*
%ADD10C,0.100000*%
%ADD11C,0.190500*%
%ADD12C,0.300000*%
%ADD13C,0.101600*%
%ADD14C,0.120000*%
%ADD15C,0.150000*%
%ADD16C,0.381000*%
%ADD17R,1.801600X1.801600*%
%ADD18O,1.801600X1.801600*%
%ADD19R,0.551600X1.551600*%
%ADD20R,1.701600X1.701600*%
%ADD21O,1.701600X1.701600*%
%ADD22R,0.851600X1.301600*%
%ADD23R,1.301600X0.851600*%
%ADD24O,1.879600X3.149600*%
%ADD25R,1.879600X3.149600*%
%ADD26C,6.451600*%
%ADD27C,1.701600*%
G04 APERTURE END LIST*
D10*
D11*
X131408714Y-111950500D02*
X131045857Y-112204500D01*
X131408714Y-112385928D02*
X130646714Y-112385928D01*
X130646714Y-112095643D01*
X130683000Y-112023071D01*
X130719286Y-111986786D01*
X130791857Y-111950500D01*
X130900714Y-111950500D01*
X130973286Y-111986786D01*
X131009571Y-112023071D01*
X131045857Y-112095643D01*
X131045857Y-112385928D01*
X131408714Y-111224786D02*
X131408714Y-111660214D01*
X131408714Y-111442500D02*
X130646714Y-111442500D01*
X130755571Y-111515071D01*
X130828143Y-111587643D01*
X130864429Y-111660214D01*
X76762429Y-63209714D02*
X76762429Y-62629143D01*
X76290714Y-61903428D02*
X76290714Y-62266285D01*
X76653571Y-62302571D01*
X76617286Y-62266285D01*
X76581000Y-62193714D01*
X76581000Y-62012285D01*
X76617286Y-61939714D01*
X76653571Y-61903428D01*
X76726143Y-61867143D01*
X76907571Y-61867143D01*
X76980143Y-61903428D01*
X77016429Y-61939714D01*
X77052714Y-62012285D01*
X77052714Y-62193714D01*
X77016429Y-62266285D01*
X76980143Y-62302571D01*
X76290714Y-61649429D02*
X77052714Y-61395429D01*
X76290714Y-61141429D01*
D12*
X235354571Y-65686857D02*
X235140285Y-65615429D01*
X234783142Y-65615429D01*
X234640285Y-65686857D01*
X234568856Y-65758286D01*
X234497428Y-65901143D01*
X234497428Y-66044000D01*
X234568856Y-66186857D01*
X234640285Y-66258286D01*
X234783142Y-66329714D01*
X235068856Y-66401143D01*
X235211714Y-66472571D01*
X235283142Y-66544000D01*
X235354571Y-66686857D01*
X235354571Y-66829714D01*
X235283142Y-66972571D01*
X235211714Y-67044000D01*
X235068856Y-67115429D01*
X234711714Y-67115429D01*
X234497428Y-67044000D01*
X232997428Y-65758286D02*
X233068857Y-65686857D01*
X233283143Y-65615429D01*
X233426000Y-65615429D01*
X233640285Y-65686857D01*
X233783143Y-65829714D01*
X233854571Y-65972571D01*
X233926000Y-66258286D01*
X233926000Y-66472571D01*
X233854571Y-66758286D01*
X233783143Y-66901143D01*
X233640285Y-67044000D01*
X233426000Y-67115429D01*
X233283143Y-67115429D01*
X233068857Y-67044000D01*
X232997428Y-66972571D01*
X231497428Y-65615429D02*
X231997428Y-66329714D01*
X232354571Y-65615429D02*
X232354571Y-67115429D01*
X231783143Y-67115429D01*
X231640285Y-67044000D01*
X231568857Y-66972571D01*
X231497428Y-66829714D01*
X231497428Y-66615429D01*
X231568857Y-66472571D01*
X231640285Y-66401143D01*
X231783143Y-66329714D01*
X232354571Y-66329714D01*
X235390285Y-113875429D02*
X235390285Y-115375429D01*
X234890285Y-114304000D01*
X234390285Y-115375429D01*
X234390285Y-113875429D01*
X233675999Y-113875429D02*
X233675999Y-115375429D01*
X233318856Y-115375429D01*
X233104571Y-115304000D01*
X232961713Y-115161143D01*
X232890285Y-115018286D01*
X232818856Y-114732571D01*
X232818856Y-114518286D01*
X232890285Y-114232571D01*
X232961713Y-114089714D01*
X233104571Y-113946857D01*
X233318856Y-113875429D01*
X233675999Y-113875429D01*
X231533142Y-114875429D02*
X231533142Y-113875429D01*
X231890285Y-115446857D02*
X232247428Y-114375429D01*
X231318856Y-114375429D01*
D11*
X221215857Y-86205786D02*
X221578714Y-86205786D01*
X221578714Y-86967786D01*
X220961857Y-86205786D02*
X220961857Y-86967786D01*
X220671572Y-86967786D01*
X220599000Y-86931500D01*
X220562715Y-86895214D01*
X220526429Y-86822643D01*
X220526429Y-86713786D01*
X220562715Y-86641214D01*
X220599000Y-86604929D01*
X220671572Y-86568643D01*
X220961857Y-86568643D01*
X220199857Y-86604929D02*
X219945857Y-86604929D01*
X219837000Y-86205786D02*
X220199857Y-86205786D01*
X220199857Y-86967786D01*
X219837000Y-86967786D01*
X219510428Y-86205786D02*
X219510428Y-86967786D01*
X219075000Y-86205786D01*
X219075000Y-86967786D01*
X218712142Y-86496071D02*
X218131571Y-86496071D01*
X217768713Y-86205786D02*
X217768713Y-86967786D01*
X217768713Y-86604929D02*
X217333285Y-86604929D01*
X217333285Y-86205786D02*
X217333285Y-86967786D01*
D12*
X222515571Y-113748429D02*
X222515571Y-115248429D01*
X222015571Y-114177000D01*
X221515571Y-115248429D01*
X221515571Y-113748429D01*
X220944142Y-115248429D02*
X219944142Y-113748429D01*
X219944142Y-115248429D02*
X220944142Y-113748429D01*
X219372714Y-113748429D02*
X219372714Y-115248429D01*
X219015571Y-115248429D01*
X218801286Y-115177000D01*
X218658428Y-115034143D01*
X218587000Y-114891286D01*
X218515571Y-114605571D01*
X218515571Y-114391286D01*
X218587000Y-114105571D01*
X218658428Y-113962714D01*
X218801286Y-113819857D01*
X219015571Y-113748429D01*
X219372714Y-113748429D01*
X217229857Y-114748429D02*
X217229857Y-113748429D01*
X217587000Y-115319857D02*
X217944143Y-114248429D01*
X217015571Y-114248429D01*
X185590571Y-69179142D02*
X184090571Y-69179142D01*
X184090571Y-68821999D01*
X184162000Y-68607714D01*
X184304857Y-68464856D01*
X184447714Y-68393428D01*
X184733429Y-68321999D01*
X184947714Y-68321999D01*
X185233429Y-68393428D01*
X185376286Y-68464856D01*
X185519143Y-68607714D01*
X185590571Y-68821999D01*
X185590571Y-69179142D01*
X184590571Y-67036285D02*
X185590571Y-67036285D01*
X184019143Y-67393428D02*
X185090571Y-67750571D01*
X185090571Y-66821999D01*
X201084571Y-69480571D02*
X199584571Y-69480571D01*
X200656000Y-68980571D01*
X199584571Y-68480571D01*
X201084571Y-68480571D01*
X199584571Y-67909142D02*
X201084571Y-66909142D01*
X199584571Y-66909142D02*
X201084571Y-67909142D01*
X201084571Y-66337714D02*
X199584571Y-66337714D01*
X199584571Y-65980571D01*
X199656000Y-65766286D01*
X199798857Y-65623428D01*
X199941714Y-65552000D01*
X200227429Y-65480571D01*
X200441714Y-65480571D01*
X200727429Y-65552000D01*
X200870286Y-65623428D01*
X201013143Y-65766286D01*
X201084571Y-65980571D01*
X201084571Y-66337714D01*
X199584571Y-64123428D02*
X199584571Y-64837714D01*
X200298857Y-64909143D01*
X200227429Y-64837714D01*
X200156000Y-64694857D01*
X200156000Y-64337714D01*
X200227429Y-64194857D01*
X200298857Y-64123428D01*
X200441714Y-64052000D01*
X200798857Y-64052000D01*
X200941714Y-64123428D01*
X201013143Y-64194857D01*
X201084571Y-64337714D01*
X201084571Y-64694857D01*
X201013143Y-64837714D01*
X200941714Y-64909143D01*
X67222571Y-112097429D02*
X68079714Y-112097429D01*
X67651142Y-112097429D02*
X67651142Y-113597429D01*
X67793999Y-113383143D01*
X67936857Y-113240286D01*
X68079714Y-113168857D01*
X66651143Y-113454571D02*
X66579714Y-113526000D01*
X66436857Y-113597429D01*
X66079714Y-113597429D01*
X65936857Y-113526000D01*
X65865428Y-113454571D01*
X65794000Y-113311714D01*
X65794000Y-113168857D01*
X65865428Y-112954571D01*
X66722571Y-112097429D01*
X65794000Y-112097429D01*
X65365429Y-113597429D02*
X64865429Y-112097429D01*
X64365429Y-113597429D01*
X68405142Y-88197429D02*
X67476571Y-88197429D01*
X67976571Y-87626000D01*
X67762285Y-87626000D01*
X67619428Y-87554571D01*
X67547999Y-87483143D01*
X67476571Y-87340286D01*
X67476571Y-86983143D01*
X67547999Y-86840286D01*
X67619428Y-86768857D01*
X67762285Y-86697429D01*
X68190857Y-86697429D01*
X68333714Y-86768857D01*
X68405142Y-86840286D01*
X67048000Y-88197429D02*
X66548000Y-86697429D01*
X66048000Y-88197429D01*
X65690857Y-88197429D02*
X64762286Y-88197429D01*
X65262286Y-87626000D01*
X65048000Y-87626000D01*
X64905143Y-87554571D01*
X64833714Y-87483143D01*
X64762286Y-87340286D01*
X64762286Y-86983143D01*
X64833714Y-86840286D01*
X64905143Y-86768857D01*
X65048000Y-86697429D01*
X65476572Y-86697429D01*
X65619429Y-86768857D01*
X65690857Y-86840286D01*
X68730571Y-82188857D02*
X67587714Y-82188857D01*
X68159143Y-81617429D02*
X68159143Y-82760286D01*
X66159142Y-83117429D02*
X66873428Y-83117429D01*
X66944857Y-82403143D01*
X66873428Y-82474571D01*
X66730571Y-82546000D01*
X66373428Y-82546000D01*
X66230571Y-82474571D01*
X66159142Y-82403143D01*
X66087714Y-82260286D01*
X66087714Y-81903143D01*
X66159142Y-81760286D01*
X66230571Y-81688857D01*
X66373428Y-81617429D01*
X66730571Y-81617429D01*
X66873428Y-81688857D01*
X66944857Y-81760286D01*
X65659143Y-83117429D02*
X65159143Y-81617429D01*
X64659143Y-83117429D01*
X68730571Y-79648857D02*
X67587714Y-79648857D01*
X68159143Y-79077429D02*
X68159143Y-80220286D01*
X66159142Y-80577429D02*
X66873428Y-80577429D01*
X66944857Y-79863143D01*
X66873428Y-79934571D01*
X66730571Y-80006000D01*
X66373428Y-80006000D01*
X66230571Y-79934571D01*
X66159142Y-79863143D01*
X66087714Y-79720286D01*
X66087714Y-79363143D01*
X66159142Y-79220286D01*
X66230571Y-79148857D01*
X66373428Y-79077429D01*
X66730571Y-79077429D01*
X66873428Y-79148857D01*
X66944857Y-79220286D01*
X65659143Y-80577429D02*
X65159143Y-79077429D01*
X64659143Y-80577429D01*
D11*
X192622714Y-113465429D02*
X192622714Y-113900857D01*
X192622714Y-113683143D02*
X191860714Y-113683143D01*
X191969571Y-113755714D01*
X192042143Y-113828286D01*
X192078429Y-113900857D01*
X191860714Y-112993715D02*
X191860714Y-112921143D01*
X191897000Y-112848572D01*
X191933286Y-112812286D01*
X192005857Y-112776000D01*
X192151000Y-112739715D01*
X192332429Y-112739715D01*
X192477571Y-112776000D01*
X192550143Y-112812286D01*
X192586429Y-112848572D01*
X192622714Y-112921143D01*
X192622714Y-112993715D01*
X192586429Y-113066286D01*
X192550143Y-113102572D01*
X192477571Y-113138857D01*
X192332429Y-113175143D01*
X192151000Y-113175143D01*
X192005857Y-113138857D01*
X191933286Y-113102572D01*
X191897000Y-113066286D01*
X191860714Y-112993715D01*
X191860714Y-112268001D02*
X191860714Y-112195429D01*
X191897000Y-112122858D01*
X191933286Y-112086572D01*
X192005857Y-112050286D01*
X192151000Y-112014001D01*
X192332429Y-112014001D01*
X192477571Y-112050286D01*
X192550143Y-112086572D01*
X192586429Y-112122858D01*
X192622714Y-112195429D01*
X192622714Y-112268001D01*
X192586429Y-112340572D01*
X192550143Y-112376858D01*
X192477571Y-112413143D01*
X192332429Y-112449429D01*
X192151000Y-112449429D01*
X192005857Y-112413143D01*
X191933286Y-112376858D01*
X191897000Y-112340572D01*
X191860714Y-112268001D01*
X192114714Y-111687429D02*
X192622714Y-111687429D01*
X192187286Y-111687429D02*
X192151000Y-111651144D01*
X192114714Y-111578572D01*
X192114714Y-111469715D01*
X192151000Y-111397144D01*
X192223571Y-111360858D01*
X192622714Y-111360858D01*
X192114714Y-111106858D02*
X192114714Y-110816572D01*
X192622714Y-110998000D02*
X191969571Y-110998000D01*
X191897000Y-110961715D01*
X191860714Y-110889143D01*
X191860714Y-110816572D01*
D13*
X183213857Y-96665143D02*
X182862429Y-96919143D01*
X183213857Y-97100571D02*
X182475857Y-97100571D01*
X182475857Y-96810286D01*
X182511000Y-96737714D01*
X182546143Y-96701429D01*
X182616429Y-96665143D01*
X182721857Y-96665143D01*
X182792143Y-96701429D01*
X182827286Y-96737714D01*
X182862429Y-96810286D01*
X182862429Y-97100571D01*
X183213857Y-96338571D02*
X182475857Y-96338571D01*
X182475857Y-96157143D01*
X182511000Y-96048286D01*
X182581286Y-95975714D01*
X182651571Y-95939429D01*
X182792143Y-95903143D01*
X182897571Y-95903143D01*
X183038143Y-95939429D01*
X183108429Y-95975714D01*
X183178714Y-96048286D01*
X183213857Y-96157143D01*
X183213857Y-96338571D01*
X179935857Y-97227571D02*
X180673857Y-97046142D01*
X180146714Y-96900999D01*
X180673857Y-96755857D01*
X179935857Y-96574428D01*
X180673857Y-95848714D02*
X180322429Y-96102714D01*
X180673857Y-96284142D02*
X179935857Y-96284142D01*
X179935857Y-95993857D01*
X179971000Y-95921285D01*
X180006143Y-95885000D01*
X180076429Y-95848714D01*
X180181857Y-95848714D01*
X180252143Y-95885000D01*
X180287286Y-95921285D01*
X180322429Y-95993857D01*
X180322429Y-96284142D01*
X174855857Y-97644857D02*
X175593857Y-97463428D01*
X175066714Y-97318285D01*
X175593857Y-97173143D01*
X174855857Y-96991714D01*
X175383000Y-96737714D02*
X175383000Y-96374857D01*
X175593857Y-96810286D02*
X174855857Y-96556286D01*
X175593857Y-96302286D01*
X175593857Y-96048285D02*
X174855857Y-96048285D01*
X174855857Y-95794286D02*
X174855857Y-95358857D01*
X175593857Y-95576571D02*
X174855857Y-95576571D01*
X177747286Y-97445285D02*
X177782429Y-97336428D01*
X177817571Y-97300143D01*
X177887857Y-97263857D01*
X177993286Y-97263857D01*
X178063571Y-97300143D01*
X178098714Y-97336428D01*
X178133857Y-97409000D01*
X178133857Y-97699285D01*
X177395857Y-97699285D01*
X177395857Y-97445285D01*
X177431000Y-97372714D01*
X177466143Y-97336428D01*
X177536429Y-97300143D01*
X177606714Y-97300143D01*
X177677000Y-97336428D01*
X177712143Y-97372714D01*
X177747286Y-97445285D01*
X177747286Y-97699285D01*
X177395857Y-96937285D02*
X177993286Y-96937285D01*
X178063571Y-96901000D01*
X178098714Y-96864714D01*
X178133857Y-96792143D01*
X178133857Y-96647000D01*
X178098714Y-96574428D01*
X178063571Y-96538143D01*
X177993286Y-96501857D01*
X177395857Y-96501857D01*
X178098714Y-96175285D02*
X178133857Y-96066428D01*
X178133857Y-95884999D01*
X178098714Y-95812428D01*
X178063571Y-95776142D01*
X177993286Y-95739857D01*
X177923000Y-95739857D01*
X177852714Y-95776142D01*
X177817571Y-95812428D01*
X177782429Y-95884999D01*
X177747286Y-96030142D01*
X177712143Y-96102714D01*
X177677000Y-96138999D01*
X177606714Y-96175285D01*
X177536429Y-96175285D01*
X177466143Y-96138999D01*
X177431000Y-96102714D01*
X177395857Y-96030142D01*
X177395857Y-95848714D01*
X177431000Y-95739857D01*
X177923000Y-95449571D02*
X177923000Y-95086714D01*
X178133857Y-95522143D02*
X177395857Y-95268143D01*
X178133857Y-95014143D01*
X178204143Y-94252142D02*
X178169000Y-94324714D01*
X178098714Y-94397285D01*
X177993286Y-94506142D01*
X177958143Y-94578714D01*
X177958143Y-94651285D01*
X178133857Y-94615000D02*
X178098714Y-94687571D01*
X178028429Y-94760142D01*
X177887857Y-94796428D01*
X177641857Y-94796428D01*
X177501286Y-94760142D01*
X177431000Y-94687571D01*
X177395857Y-94615000D01*
X177395857Y-94469857D01*
X177431000Y-94397285D01*
X177501286Y-94324714D01*
X177641857Y-94288428D01*
X177887857Y-94288428D01*
X178028429Y-94324714D01*
X178098714Y-94397285D01*
X178133857Y-94469857D01*
X178133857Y-94615000D01*
X172667286Y-97499714D02*
X172702429Y-97390857D01*
X172737571Y-97354572D01*
X172807857Y-97318286D01*
X172913286Y-97318286D01*
X172983571Y-97354572D01*
X173018714Y-97390857D01*
X173053857Y-97463429D01*
X173053857Y-97753714D01*
X172315857Y-97753714D01*
X172315857Y-97499714D01*
X172351000Y-97427143D01*
X172386143Y-97390857D01*
X172456429Y-97354572D01*
X172526714Y-97354572D01*
X172597000Y-97390857D01*
X172632143Y-97427143D01*
X172667286Y-97499714D01*
X172667286Y-97753714D01*
X172315857Y-96991714D02*
X172913286Y-96991714D01*
X172983571Y-96955429D01*
X173018714Y-96919143D01*
X173053857Y-96846572D01*
X173053857Y-96701429D01*
X173018714Y-96628857D01*
X172983571Y-96592572D01*
X172913286Y-96556286D01*
X172315857Y-96556286D01*
X173018714Y-96229714D02*
X173053857Y-96120857D01*
X173053857Y-95939428D01*
X173018714Y-95866857D01*
X172983571Y-95830571D01*
X172913286Y-95794286D01*
X172843000Y-95794286D01*
X172772714Y-95830571D01*
X172737571Y-95866857D01*
X172702429Y-95939428D01*
X172667286Y-96084571D01*
X172632143Y-96157143D01*
X172597000Y-96193428D01*
X172526714Y-96229714D01*
X172456429Y-96229714D01*
X172386143Y-96193428D01*
X172351000Y-96157143D01*
X172315857Y-96084571D01*
X172315857Y-95903143D01*
X172351000Y-95794286D01*
X173053857Y-95032286D02*
X172702429Y-95286286D01*
X173053857Y-95467714D02*
X172315857Y-95467714D01*
X172315857Y-95177429D01*
X172351000Y-95104857D01*
X172386143Y-95068572D01*
X172456429Y-95032286D01*
X172561857Y-95032286D01*
X172632143Y-95068572D01*
X172667286Y-95104857D01*
X172702429Y-95177429D01*
X172702429Y-95467714D01*
X173124143Y-94197714D02*
X173089000Y-94270286D01*
X173018714Y-94342857D01*
X172913286Y-94451714D01*
X172878143Y-94524286D01*
X172878143Y-94596857D01*
X173053857Y-94560572D02*
X173018714Y-94633143D01*
X172948429Y-94705714D01*
X172807857Y-94742000D01*
X172561857Y-94742000D01*
X172421286Y-94705714D01*
X172351000Y-94633143D01*
X172315857Y-94560572D01*
X172315857Y-94415429D01*
X172351000Y-94342857D01*
X172421286Y-94270286D01*
X172561857Y-94234000D01*
X172807857Y-94234000D01*
X172948429Y-94270286D01*
X173018714Y-94342857D01*
X173053857Y-94415429D01*
X173053857Y-94560572D01*
X170513857Y-96937285D02*
X170162429Y-97191285D01*
X170513857Y-97372713D02*
X169775857Y-97372713D01*
X169775857Y-97082428D01*
X169811000Y-97009856D01*
X169846143Y-96973571D01*
X169916429Y-96937285D01*
X170021857Y-96937285D01*
X170092143Y-96973571D01*
X170127286Y-97009856D01*
X170162429Y-97082428D01*
X170162429Y-97372713D01*
X170478714Y-96646999D02*
X170513857Y-96538142D01*
X170513857Y-96356713D01*
X170478714Y-96284142D01*
X170443571Y-96247856D01*
X170373286Y-96211571D01*
X170303000Y-96211571D01*
X170232714Y-96247856D01*
X170197571Y-96284142D01*
X170162429Y-96356713D01*
X170127286Y-96501856D01*
X170092143Y-96574428D01*
X170057000Y-96610713D01*
X169986714Y-96646999D01*
X169916429Y-96646999D01*
X169846143Y-96610713D01*
X169811000Y-96574428D01*
X169775857Y-96501856D01*
X169775857Y-96320428D01*
X169811000Y-96211571D01*
X169775857Y-95993857D02*
X169775857Y-95558428D01*
X170513857Y-95776142D02*
X169775857Y-95776142D01*
X167973857Y-97136856D02*
X167235857Y-97136856D01*
X167763000Y-96882856D01*
X167235857Y-96628856D01*
X167973857Y-96628856D01*
X167973857Y-95866857D02*
X167973857Y-96302285D01*
X167973857Y-96084571D02*
X167235857Y-96084571D01*
X167341286Y-96157142D01*
X167411571Y-96229714D01*
X167446714Y-96302285D01*
X165433857Y-97372714D02*
X165082429Y-97626714D01*
X165433857Y-97808142D02*
X164695857Y-97808142D01*
X164695857Y-97517857D01*
X164731000Y-97445285D01*
X164766143Y-97409000D01*
X164836429Y-97372714D01*
X164941857Y-97372714D01*
X165012143Y-97409000D01*
X165047286Y-97445285D01*
X165082429Y-97517857D01*
X165082429Y-97808142D01*
X165047286Y-96792142D02*
X165047286Y-97046142D01*
X165433857Y-97046142D02*
X164695857Y-97046142D01*
X164695857Y-96683285D01*
X165398714Y-96429285D02*
X165433857Y-96320428D01*
X165433857Y-96138999D01*
X165398714Y-96066428D01*
X165363571Y-96030142D01*
X165293286Y-95993857D01*
X165223000Y-95993857D01*
X165152714Y-96030142D01*
X165117571Y-96066428D01*
X165082429Y-96138999D01*
X165047286Y-96284142D01*
X165012143Y-96356714D01*
X164977000Y-96392999D01*
X164906714Y-96429285D01*
X164836429Y-96429285D01*
X164766143Y-96392999D01*
X164731000Y-96356714D01*
X164695857Y-96284142D01*
X164695857Y-96102714D01*
X164731000Y-95993857D01*
X165433857Y-95667285D02*
X164695857Y-95667285D01*
X165047286Y-95667285D02*
X165047286Y-95231857D01*
X165433857Y-95231857D02*
X164695857Y-95231857D01*
X162191000Y-97100572D02*
X162155857Y-97173143D01*
X162155857Y-97282000D01*
X162191000Y-97390857D01*
X162261286Y-97463429D01*
X162331571Y-97499714D01*
X162472143Y-97536000D01*
X162577571Y-97536000D01*
X162718143Y-97499714D01*
X162788429Y-97463429D01*
X162858714Y-97390857D01*
X162893857Y-97282000D01*
X162893857Y-97209429D01*
X162858714Y-97100572D01*
X162823571Y-97064286D01*
X162577571Y-97064286D01*
X162577571Y-97209429D01*
X162893857Y-96737714D02*
X162155857Y-96737714D01*
X162893857Y-96302286D01*
X162155857Y-96302286D01*
X162893857Y-95939428D02*
X162155857Y-95939428D01*
X162155857Y-95758000D01*
X162191000Y-95649143D01*
X162261286Y-95576571D01*
X162331571Y-95540286D01*
X162472143Y-95504000D01*
X162577571Y-95504000D01*
X162718143Y-95540286D01*
X162788429Y-95576571D01*
X162858714Y-95649143D01*
X162893857Y-95758000D01*
X162893857Y-95939428D01*
X160143000Y-97064285D02*
X160143000Y-96701428D01*
X160353857Y-97136857D02*
X159615857Y-96882857D01*
X160353857Y-96628857D01*
X159615857Y-96229714D02*
X159615857Y-96157142D01*
X159651000Y-96084571D01*
X159686143Y-96048285D01*
X159756429Y-96011999D01*
X159897000Y-95975714D01*
X160072714Y-95975714D01*
X160213286Y-96011999D01*
X160283571Y-96048285D01*
X160318714Y-96084571D01*
X160353857Y-96157142D01*
X160353857Y-96229714D01*
X160318714Y-96302285D01*
X160283571Y-96338571D01*
X160213286Y-96374856D01*
X160072714Y-96411142D01*
X159897000Y-96411142D01*
X159756429Y-96374856D01*
X159686143Y-96338571D01*
X159651000Y-96302285D01*
X159615857Y-96229714D01*
X157603000Y-97064285D02*
X157603000Y-96701428D01*
X157813857Y-97136857D02*
X157075857Y-96882857D01*
X157813857Y-96628857D01*
X157813857Y-95975714D02*
X157813857Y-96411142D01*
X157813857Y-96193428D02*
X157075857Y-96193428D01*
X157181286Y-96265999D01*
X157251571Y-96338571D01*
X157286714Y-96411142D01*
X155063000Y-97064285D02*
X155063000Y-96701428D01*
X155273857Y-97136857D02*
X154535857Y-96882857D01*
X155273857Y-96628857D01*
X154606143Y-96411142D02*
X154571000Y-96374856D01*
X154535857Y-96302285D01*
X154535857Y-96120856D01*
X154571000Y-96048285D01*
X154606143Y-96011999D01*
X154676429Y-95975714D01*
X154746714Y-95975714D01*
X154852143Y-96011999D01*
X155273857Y-96447428D01*
X155273857Y-95975714D01*
X152523000Y-97064285D02*
X152523000Y-96701428D01*
X152733857Y-97136857D02*
X151995857Y-96882857D01*
X152733857Y-96628857D01*
X151995857Y-96447428D02*
X151995857Y-95975714D01*
X152277000Y-96229714D01*
X152277000Y-96120856D01*
X152312143Y-96048285D01*
X152347286Y-96011999D01*
X152417571Y-95975714D01*
X152593286Y-95975714D01*
X152663571Y-96011999D01*
X152698714Y-96048285D01*
X152733857Y-96120856D01*
X152733857Y-96338571D01*
X152698714Y-96411142D01*
X152663571Y-96447428D01*
X149983000Y-97064285D02*
X149983000Y-96701428D01*
X150193857Y-97136857D02*
X149455857Y-96882857D01*
X150193857Y-96628857D01*
X149701857Y-96048285D02*
X150193857Y-96048285D01*
X149420714Y-96229714D02*
X149947857Y-96411142D01*
X149947857Y-95939428D01*
X147443000Y-97064285D02*
X147443000Y-96701428D01*
X147653857Y-97136857D02*
X146915857Y-96882857D01*
X147653857Y-96628857D01*
X146915857Y-96011999D02*
X146915857Y-96374856D01*
X147267286Y-96411142D01*
X147232143Y-96374856D01*
X147197000Y-96302285D01*
X147197000Y-96120856D01*
X147232143Y-96048285D01*
X147267286Y-96011999D01*
X147337571Y-95975714D01*
X147513286Y-95975714D01*
X147583571Y-96011999D01*
X147618714Y-96048285D01*
X147653857Y-96120856D01*
X147653857Y-96302285D01*
X147618714Y-96374856D01*
X147583571Y-96411142D01*
X144903000Y-97064285D02*
X144903000Y-96701428D01*
X145113857Y-97136857D02*
X144375857Y-96882857D01*
X145113857Y-96628857D01*
X144375857Y-96048285D02*
X144375857Y-96193428D01*
X144411000Y-96265999D01*
X144446143Y-96302285D01*
X144551571Y-96374856D01*
X144692143Y-96411142D01*
X144973286Y-96411142D01*
X145043571Y-96374856D01*
X145078714Y-96338571D01*
X145113857Y-96265999D01*
X145113857Y-96120856D01*
X145078714Y-96048285D01*
X145043571Y-96011999D01*
X144973286Y-95975714D01*
X144797571Y-95975714D01*
X144727286Y-96011999D01*
X144692143Y-96048285D01*
X144657000Y-96120856D01*
X144657000Y-96265999D01*
X144692143Y-96338571D01*
X144727286Y-96374856D01*
X144797571Y-96411142D01*
X142363000Y-97064285D02*
X142363000Y-96701428D01*
X142573857Y-97136857D02*
X141835857Y-96882857D01*
X142573857Y-96628857D01*
X141835857Y-96447428D02*
X141835857Y-95939428D01*
X142573857Y-96265999D01*
X139823000Y-97064285D02*
X139823000Y-96701428D01*
X140033857Y-97136857D02*
X139295857Y-96882857D01*
X140033857Y-96628857D01*
X139612143Y-96265999D02*
X139577000Y-96338571D01*
X139541857Y-96374856D01*
X139471571Y-96411142D01*
X139436429Y-96411142D01*
X139366143Y-96374856D01*
X139331000Y-96338571D01*
X139295857Y-96265999D01*
X139295857Y-96120856D01*
X139331000Y-96048285D01*
X139366143Y-96011999D01*
X139436429Y-95975714D01*
X139471571Y-95975714D01*
X139541857Y-96011999D01*
X139577000Y-96048285D01*
X139612143Y-96120856D01*
X139612143Y-96265999D01*
X139647286Y-96338571D01*
X139682429Y-96374856D01*
X139752714Y-96411142D01*
X139893286Y-96411142D01*
X139963571Y-96374856D01*
X139998714Y-96338571D01*
X140033857Y-96265999D01*
X140033857Y-96120856D01*
X139998714Y-96048285D01*
X139963571Y-96011999D01*
X139893286Y-95975714D01*
X139752714Y-95975714D01*
X139682429Y-96011999D01*
X139647286Y-96048285D01*
X139612143Y-96120856D01*
X137283000Y-97064285D02*
X137283000Y-96701428D01*
X137493857Y-97136857D02*
X136755857Y-96882857D01*
X137493857Y-96628857D01*
X137493857Y-96338571D02*
X137493857Y-96193428D01*
X137458714Y-96120856D01*
X137423571Y-96084571D01*
X137318143Y-96011999D01*
X137177571Y-95975714D01*
X136896429Y-95975714D01*
X136826143Y-96011999D01*
X136791000Y-96048285D01*
X136755857Y-96120856D01*
X136755857Y-96265999D01*
X136791000Y-96338571D01*
X136826143Y-96374856D01*
X136896429Y-96411142D01*
X137072143Y-96411142D01*
X137142429Y-96374856D01*
X137177571Y-96338571D01*
X137212714Y-96265999D01*
X137212714Y-96120856D01*
X137177571Y-96048285D01*
X137142429Y-96011999D01*
X137072143Y-95975714D01*
D11*
X134747000Y-97427142D02*
X134747000Y-97064285D01*
X134964714Y-97499714D02*
X134202714Y-97245714D01*
X134964714Y-96991714D01*
X134964714Y-96338571D02*
X134964714Y-96773999D01*
X134964714Y-96556285D02*
X134202714Y-96556285D01*
X134311571Y-96628856D01*
X134384143Y-96701428D01*
X134420429Y-96773999D01*
X134202714Y-95866857D02*
X134202714Y-95794285D01*
X134239000Y-95721714D01*
X134275286Y-95685428D01*
X134347857Y-95649142D01*
X134493000Y-95612857D01*
X134674429Y-95612857D01*
X134819571Y-95649142D01*
X134892143Y-95685428D01*
X134928429Y-95721714D01*
X134964714Y-95794285D01*
X134964714Y-95866857D01*
X134928429Y-95939428D01*
X134892143Y-95975714D01*
X134819571Y-96011999D01*
X134674429Y-96048285D01*
X134493000Y-96048285D01*
X134347857Y-96011999D01*
X134275286Y-95975714D01*
X134239000Y-95939428D01*
X134202714Y-95866857D01*
D13*
X183213857Y-118527285D02*
X182475857Y-118527285D01*
X182475857Y-118019286D02*
X182475857Y-117874143D01*
X182511000Y-117801571D01*
X182581286Y-117729000D01*
X182721857Y-117692714D01*
X182967857Y-117692714D01*
X183108429Y-117729000D01*
X183178714Y-117801571D01*
X183213857Y-117874143D01*
X183213857Y-118019286D01*
X183178714Y-118091857D01*
X183108429Y-118164428D01*
X182967857Y-118200714D01*
X182721857Y-118200714D01*
X182581286Y-118164428D01*
X182511000Y-118091857D01*
X182475857Y-118019286D01*
X183213857Y-116930714D02*
X182862429Y-117184714D01*
X183213857Y-117366142D02*
X182475857Y-117366142D01*
X182475857Y-117075857D01*
X182511000Y-117003285D01*
X182546143Y-116967000D01*
X182616429Y-116930714D01*
X182721857Y-116930714D01*
X182792143Y-116967000D01*
X182827286Y-117003285D01*
X182862429Y-117075857D01*
X182862429Y-117366142D01*
X183284143Y-116096142D02*
X183249000Y-116168714D01*
X183178714Y-116241285D01*
X183073286Y-116350142D01*
X183038143Y-116422714D01*
X183038143Y-116495285D01*
X183213857Y-116459000D02*
X183178714Y-116531571D01*
X183108429Y-116604142D01*
X182967857Y-116640428D01*
X182721857Y-116640428D01*
X182581286Y-116604142D01*
X182511000Y-116531571D01*
X182475857Y-116459000D01*
X182475857Y-116313857D01*
X182511000Y-116241285D01*
X182581286Y-116168714D01*
X182721857Y-116132428D01*
X182967857Y-116132428D01*
X183108429Y-116168714D01*
X183178714Y-116241285D01*
X183213857Y-116313857D01*
X183213857Y-116459000D01*
X180673857Y-118726857D02*
X179935857Y-118726857D01*
X180463000Y-118472857D01*
X179935857Y-118218857D01*
X180673857Y-118218857D01*
X180673857Y-117420572D02*
X180322429Y-117674572D01*
X180673857Y-117856000D02*
X179935857Y-117856000D01*
X179935857Y-117565715D01*
X179971000Y-117493143D01*
X180006143Y-117456858D01*
X180076429Y-117420572D01*
X180181857Y-117420572D01*
X180252143Y-117456858D01*
X180287286Y-117493143D01*
X180322429Y-117565715D01*
X180322429Y-117856000D01*
X180287286Y-117094000D02*
X180287286Y-116840000D01*
X180673857Y-116731143D02*
X180673857Y-117094000D01*
X179935857Y-117094000D01*
X179935857Y-116731143D01*
X180744143Y-115896571D02*
X180709000Y-115969143D01*
X180638714Y-116041714D01*
X180533286Y-116150571D01*
X180498143Y-116223143D01*
X180498143Y-116295714D01*
X180673857Y-116259429D02*
X180638714Y-116332000D01*
X180568429Y-116404571D01*
X180427857Y-116440857D01*
X180181857Y-116440857D01*
X180041286Y-116404571D01*
X179971000Y-116332000D01*
X179935857Y-116259429D01*
X179935857Y-116114286D01*
X179971000Y-116041714D01*
X180041286Y-115969143D01*
X180181857Y-115932857D01*
X180427857Y-115932857D01*
X180568429Y-115969143D01*
X180638714Y-116041714D01*
X180673857Y-116114286D01*
X180673857Y-116259429D01*
X178133857Y-118490999D02*
X177395857Y-118490999D01*
X177747286Y-118490999D02*
X177747286Y-118055571D01*
X178133857Y-118055571D02*
X177395857Y-118055571D01*
X177923000Y-117728999D02*
X177923000Y-117366142D01*
X178133857Y-117801571D02*
X177395857Y-117547571D01*
X178133857Y-117293571D01*
X178133857Y-116676713D02*
X178133857Y-117039570D01*
X177395857Y-117039570D01*
X177395857Y-116531571D02*
X177395857Y-116096142D01*
X178133857Y-116313856D02*
X177395857Y-116313856D01*
X175593857Y-117674571D02*
X174855857Y-117674571D01*
X175593857Y-117239143D01*
X174855857Y-117239143D01*
X175593857Y-116876285D02*
X174855857Y-116876285D01*
X175383000Y-116622285D01*
X174855857Y-116368285D01*
X175593857Y-116368285D01*
X175593857Y-116005428D02*
X174855857Y-116005428D01*
X173053857Y-117529428D02*
X172315857Y-117529428D01*
X173053857Y-117166571D02*
X172315857Y-117166571D01*
X173053857Y-116731143D01*
X172315857Y-116731143D01*
X172315857Y-116477143D02*
X172315857Y-116041714D01*
X173053857Y-116259428D02*
X172315857Y-116259428D01*
X170513857Y-117402428D02*
X169775857Y-117402428D01*
X169775857Y-117221000D01*
X169811000Y-117112143D01*
X169881286Y-117039571D01*
X169951571Y-117003286D01*
X170092143Y-116967000D01*
X170197571Y-116967000D01*
X170338143Y-117003286D01*
X170408429Y-117039571D01*
X170478714Y-117112143D01*
X170513857Y-117221000D01*
X170513857Y-117402428D01*
X170513857Y-116241286D02*
X170513857Y-116676714D01*
X170513857Y-116459000D02*
X169775857Y-116459000D01*
X169881286Y-116531571D01*
X169951571Y-116604143D01*
X169986714Y-116676714D01*
X167973857Y-117402428D02*
X167235857Y-117402428D01*
X167235857Y-117221000D01*
X167271000Y-117112143D01*
X167341286Y-117039571D01*
X167411571Y-117003286D01*
X167552143Y-116967000D01*
X167657571Y-116967000D01*
X167798143Y-117003286D01*
X167868429Y-117039571D01*
X167938714Y-117112143D01*
X167973857Y-117221000D01*
X167973857Y-117402428D01*
X167235857Y-116495286D02*
X167235857Y-116422714D01*
X167271000Y-116350143D01*
X167306143Y-116313857D01*
X167376429Y-116277571D01*
X167517000Y-116241286D01*
X167692714Y-116241286D01*
X167833286Y-116277571D01*
X167903571Y-116313857D01*
X167938714Y-116350143D01*
X167973857Y-116422714D01*
X167973857Y-116495286D01*
X167938714Y-116567857D01*
X167903571Y-116604143D01*
X167833286Y-116640428D01*
X167692714Y-116676714D01*
X167517000Y-116676714D01*
X167376429Y-116640428D01*
X167306143Y-116604143D01*
X167271000Y-116567857D01*
X167235857Y-116495286D01*
X165433857Y-117402428D02*
X164695857Y-117402428D01*
X164695857Y-117221000D01*
X164731000Y-117112143D01*
X164801286Y-117039571D01*
X164871571Y-117003286D01*
X165012143Y-116967000D01*
X165117571Y-116967000D01*
X165258143Y-117003286D01*
X165328429Y-117039571D01*
X165398714Y-117112143D01*
X165433857Y-117221000D01*
X165433857Y-117402428D01*
X164695857Y-116713000D02*
X164695857Y-116205000D01*
X165433857Y-116531571D01*
X162893857Y-117402428D02*
X162155857Y-117402428D01*
X162155857Y-117221000D01*
X162191000Y-117112143D01*
X162261286Y-117039571D01*
X162331571Y-117003286D01*
X162472143Y-116967000D01*
X162577571Y-116967000D01*
X162718143Y-117003286D01*
X162788429Y-117039571D01*
X162858714Y-117112143D01*
X162893857Y-117221000D01*
X162893857Y-117402428D01*
X162226143Y-116676714D02*
X162191000Y-116640428D01*
X162155857Y-116567857D01*
X162155857Y-116386428D01*
X162191000Y-116313857D01*
X162226143Y-116277571D01*
X162296429Y-116241286D01*
X162366714Y-116241286D01*
X162472143Y-116277571D01*
X162893857Y-116713000D01*
X162893857Y-116241286D01*
X157813857Y-117402428D02*
X157075857Y-117402428D01*
X157075857Y-117221000D01*
X157111000Y-117112143D01*
X157181286Y-117039571D01*
X157251571Y-117003286D01*
X157392143Y-116967000D01*
X157497571Y-116967000D01*
X157638143Y-117003286D01*
X157708429Y-117039571D01*
X157778714Y-117112143D01*
X157813857Y-117221000D01*
X157813857Y-117402428D01*
X157075857Y-116313857D02*
X157075857Y-116459000D01*
X157111000Y-116531571D01*
X157146143Y-116567857D01*
X157251571Y-116640428D01*
X157392143Y-116676714D01*
X157673286Y-116676714D01*
X157743571Y-116640428D01*
X157778714Y-116604143D01*
X157813857Y-116531571D01*
X157813857Y-116386428D01*
X157778714Y-116313857D01*
X157743571Y-116277571D01*
X157673286Y-116241286D01*
X157497571Y-116241286D01*
X157427286Y-116277571D01*
X157392143Y-116313857D01*
X157357000Y-116386428D01*
X157357000Y-116531571D01*
X157392143Y-116604143D01*
X157427286Y-116640428D01*
X157497571Y-116676714D01*
X155273857Y-117402428D02*
X154535857Y-117402428D01*
X154535857Y-117221000D01*
X154571000Y-117112143D01*
X154641286Y-117039571D01*
X154711571Y-117003286D01*
X154852143Y-116967000D01*
X154957571Y-116967000D01*
X155098143Y-117003286D01*
X155168429Y-117039571D01*
X155238714Y-117112143D01*
X155273857Y-117221000D01*
X155273857Y-117402428D01*
X154535857Y-116277571D02*
X154535857Y-116640428D01*
X154887286Y-116676714D01*
X154852143Y-116640428D01*
X154817000Y-116567857D01*
X154817000Y-116386428D01*
X154852143Y-116313857D01*
X154887286Y-116277571D01*
X154957571Y-116241286D01*
X155133286Y-116241286D01*
X155203571Y-116277571D01*
X155238714Y-116313857D01*
X155273857Y-116386428D01*
X155273857Y-116567857D01*
X155238714Y-116640428D01*
X155203571Y-116676714D01*
X152733857Y-117402428D02*
X151995857Y-117402428D01*
X151995857Y-117221000D01*
X152031000Y-117112143D01*
X152101286Y-117039571D01*
X152171571Y-117003286D01*
X152312143Y-116967000D01*
X152417571Y-116967000D01*
X152558143Y-117003286D01*
X152628429Y-117039571D01*
X152698714Y-117112143D01*
X152733857Y-117221000D01*
X152733857Y-117402428D01*
X151995857Y-116713000D02*
X151995857Y-116241286D01*
X152277000Y-116495286D01*
X152277000Y-116386428D01*
X152312143Y-116313857D01*
X152347286Y-116277571D01*
X152417571Y-116241286D01*
X152593286Y-116241286D01*
X152663571Y-116277571D01*
X152698714Y-116313857D01*
X152733857Y-116386428D01*
X152733857Y-116604143D01*
X152698714Y-116676714D01*
X152663571Y-116713000D01*
X150193857Y-117402428D02*
X149455857Y-117402428D01*
X149455857Y-117221000D01*
X149491000Y-117112143D01*
X149561286Y-117039571D01*
X149631571Y-117003286D01*
X149772143Y-116967000D01*
X149877571Y-116967000D01*
X150018143Y-117003286D01*
X150088429Y-117039571D01*
X150158714Y-117112143D01*
X150193857Y-117221000D01*
X150193857Y-117402428D01*
X149701857Y-116313857D02*
X150193857Y-116313857D01*
X149420714Y-116495286D02*
X149947857Y-116676714D01*
X149947857Y-116205000D01*
X147583571Y-117293571D02*
X147618714Y-117329857D01*
X147653857Y-117438714D01*
X147653857Y-117511285D01*
X147618714Y-117620142D01*
X147548429Y-117692714D01*
X147478143Y-117728999D01*
X147337571Y-117765285D01*
X147232143Y-117765285D01*
X147091571Y-117728999D01*
X147021286Y-117692714D01*
X146951000Y-117620142D01*
X146915857Y-117511285D01*
X146915857Y-117438714D01*
X146951000Y-117329857D01*
X146986143Y-117293571D01*
X147653857Y-116604142D02*
X147653857Y-116966999D01*
X146915857Y-116966999D01*
X147653857Y-116350142D02*
X146915857Y-116350142D01*
X147653857Y-115914714D02*
X147232143Y-116241285D01*
X146915857Y-115914714D02*
X147337571Y-116350142D01*
X144903000Y-117747142D02*
X144903000Y-117384285D01*
X145113857Y-117819714D02*
X144375857Y-117565714D01*
X145113857Y-117311714D01*
X145113857Y-116658571D02*
X145113857Y-117093999D01*
X145113857Y-116876285D02*
X144375857Y-116876285D01*
X144481286Y-116948856D01*
X144551571Y-117021428D01*
X144586714Y-117093999D01*
X144375857Y-115969142D02*
X144375857Y-116331999D01*
X144727286Y-116368285D01*
X144692143Y-116331999D01*
X144657000Y-116259428D01*
X144657000Y-116077999D01*
X144692143Y-116005428D01*
X144727286Y-115969142D01*
X144797571Y-115932857D01*
X144973286Y-115932857D01*
X145043571Y-115969142D01*
X145078714Y-116005428D01*
X145113857Y-116077999D01*
X145113857Y-116259428D01*
X145078714Y-116331999D01*
X145043571Y-116368285D01*
X142363000Y-117747142D02*
X142363000Y-117384285D01*
X142573857Y-117819714D02*
X141835857Y-117565714D01*
X142573857Y-117311714D01*
X142573857Y-116658571D02*
X142573857Y-117093999D01*
X142573857Y-116876285D02*
X141835857Y-116876285D01*
X141941286Y-116948856D01*
X142011571Y-117021428D01*
X142046714Y-117093999D01*
X142081857Y-116005428D02*
X142573857Y-116005428D01*
X141800714Y-116186857D02*
X142327857Y-116368285D01*
X142327857Y-115896571D01*
X139823000Y-117747142D02*
X139823000Y-117384285D01*
X140033857Y-117819714D02*
X139295857Y-117565714D01*
X140033857Y-117311714D01*
X140033857Y-116658571D02*
X140033857Y-117093999D01*
X140033857Y-116876285D02*
X139295857Y-116876285D01*
X139401286Y-116948856D01*
X139471571Y-117021428D01*
X139506714Y-117093999D01*
X139295857Y-116404571D02*
X139295857Y-115932857D01*
X139577000Y-116186857D01*
X139577000Y-116077999D01*
X139612143Y-116005428D01*
X139647286Y-115969142D01*
X139717571Y-115932857D01*
X139893286Y-115932857D01*
X139963571Y-115969142D01*
X139998714Y-116005428D01*
X140033857Y-116077999D01*
X140033857Y-116295714D01*
X139998714Y-116368285D01*
X139963571Y-116404571D01*
X137283000Y-117747142D02*
X137283000Y-117384285D01*
X137493857Y-117819714D02*
X136755857Y-117565714D01*
X137493857Y-117311714D01*
X137493857Y-116658571D02*
X137493857Y-117093999D01*
X137493857Y-116876285D02*
X136755857Y-116876285D01*
X136861286Y-116948856D01*
X136931571Y-117021428D01*
X136966714Y-117093999D01*
X136826143Y-116368285D02*
X136791000Y-116331999D01*
X136755857Y-116259428D01*
X136755857Y-116077999D01*
X136791000Y-116005428D01*
X136826143Y-115969142D01*
X136896429Y-115932857D01*
X136966714Y-115932857D01*
X137072143Y-115969142D01*
X137493857Y-116404571D01*
X137493857Y-115932857D01*
D12*
X160127143Y-117411428D02*
X160127143Y-116268571D01*
X160698571Y-116840000D02*
X159555714Y-116840000D01*
D13*
X134743000Y-117747142D02*
X134743000Y-117384285D01*
X134953857Y-117819714D02*
X134215857Y-117565714D01*
X134953857Y-117311714D01*
X134953857Y-116658571D02*
X134953857Y-117093999D01*
X134953857Y-116876285D02*
X134215857Y-116876285D01*
X134321286Y-116948856D01*
X134391571Y-117021428D01*
X134426714Y-117093999D01*
X134953857Y-115932857D02*
X134953857Y-116368285D01*
X134953857Y-116150571D02*
X134215857Y-116150571D01*
X134321286Y-116223142D01*
X134391571Y-116295714D01*
X134426714Y-116368285D01*
D12*
X68405142Y-85657429D02*
X67476571Y-85657429D01*
X67976571Y-85086000D01*
X67762285Y-85086000D01*
X67619428Y-85014571D01*
X67547999Y-84943143D01*
X67476571Y-84800286D01*
X67476571Y-84443143D01*
X67547999Y-84300286D01*
X67619428Y-84228857D01*
X67762285Y-84157429D01*
X68190857Y-84157429D01*
X68333714Y-84228857D01*
X68405142Y-84300286D01*
X67048000Y-85657429D02*
X66548000Y-84157429D01*
X66048000Y-85657429D01*
X65690857Y-85657429D02*
X64762286Y-85657429D01*
X65262286Y-85086000D01*
X65048000Y-85086000D01*
X64905143Y-85014571D01*
X64833714Y-84943143D01*
X64762286Y-84800286D01*
X64762286Y-84443143D01*
X64833714Y-84300286D01*
X64905143Y-84228857D01*
X65048000Y-84157429D01*
X65476572Y-84157429D01*
X65619429Y-84228857D01*
X65690857Y-84300286D01*
X228262571Y-60785428D02*
X228262571Y-61642571D01*
X228262571Y-61213999D02*
X226762571Y-61213999D01*
X226976857Y-61356856D01*
X227119714Y-61499714D01*
X227191143Y-61642571D01*
X68476571Y-105302857D02*
X67333714Y-105302857D01*
X65905142Y-106231429D02*
X66619428Y-106231429D01*
X66690857Y-105517143D01*
X66619428Y-105588571D01*
X66476571Y-105660000D01*
X66119428Y-105660000D01*
X65976571Y-105588571D01*
X65905142Y-105517143D01*
X65833714Y-105374286D01*
X65833714Y-105017143D01*
X65905142Y-104874286D01*
X65976571Y-104802857D01*
X66119428Y-104731429D01*
X66476571Y-104731429D01*
X66619428Y-104802857D01*
X66690857Y-104874286D01*
X65405143Y-106231429D02*
X64905143Y-104731429D01*
X64405143Y-106231429D01*
X222309285Y-65234429D02*
X222309285Y-66734429D01*
X221809285Y-65663000D01*
X221309285Y-66734429D01*
X221309285Y-65234429D01*
X220594999Y-65234429D02*
X220594999Y-66734429D01*
X220237856Y-66734429D01*
X220023571Y-66663000D01*
X219880713Y-66520143D01*
X219809285Y-66377286D01*
X219737856Y-66091571D01*
X219737856Y-65877286D01*
X219809285Y-65591571D01*
X219880713Y-65448714D01*
X220023571Y-65305857D01*
X220237856Y-65234429D01*
X220594999Y-65234429D01*
X219237856Y-66734429D02*
X218309285Y-66734429D01*
X218809285Y-66163000D01*
X218594999Y-66163000D01*
X218452142Y-66091571D01*
X218380713Y-66020143D01*
X218309285Y-65877286D01*
X218309285Y-65520143D01*
X218380713Y-65377286D01*
X218452142Y-65305857D01*
X218594999Y-65234429D01*
X219023571Y-65234429D01*
X219166428Y-65305857D01*
X219237856Y-65377286D01*
X222309285Y-67901429D02*
X222309285Y-69401429D01*
X221809285Y-68330000D01*
X221309285Y-69401429D01*
X221309285Y-67901429D01*
X220594999Y-67901429D02*
X220594999Y-69401429D01*
X220237856Y-69401429D01*
X220023571Y-69330000D01*
X219880713Y-69187143D01*
X219809285Y-69044286D01*
X219737856Y-68758571D01*
X219737856Y-68544286D01*
X219809285Y-68258571D01*
X219880713Y-68115714D01*
X220023571Y-67972857D01*
X220237856Y-67901429D01*
X220594999Y-67901429D01*
X219166428Y-69258571D02*
X219094999Y-69330000D01*
X218952142Y-69401429D01*
X218594999Y-69401429D01*
X218452142Y-69330000D01*
X218380713Y-69258571D01*
X218309285Y-69115714D01*
X218309285Y-68972857D01*
X218380713Y-68758571D01*
X219237856Y-67901429D01*
X218309285Y-67901429D01*
X222309285Y-70441429D02*
X222309285Y-71941429D01*
X221809285Y-70870000D01*
X221309285Y-71941429D01*
X221309285Y-70441429D01*
X220594999Y-70441429D02*
X220594999Y-71941429D01*
X220237856Y-71941429D01*
X220023571Y-71870000D01*
X219880713Y-71727143D01*
X219809285Y-71584286D01*
X219737856Y-71298571D01*
X219737856Y-71084286D01*
X219809285Y-70798571D01*
X219880713Y-70655714D01*
X220023571Y-70512857D01*
X220237856Y-70441429D01*
X220594999Y-70441429D01*
X218309285Y-70441429D02*
X219166428Y-70441429D01*
X218737856Y-70441429D02*
X218737856Y-71941429D01*
X218880713Y-71727143D01*
X219023571Y-71584286D01*
X219166428Y-71512857D01*
X222309285Y-72981429D02*
X222309285Y-74481429D01*
X221809285Y-73410000D01*
X221309285Y-74481429D01*
X221309285Y-72981429D01*
X220594999Y-72981429D02*
X220594999Y-74481429D01*
X220237856Y-74481429D01*
X220023571Y-74410000D01*
X219880713Y-74267143D01*
X219809285Y-74124286D01*
X219737856Y-73838571D01*
X219737856Y-73624286D01*
X219809285Y-73338571D01*
X219880713Y-73195714D01*
X220023571Y-73052857D01*
X220237856Y-72981429D01*
X220594999Y-72981429D01*
X218809285Y-74481429D02*
X218666428Y-74481429D01*
X218523571Y-74410000D01*
X218452142Y-74338571D01*
X218380713Y-74195714D01*
X218309285Y-73910000D01*
X218309285Y-73552857D01*
X218380713Y-73267143D01*
X218452142Y-73124286D01*
X218523571Y-73052857D01*
X218666428Y-72981429D01*
X218809285Y-72981429D01*
X218952142Y-73052857D01*
X219023571Y-73124286D01*
X219094999Y-73267143D01*
X219166428Y-73552857D01*
X219166428Y-73910000D01*
X219094999Y-74195714D01*
X219023571Y-74338571D01*
X218952142Y-74410000D01*
X218809285Y-74481429D01*
X222309285Y-72981429D02*
X222309285Y-74481429D01*
X221809285Y-73410000D01*
X221309285Y-74481429D01*
X221309285Y-72981429D01*
X220594999Y-72981429D02*
X220594999Y-74481429D01*
X220237856Y-74481429D01*
X220023571Y-74410000D01*
X219880713Y-74267143D01*
X219809285Y-74124286D01*
X219737856Y-73838571D01*
X219737856Y-73624286D01*
X219809285Y-73338571D01*
X219880713Y-73195714D01*
X220023571Y-73052857D01*
X220237856Y-72981429D01*
X220594999Y-72981429D01*
X218809285Y-74481429D02*
X218666428Y-74481429D01*
X218523571Y-74410000D01*
X218452142Y-74338571D01*
X218380713Y-74195714D01*
X218309285Y-73910000D01*
X218309285Y-73552857D01*
X218380713Y-73267143D01*
X218452142Y-73124286D01*
X218523571Y-73052857D01*
X218666428Y-72981429D01*
X218809285Y-72981429D01*
X218952142Y-73052857D01*
X219023571Y-73124286D01*
X219094999Y-73267143D01*
X219166428Y-73552857D01*
X219166428Y-73910000D01*
X219094999Y-74195714D01*
X219023571Y-74338571D01*
X218952142Y-74410000D01*
X218809285Y-74481429D01*
X222309285Y-70441429D02*
X222309285Y-71941429D01*
X221809285Y-70870000D01*
X221309285Y-71941429D01*
X221309285Y-70441429D01*
X220594999Y-70441429D02*
X220594999Y-71941429D01*
X220237856Y-71941429D01*
X220023571Y-71870000D01*
X219880713Y-71727143D01*
X219809285Y-71584286D01*
X219737856Y-71298571D01*
X219737856Y-71084286D01*
X219809285Y-70798571D01*
X219880713Y-70655714D01*
X220023571Y-70512857D01*
X220237856Y-70441429D01*
X220594999Y-70441429D01*
X218309285Y-70441429D02*
X219166428Y-70441429D01*
X218737856Y-70441429D02*
X218737856Y-71941429D01*
X218880713Y-71727143D01*
X219023571Y-71584286D01*
X219166428Y-71512857D01*
X222309285Y-67901429D02*
X222309285Y-69401429D01*
X221809285Y-68330000D01*
X221309285Y-69401429D01*
X221309285Y-67901429D01*
X220594999Y-67901429D02*
X220594999Y-69401429D01*
X220237856Y-69401429D01*
X220023571Y-69330000D01*
X219880713Y-69187143D01*
X219809285Y-69044286D01*
X219737856Y-68758571D01*
X219737856Y-68544286D01*
X219809285Y-68258571D01*
X219880713Y-68115714D01*
X220023571Y-67972857D01*
X220237856Y-67901429D01*
X220594999Y-67901429D01*
X219166428Y-69258571D02*
X219094999Y-69330000D01*
X218952142Y-69401429D01*
X218594999Y-69401429D01*
X218452142Y-69330000D01*
X218380713Y-69258571D01*
X218309285Y-69115714D01*
X218309285Y-68972857D01*
X218380713Y-68758571D01*
X219237856Y-67901429D01*
X218309285Y-67901429D01*
X222309285Y-67901429D02*
X222309285Y-69401429D01*
X221809285Y-68330000D01*
X221309285Y-69401429D01*
X221309285Y-67901429D01*
X220594999Y-67901429D02*
X220594999Y-69401429D01*
X220237856Y-69401429D01*
X220023571Y-69330000D01*
X219880713Y-69187143D01*
X219809285Y-69044286D01*
X219737856Y-68758571D01*
X219737856Y-68544286D01*
X219809285Y-68258571D01*
X219880713Y-68115714D01*
X220023571Y-67972857D01*
X220237856Y-67901429D01*
X220594999Y-67901429D01*
X219166428Y-69258571D02*
X219094999Y-69330000D01*
X218952142Y-69401429D01*
X218594999Y-69401429D01*
X218452142Y-69330000D01*
X218380713Y-69258571D01*
X218309285Y-69115714D01*
X218309285Y-68972857D01*
X218380713Y-68758571D01*
X219237856Y-67901429D01*
X218309285Y-67901429D01*
X222309285Y-70441429D02*
X222309285Y-71941429D01*
X221809285Y-70870000D01*
X221309285Y-71941429D01*
X221309285Y-70441429D01*
X220594999Y-70441429D02*
X220594999Y-71941429D01*
X220237856Y-71941429D01*
X220023571Y-71870000D01*
X219880713Y-71727143D01*
X219809285Y-71584286D01*
X219737856Y-71298571D01*
X219737856Y-71084286D01*
X219809285Y-70798571D01*
X219880713Y-70655714D01*
X220023571Y-70512857D01*
X220237856Y-70441429D01*
X220594999Y-70441429D01*
X218309285Y-70441429D02*
X219166428Y-70441429D01*
X218737856Y-70441429D02*
X218737856Y-71941429D01*
X218880713Y-71727143D01*
X219023571Y-71584286D01*
X219166428Y-71512857D01*
X222309285Y-72981429D02*
X222309285Y-74481429D01*
X221809285Y-73410000D01*
X221309285Y-74481429D01*
X221309285Y-72981429D01*
X220594999Y-72981429D02*
X220594999Y-74481429D01*
X220237856Y-74481429D01*
X220023571Y-74410000D01*
X219880713Y-74267143D01*
X219809285Y-74124286D01*
X219737856Y-73838571D01*
X219737856Y-73624286D01*
X219809285Y-73338571D01*
X219880713Y-73195714D01*
X220023571Y-73052857D01*
X220237856Y-72981429D01*
X220594999Y-72981429D01*
X218809285Y-74481429D02*
X218666428Y-74481429D01*
X218523571Y-74410000D01*
X218452142Y-74338571D01*
X218380713Y-74195714D01*
X218309285Y-73910000D01*
X218309285Y-73552857D01*
X218380713Y-73267143D01*
X218452142Y-73124286D01*
X218523571Y-73052857D01*
X218666428Y-72981429D01*
X218809285Y-72981429D01*
X218952142Y-73052857D01*
X219023571Y-73124286D01*
X219094999Y-73267143D01*
X219166428Y-73552857D01*
X219166428Y-73910000D01*
X219094999Y-74195714D01*
X219023571Y-74338571D01*
X218952142Y-74410000D01*
X218809285Y-74481429D01*
X221265714Y-98381429D02*
X221765714Y-99095714D01*
X222122857Y-98381429D02*
X222122857Y-99881429D01*
X221551429Y-99881429D01*
X221408571Y-99810000D01*
X221337143Y-99738571D01*
X221265714Y-99595714D01*
X221265714Y-99381429D01*
X221337143Y-99238571D01*
X221408571Y-99167143D01*
X221551429Y-99095714D01*
X222122857Y-99095714D01*
X220622857Y-98381429D02*
X220622857Y-99881429D01*
X220265714Y-99881429D01*
X220051429Y-99810000D01*
X219908571Y-99667143D01*
X219837143Y-99524286D01*
X219765714Y-99238571D01*
X219765714Y-99024286D01*
X219837143Y-98738571D01*
X219908571Y-98595714D01*
X220051429Y-98452857D01*
X220265714Y-98381429D01*
X220622857Y-98381429D01*
X67690857Y-75553000D02*
X67833714Y-75624429D01*
X68048000Y-75624429D01*
X68262285Y-75553000D01*
X68405143Y-75410143D01*
X68476571Y-75267286D01*
X68548000Y-74981571D01*
X68548000Y-74767286D01*
X68476571Y-74481571D01*
X68405143Y-74338714D01*
X68262285Y-74195857D01*
X68048000Y-74124429D01*
X67905143Y-74124429D01*
X67690857Y-74195857D01*
X67619428Y-74267286D01*
X67619428Y-74767286D01*
X67905143Y-74767286D01*
X66976571Y-74124429D02*
X66976571Y-75624429D01*
X66119428Y-74124429D01*
X66119428Y-75624429D01*
X65405142Y-74124429D02*
X65405142Y-75624429D01*
X65047999Y-75624429D01*
X64833714Y-75553000D01*
X64690856Y-75410143D01*
X64619428Y-75267286D01*
X64547999Y-74981571D01*
X64547999Y-74767286D01*
X64619428Y-74481571D01*
X64690856Y-74338714D01*
X64833714Y-74195857D01*
X65047999Y-74124429D01*
X65405142Y-74124429D01*
X71901428Y-92817143D02*
X72401428Y-92817143D01*
X72401428Y-92031429D02*
X72401428Y-93531429D01*
X71687142Y-93531429D01*
X71258571Y-93531429D02*
X70258571Y-92031429D01*
X70258571Y-93531429D02*
X71258571Y-92031429D01*
X69758572Y-93388571D02*
X69687143Y-93460000D01*
X69544286Y-93531429D01*
X69187143Y-93531429D01*
X69044286Y-93460000D01*
X68972857Y-93388571D01*
X68901429Y-93245714D01*
X68901429Y-93102857D01*
X68972857Y-92888571D01*
X69830000Y-92031429D01*
X68901429Y-92031429D01*
X67401429Y-92174286D02*
X67472858Y-92102857D01*
X67687144Y-92031429D01*
X67830001Y-92031429D01*
X68044286Y-92102857D01*
X68187144Y-92245714D01*
X68258572Y-92388571D01*
X68330001Y-92674286D01*
X68330001Y-92888571D01*
X68258572Y-93174286D01*
X68187144Y-93317143D01*
X68044286Y-93460000D01*
X67830001Y-93531429D01*
X67687144Y-93531429D01*
X67472858Y-93460000D01*
X67401429Y-93388571D01*
X66044286Y-92031429D02*
X66758572Y-92031429D01*
X66758572Y-93531429D01*
X65544286Y-92031429D02*
X65544286Y-93531429D01*
X64687143Y-92031429D02*
X65330000Y-92888571D01*
X64687143Y-93531429D02*
X65544286Y-92674286D01*
D11*
X66167000Y-62810572D02*
X66130714Y-62883143D01*
X66130714Y-62992000D01*
X66167000Y-63100857D01*
X66239571Y-63173429D01*
X66312143Y-63209714D01*
X66457286Y-63246000D01*
X66566143Y-63246000D01*
X66711286Y-63209714D01*
X66783857Y-63173429D01*
X66856429Y-63100857D01*
X66892714Y-62992000D01*
X66892714Y-62919429D01*
X66856429Y-62810572D01*
X66820143Y-62774286D01*
X66566143Y-62774286D01*
X66566143Y-62919429D01*
X66892714Y-62447714D02*
X66130714Y-62447714D01*
X66892714Y-62012286D01*
X66130714Y-62012286D01*
X66892714Y-61649428D02*
X66130714Y-61649428D01*
X66130714Y-61468000D01*
X66167000Y-61359143D01*
X66239571Y-61286571D01*
X66312143Y-61250286D01*
X66457286Y-61214000D01*
X66566143Y-61214000D01*
X66711286Y-61250286D01*
X66783857Y-61286571D01*
X66856429Y-61359143D01*
X66892714Y-61468000D01*
X66892714Y-61649428D01*
X68707000Y-62810572D02*
X68670714Y-62883143D01*
X68670714Y-62992000D01*
X68707000Y-63100857D01*
X68779571Y-63173429D01*
X68852143Y-63209714D01*
X68997286Y-63246000D01*
X69106143Y-63246000D01*
X69251286Y-63209714D01*
X69323857Y-63173429D01*
X69396429Y-63100857D01*
X69432714Y-62992000D01*
X69432714Y-62919429D01*
X69396429Y-62810572D01*
X69360143Y-62774286D01*
X69106143Y-62774286D01*
X69106143Y-62919429D01*
X69432714Y-62447714D02*
X68670714Y-62447714D01*
X69432714Y-62012286D01*
X68670714Y-62012286D01*
X69432714Y-61649428D02*
X68670714Y-61649428D01*
X68670714Y-61468000D01*
X68707000Y-61359143D01*
X68779571Y-61286571D01*
X68852143Y-61250286D01*
X68997286Y-61214000D01*
X69106143Y-61214000D01*
X69251286Y-61250286D01*
X69323857Y-61286571D01*
X69396429Y-61359143D01*
X69432714Y-61468000D01*
X69432714Y-61649428D01*
X71972714Y-63245999D02*
X71210714Y-63245999D01*
X71972714Y-62810571D01*
X71210714Y-62810571D01*
X71210714Y-62520285D02*
X71210714Y-62012285D01*
X71972714Y-62338856D01*
X71972714Y-61721999D02*
X71210714Y-61721999D01*
X71755000Y-61467999D01*
X71210714Y-61213999D01*
X71972714Y-61213999D01*
X73750714Y-63554428D02*
X73750714Y-63046428D01*
X74512714Y-63372999D01*
X74512714Y-62756142D02*
X73750714Y-62756142D01*
X74295000Y-62502142D01*
X73750714Y-62248142D01*
X74512714Y-62248142D01*
X79302429Y-63209714D02*
X79302429Y-62629143D01*
X78830714Y-61903428D02*
X78830714Y-62266285D01*
X79193571Y-62302571D01*
X79157286Y-62266285D01*
X79121000Y-62193714D01*
X79121000Y-62012285D01*
X79157286Y-61939714D01*
X79193571Y-61903428D01*
X79266143Y-61867143D01*
X79447571Y-61867143D01*
X79520143Y-61903428D01*
X79556429Y-61939714D01*
X79592714Y-62012285D01*
X79592714Y-62193714D01*
X79556429Y-62266285D01*
X79520143Y-62302571D01*
X78830714Y-61649429D02*
X79592714Y-61395429D01*
X78830714Y-61141429D01*
X82132714Y-62647285D02*
X81769857Y-62901285D01*
X82132714Y-63082713D02*
X81370714Y-63082713D01*
X81370714Y-62792428D01*
X81407000Y-62719856D01*
X81443286Y-62683571D01*
X81515857Y-62647285D01*
X81624714Y-62647285D01*
X81697286Y-62683571D01*
X81733571Y-62719856D01*
X81769857Y-62792428D01*
X81769857Y-63082713D01*
X82096429Y-62356999D02*
X82132714Y-62248142D01*
X82132714Y-62066713D01*
X82096429Y-61994142D01*
X82060143Y-61957856D01*
X81987571Y-61921571D01*
X81915000Y-61921571D01*
X81842429Y-61957856D01*
X81806143Y-61994142D01*
X81769857Y-62066713D01*
X81733571Y-62211856D01*
X81697286Y-62284428D01*
X81661000Y-62320713D01*
X81588429Y-62356999D01*
X81515857Y-62356999D01*
X81443286Y-62320713D01*
X81407000Y-62284428D01*
X81370714Y-62211856D01*
X81370714Y-62030428D01*
X81407000Y-61921571D01*
X81370714Y-61703857D02*
X81370714Y-61268428D01*
X82132714Y-61486142D02*
X81370714Y-61486142D01*
X84600143Y-62774286D02*
X84636429Y-62810572D01*
X84672714Y-62919429D01*
X84672714Y-62992000D01*
X84636429Y-63100857D01*
X84563857Y-63173429D01*
X84491286Y-63209714D01*
X84346143Y-63246000D01*
X84237286Y-63246000D01*
X84092143Y-63209714D01*
X84019571Y-63173429D01*
X83947000Y-63100857D01*
X83910714Y-62992000D01*
X83910714Y-62919429D01*
X83947000Y-62810572D01*
X83983286Y-62774286D01*
X84672714Y-62447714D02*
X83910714Y-62447714D01*
X84273571Y-62447714D02*
X84273571Y-62012286D01*
X84672714Y-62012286D02*
X83910714Y-62012286D01*
X84672714Y-61214000D02*
X84309857Y-61468000D01*
X84672714Y-61649428D02*
X83910714Y-61649428D01*
X83910714Y-61359143D01*
X83947000Y-61286571D01*
X83983286Y-61250286D01*
X84055857Y-61214000D01*
X84164714Y-61214000D01*
X84237286Y-61250286D01*
X84273571Y-61286571D01*
X84309857Y-61359143D01*
X84309857Y-61649428D01*
X87212714Y-62955714D02*
X87212714Y-63391142D01*
X87212714Y-63173428D02*
X86450714Y-63173428D01*
X86559571Y-63245999D01*
X86632143Y-63318571D01*
X86668429Y-63391142D01*
X86523286Y-62665428D02*
X86487000Y-62629142D01*
X86450714Y-62556571D01*
X86450714Y-62375142D01*
X86487000Y-62302571D01*
X86523286Y-62266285D01*
X86595857Y-62230000D01*
X86668429Y-62230000D01*
X86777286Y-62266285D01*
X87212714Y-62701714D01*
X87212714Y-62230000D01*
X86450714Y-62012286D02*
X87212714Y-61758286D01*
X86450714Y-61504286D01*
X89752714Y-62955714D02*
X89752714Y-63391142D01*
X89752714Y-63173428D02*
X88990714Y-63173428D01*
X89099571Y-63245999D01*
X89172143Y-63318571D01*
X89208429Y-63391142D01*
X89063286Y-62665428D02*
X89027000Y-62629142D01*
X88990714Y-62556571D01*
X88990714Y-62375142D01*
X89027000Y-62302571D01*
X89063286Y-62266285D01*
X89135857Y-62230000D01*
X89208429Y-62230000D01*
X89317286Y-62266285D01*
X89752714Y-62701714D01*
X89752714Y-62230000D01*
X88990714Y-62012286D02*
X89752714Y-61758286D01*
X88990714Y-61504286D01*
X92292714Y-63518142D02*
X91530714Y-63518142D01*
X92292714Y-63082714D01*
X91530714Y-63082714D01*
X92220143Y-62284428D02*
X92256429Y-62320714D01*
X92292714Y-62429571D01*
X92292714Y-62502142D01*
X92256429Y-62610999D01*
X92183857Y-62683571D01*
X92111286Y-62719856D01*
X91966143Y-62756142D01*
X91857286Y-62756142D01*
X91712143Y-62719856D01*
X91639571Y-62683571D01*
X91567000Y-62610999D01*
X91530714Y-62502142D01*
X91530714Y-62429571D01*
X91567000Y-62320714D01*
X91603286Y-62284428D01*
X92292714Y-61594999D02*
X92292714Y-61957856D01*
X91530714Y-61957856D01*
X92292714Y-61340999D02*
X91530714Y-61340999D01*
X92292714Y-60905571D02*
X91857286Y-61232142D01*
X91530714Y-60905571D02*
X91966143Y-61340999D01*
X94760143Y-62683571D02*
X94796429Y-62719857D01*
X94832714Y-62828714D01*
X94832714Y-62901285D01*
X94796429Y-63010142D01*
X94723857Y-63082714D01*
X94651286Y-63118999D01*
X94506143Y-63155285D01*
X94397286Y-63155285D01*
X94252143Y-63118999D01*
X94179571Y-63082714D01*
X94107000Y-63010142D01*
X94070714Y-62901285D01*
X94070714Y-62828714D01*
X94107000Y-62719857D01*
X94143286Y-62683571D01*
X94832714Y-61994142D02*
X94832714Y-62356999D01*
X94070714Y-62356999D01*
X94832714Y-61740142D02*
X94070714Y-61740142D01*
X94832714Y-61304714D02*
X94397286Y-61631285D01*
X94070714Y-61304714D02*
X94506143Y-61740142D01*
X97082429Y-63209714D02*
X97082429Y-62629143D01*
X97372714Y-62919429D02*
X96792143Y-62919429D01*
X96610714Y-61903428D02*
X96610714Y-62266285D01*
X96973571Y-62302571D01*
X96937286Y-62266285D01*
X96901000Y-62193714D01*
X96901000Y-62012285D01*
X96937286Y-61939714D01*
X96973571Y-61903428D01*
X97046143Y-61867143D01*
X97227571Y-61867143D01*
X97300143Y-61903428D01*
X97336429Y-61939714D01*
X97372714Y-62012285D01*
X97372714Y-62193714D01*
X97336429Y-62266285D01*
X97300143Y-62302571D01*
X96610714Y-61649429D02*
X97372714Y-61395429D01*
X96610714Y-61141429D01*
X99622429Y-63209714D02*
X99622429Y-62629143D01*
X99912714Y-62919429D02*
X99332143Y-62919429D01*
X99150714Y-61903428D02*
X99150714Y-62266285D01*
X99513571Y-62302571D01*
X99477286Y-62266285D01*
X99441000Y-62193714D01*
X99441000Y-62012285D01*
X99477286Y-61939714D01*
X99513571Y-61903428D01*
X99586143Y-61867143D01*
X99767571Y-61867143D01*
X99840143Y-61903428D01*
X99876429Y-61939714D01*
X99912714Y-62012285D01*
X99912714Y-62193714D01*
X99876429Y-62266285D01*
X99840143Y-62302571D01*
X99150714Y-61649429D02*
X99912714Y-61395429D01*
X99150714Y-61141429D01*
X101763286Y-63318571D02*
X101727000Y-63282285D01*
X101690714Y-63209714D01*
X101690714Y-63028285D01*
X101727000Y-62955714D01*
X101763286Y-62919428D01*
X101835857Y-62883143D01*
X101908429Y-62883143D01*
X102017286Y-62919428D01*
X102452714Y-63354857D01*
X102452714Y-62883143D01*
X102380143Y-62556571D02*
X102416429Y-62520286D01*
X102452714Y-62556571D01*
X102416429Y-62592857D01*
X102380143Y-62556571D01*
X102452714Y-62556571D01*
X101690714Y-61830857D02*
X101690714Y-62193714D01*
X102053571Y-62230000D01*
X102017286Y-62193714D01*
X101981000Y-62121143D01*
X101981000Y-61939714D01*
X102017286Y-61867143D01*
X102053571Y-61830857D01*
X102126143Y-61794572D01*
X102307571Y-61794572D01*
X102380143Y-61830857D01*
X102416429Y-61867143D01*
X102452714Y-61939714D01*
X102452714Y-62121143D01*
X102416429Y-62193714D01*
X102380143Y-62230000D01*
X101690714Y-61576858D02*
X102452714Y-61322858D01*
X101690714Y-61068858D01*
X104230714Y-63300429D02*
X104992714Y-63046429D01*
X104230714Y-62792429D01*
X104992714Y-62538428D02*
X104230714Y-62538428D01*
X104992714Y-62175571D02*
X104230714Y-62175571D01*
X104230714Y-61994143D01*
X104267000Y-61885286D01*
X104339571Y-61812714D01*
X104412143Y-61776429D01*
X104557286Y-61740143D01*
X104666143Y-61740143D01*
X104811286Y-61776429D01*
X104883857Y-61812714D01*
X104956429Y-61885286D01*
X104992714Y-61994143D01*
X104992714Y-62175571D01*
X107133571Y-62883142D02*
X107169857Y-62774285D01*
X107206143Y-62738000D01*
X107278714Y-62701714D01*
X107387571Y-62701714D01*
X107460143Y-62738000D01*
X107496429Y-62774285D01*
X107532714Y-62846857D01*
X107532714Y-63137142D01*
X106770714Y-63137142D01*
X106770714Y-62883142D01*
X106807000Y-62810571D01*
X106843286Y-62774285D01*
X106915857Y-62738000D01*
X106988429Y-62738000D01*
X107061000Y-62774285D01*
X107097286Y-62810571D01*
X107133571Y-62883142D01*
X107133571Y-63137142D01*
X107532714Y-62012285D02*
X107532714Y-62375142D01*
X106770714Y-62375142D01*
X106770714Y-61758285D02*
X107387571Y-61758285D01*
X107460143Y-61722000D01*
X107496429Y-61685714D01*
X107532714Y-61613143D01*
X107532714Y-61468000D01*
X107496429Y-61395428D01*
X107460143Y-61359143D01*
X107387571Y-61322857D01*
X106770714Y-61322857D01*
X110072714Y-62719857D02*
X109709857Y-62973857D01*
X110072714Y-63155285D02*
X109310714Y-63155285D01*
X109310714Y-62865000D01*
X109347000Y-62792428D01*
X109383286Y-62756143D01*
X109455857Y-62719857D01*
X109564714Y-62719857D01*
X109637286Y-62756143D01*
X109673571Y-62792428D01*
X109709857Y-62865000D01*
X109709857Y-63155285D01*
X109673571Y-62393285D02*
X109673571Y-62139285D01*
X110072714Y-62030428D02*
X110072714Y-62393285D01*
X109310714Y-62393285D01*
X109310714Y-62030428D01*
X110072714Y-61703856D02*
X109310714Y-61703856D01*
X109310714Y-61522428D01*
X109347000Y-61413571D01*
X109419571Y-61340999D01*
X109492143Y-61304714D01*
X109637286Y-61268428D01*
X109746143Y-61268428D01*
X109891286Y-61304714D01*
X109963857Y-61340999D01*
X110036429Y-61413571D01*
X110072714Y-61522428D01*
X110072714Y-61703856D01*
X112322429Y-63209714D02*
X112322429Y-62629143D01*
X112612714Y-62919429D02*
X112032143Y-62919429D01*
X111850714Y-61903428D02*
X111850714Y-62266285D01*
X112213571Y-62302571D01*
X112177286Y-62266285D01*
X112141000Y-62193714D01*
X112141000Y-62012285D01*
X112177286Y-61939714D01*
X112213571Y-61903428D01*
X112286143Y-61867143D01*
X112467571Y-61867143D01*
X112540143Y-61903428D01*
X112576429Y-61939714D01*
X112612714Y-62012285D01*
X112612714Y-62193714D01*
X112576429Y-62266285D01*
X112540143Y-62302571D01*
X111850714Y-61649429D02*
X112612714Y-61395429D01*
X111850714Y-61141429D01*
X114608429Y-63209714D02*
X114608429Y-62629143D01*
X114898714Y-62919429D02*
X114318143Y-62919429D01*
X114136714Y-61903428D02*
X114136714Y-62266285D01*
X114499571Y-62302571D01*
X114463286Y-62266285D01*
X114427000Y-62193714D01*
X114427000Y-62012285D01*
X114463286Y-61939714D01*
X114499571Y-61903428D01*
X114572143Y-61867143D01*
X114753571Y-61867143D01*
X114826143Y-61903428D01*
X114862429Y-61939714D01*
X114898714Y-62012285D01*
X114898714Y-62193714D01*
X114862429Y-62266285D01*
X114826143Y-62302571D01*
X114136714Y-61649429D02*
X114898714Y-61395429D01*
X114136714Y-61141429D01*
X91403714Y-74857428D02*
X90641714Y-74857428D01*
X91403714Y-74494571D02*
X90641714Y-74494571D01*
X91403714Y-74059143D01*
X90641714Y-74059143D01*
X90641714Y-73805143D02*
X90641714Y-73369714D01*
X91403714Y-73587428D02*
X90641714Y-73587428D01*
X94070714Y-74802999D02*
X93308714Y-74802999D01*
X93671571Y-74802999D02*
X93671571Y-74367571D01*
X94070714Y-74367571D02*
X93308714Y-74367571D01*
X93853000Y-74040999D02*
X93853000Y-73678142D01*
X94070714Y-74113571D02*
X93308714Y-73859571D01*
X94070714Y-73605571D01*
X94070714Y-72988713D02*
X94070714Y-73351570D01*
X93308714Y-73351570D01*
X93308714Y-72843571D02*
X93308714Y-72408142D01*
X94070714Y-72625856D02*
X93308714Y-72625856D01*
X96356714Y-74784857D02*
X95594714Y-74784857D01*
X96139000Y-74530857D01*
X95594714Y-74276857D01*
X96356714Y-74276857D01*
X96356714Y-73478572D02*
X95993857Y-73732572D01*
X96356714Y-73914000D02*
X95594714Y-73914000D01*
X95594714Y-73623715D01*
X95631000Y-73551143D01*
X95667286Y-73514858D01*
X95739857Y-73478572D01*
X95848714Y-73478572D01*
X95921286Y-73514858D01*
X95957571Y-73551143D01*
X95993857Y-73623715D01*
X95993857Y-73914000D01*
X95957571Y-73152000D02*
X95957571Y-72898000D01*
X96356714Y-72789143D02*
X96356714Y-73152000D01*
X95594714Y-73152000D01*
X95594714Y-72789143D01*
X96429286Y-71954571D02*
X96393000Y-72027143D01*
X96320429Y-72099714D01*
X96211571Y-72208571D01*
X96175286Y-72281143D01*
X96175286Y-72353714D01*
X96356714Y-72317429D02*
X96320429Y-72390000D01*
X96247857Y-72462571D01*
X96102714Y-72498857D01*
X95848714Y-72498857D01*
X95703571Y-72462571D01*
X95631000Y-72390000D01*
X95594714Y-72317429D01*
X95594714Y-72172286D01*
X95631000Y-72099714D01*
X95703571Y-72027143D01*
X95848714Y-71990857D01*
X96102714Y-71990857D01*
X96247857Y-72027143D01*
X96320429Y-72099714D01*
X96356714Y-72172286D01*
X96356714Y-72317429D01*
X98642714Y-74839285D02*
X97880714Y-74839285D01*
X97880714Y-74331286D02*
X97880714Y-74186143D01*
X97917000Y-74113571D01*
X97989571Y-74041000D01*
X98134714Y-74004714D01*
X98388714Y-74004714D01*
X98533857Y-74041000D01*
X98606429Y-74113571D01*
X98642714Y-74186143D01*
X98642714Y-74331286D01*
X98606429Y-74403857D01*
X98533857Y-74476428D01*
X98388714Y-74512714D01*
X98134714Y-74512714D01*
X97989571Y-74476428D01*
X97917000Y-74403857D01*
X97880714Y-74331286D01*
X98642714Y-73242714D02*
X98279857Y-73496714D01*
X98642714Y-73678142D02*
X97880714Y-73678142D01*
X97880714Y-73387857D01*
X97917000Y-73315285D01*
X97953286Y-73279000D01*
X98025857Y-73242714D01*
X98134714Y-73242714D01*
X98207286Y-73279000D01*
X98243571Y-73315285D01*
X98279857Y-73387857D01*
X98279857Y-73678142D01*
X98715286Y-72408142D02*
X98679000Y-72480714D01*
X98606429Y-72553285D01*
X98497571Y-72662142D01*
X98461286Y-72734714D01*
X98461286Y-72807285D01*
X98642714Y-72771000D02*
X98606429Y-72843571D01*
X98533857Y-72916142D01*
X98388714Y-72952428D01*
X98134714Y-72952428D01*
X97989571Y-72916142D01*
X97917000Y-72843571D01*
X97880714Y-72771000D01*
X97880714Y-72625857D01*
X97917000Y-72553285D01*
X97989571Y-72480714D01*
X98134714Y-72444428D01*
X98388714Y-72444428D01*
X98533857Y-72480714D01*
X98606429Y-72553285D01*
X98642714Y-72625857D01*
X98642714Y-72771000D01*
X101246214Y-74748571D02*
X100484214Y-74748571D01*
X101246214Y-74313143D01*
X100484214Y-74313143D01*
X101246214Y-73950285D02*
X100484214Y-73950285D01*
X101028500Y-73696285D01*
X100484214Y-73442285D01*
X101246214Y-73442285D01*
X101246214Y-73079428D02*
X100484214Y-73079428D01*
X103704571Y-74639714D02*
X103740857Y-74530857D01*
X103777143Y-74494572D01*
X103849714Y-74458286D01*
X103958571Y-74458286D01*
X104031143Y-74494572D01*
X104067429Y-74530857D01*
X104103714Y-74603429D01*
X104103714Y-74893714D01*
X103341714Y-74893714D01*
X103341714Y-74639714D01*
X103378000Y-74567143D01*
X103414286Y-74530857D01*
X103486857Y-74494572D01*
X103559429Y-74494572D01*
X103632000Y-74530857D01*
X103668286Y-74567143D01*
X103704571Y-74639714D01*
X103704571Y-74893714D01*
X103341714Y-74131714D02*
X103958571Y-74131714D01*
X104031143Y-74095429D01*
X104067429Y-74059143D01*
X104103714Y-73986572D01*
X104103714Y-73841429D01*
X104067429Y-73768857D01*
X104031143Y-73732572D01*
X103958571Y-73696286D01*
X103341714Y-73696286D01*
X104067429Y-73369714D02*
X104103714Y-73260857D01*
X104103714Y-73079428D01*
X104067429Y-73006857D01*
X104031143Y-72970571D01*
X103958571Y-72934286D01*
X103886000Y-72934286D01*
X103813429Y-72970571D01*
X103777143Y-73006857D01*
X103740857Y-73079428D01*
X103704571Y-73224571D01*
X103668286Y-73297143D01*
X103632000Y-73333428D01*
X103559429Y-73369714D01*
X103486857Y-73369714D01*
X103414286Y-73333428D01*
X103378000Y-73297143D01*
X103341714Y-73224571D01*
X103341714Y-73043143D01*
X103378000Y-72934286D01*
X104103714Y-72172286D02*
X103740857Y-72426286D01*
X104103714Y-72607714D02*
X103341714Y-72607714D01*
X103341714Y-72317429D01*
X103378000Y-72244857D01*
X103414286Y-72208572D01*
X103486857Y-72172286D01*
X103595714Y-72172286D01*
X103668286Y-72208572D01*
X103704571Y-72244857D01*
X103740857Y-72317429D01*
X103740857Y-72607714D01*
X104176286Y-71337714D02*
X104140000Y-71410286D01*
X104067429Y-71482857D01*
X103958571Y-71591714D01*
X103922286Y-71664286D01*
X103922286Y-71736857D01*
X104103714Y-71700572D02*
X104067429Y-71773143D01*
X103994857Y-71845714D01*
X103849714Y-71882000D01*
X103595714Y-71882000D01*
X103450571Y-71845714D01*
X103378000Y-71773143D01*
X103341714Y-71700572D01*
X103341714Y-71555429D01*
X103378000Y-71482857D01*
X103450571Y-71410286D01*
X103595714Y-71374000D01*
X103849714Y-71374000D01*
X103994857Y-71410286D01*
X104067429Y-71482857D01*
X104103714Y-71555429D01*
X104103714Y-71700572D01*
X105818214Y-74812071D02*
X106580214Y-74630642D01*
X106035929Y-74485499D01*
X106580214Y-74340357D01*
X105818214Y-74158928D01*
X106580214Y-73433214D02*
X106217357Y-73687214D01*
X106580214Y-73868642D02*
X105818214Y-73868642D01*
X105818214Y-73578357D01*
X105854500Y-73505785D01*
X105890786Y-73469500D01*
X105963357Y-73433214D01*
X106072214Y-73433214D01*
X106144786Y-73469500D01*
X106181071Y-73505785D01*
X106217357Y-73578357D01*
X106217357Y-73868642D01*
X108911571Y-74694142D02*
X108947857Y-74585285D01*
X108984143Y-74549000D01*
X109056714Y-74512714D01*
X109165571Y-74512714D01*
X109238143Y-74549000D01*
X109274429Y-74585285D01*
X109310714Y-74657857D01*
X109310714Y-74948142D01*
X108548714Y-74948142D01*
X108548714Y-74694142D01*
X108585000Y-74621571D01*
X108621286Y-74585285D01*
X108693857Y-74549000D01*
X108766429Y-74549000D01*
X108839000Y-74585285D01*
X108875286Y-74621571D01*
X108911571Y-74694142D01*
X108911571Y-74948142D01*
X108548714Y-74186142D02*
X109165571Y-74186142D01*
X109238143Y-74149857D01*
X109274429Y-74113571D01*
X109310714Y-74041000D01*
X109310714Y-73895857D01*
X109274429Y-73823285D01*
X109238143Y-73787000D01*
X109165571Y-73750714D01*
X108548714Y-73750714D01*
X109274429Y-73424142D02*
X109310714Y-73315285D01*
X109310714Y-73133856D01*
X109274429Y-73061285D01*
X109238143Y-73024999D01*
X109165571Y-72988714D01*
X109093000Y-72988714D01*
X109020429Y-73024999D01*
X108984143Y-73061285D01*
X108947857Y-73133856D01*
X108911571Y-73278999D01*
X108875286Y-73351571D01*
X108839000Y-73387856D01*
X108766429Y-73424142D01*
X108693857Y-73424142D01*
X108621286Y-73387856D01*
X108585000Y-73351571D01*
X108548714Y-73278999D01*
X108548714Y-73097571D01*
X108585000Y-72988714D01*
X109093000Y-72698428D02*
X109093000Y-72335571D01*
X109310714Y-72771000D02*
X108548714Y-72517000D01*
X109310714Y-72263000D01*
X109238143Y-71573571D02*
X109274429Y-71609857D01*
X109310714Y-71718714D01*
X109310714Y-71791285D01*
X109274429Y-71900142D01*
X109201857Y-71972714D01*
X109129286Y-72008999D01*
X108984143Y-72045285D01*
X108875286Y-72045285D01*
X108730143Y-72008999D01*
X108657571Y-71972714D01*
X108585000Y-71900142D01*
X108548714Y-71791285D01*
X108548714Y-71718714D01*
X108585000Y-71609857D01*
X108621286Y-71573571D01*
X109310714Y-71246999D02*
X108548714Y-71246999D01*
X109310714Y-70811571D02*
X108875286Y-71138142D01*
X108548714Y-70811571D02*
X108984143Y-71246999D01*
X110898214Y-74848357D02*
X111660214Y-74666928D01*
X111115929Y-74521785D01*
X111660214Y-74376643D01*
X110898214Y-74195214D01*
X111442500Y-73941214D02*
X111442500Y-73578357D01*
X111660214Y-74013786D02*
X110898214Y-73759786D01*
X111660214Y-73505786D01*
X111660214Y-73251785D02*
X110898214Y-73251785D01*
X110898214Y-72997786D02*
X110898214Y-72562357D01*
X111660214Y-72780071D02*
X110898214Y-72780071D01*
X114073214Y-74385714D02*
X113710357Y-74639714D01*
X114073214Y-74821142D02*
X113311214Y-74821142D01*
X113311214Y-74530857D01*
X113347500Y-74458285D01*
X113383786Y-74422000D01*
X113456357Y-74385714D01*
X113565214Y-74385714D01*
X113637786Y-74422000D01*
X113674071Y-74458285D01*
X113710357Y-74530857D01*
X113710357Y-74821142D01*
X113674071Y-73805142D02*
X113674071Y-74059142D01*
X114073214Y-74059142D02*
X113311214Y-74059142D01*
X113311214Y-73696285D01*
X114036929Y-73442285D02*
X114073214Y-73333428D01*
X114073214Y-73151999D01*
X114036929Y-73079428D01*
X114000643Y-73043142D01*
X113928071Y-73006857D01*
X113855500Y-73006857D01*
X113782929Y-73043142D01*
X113746643Y-73079428D01*
X113710357Y-73151999D01*
X113674071Y-73297142D01*
X113637786Y-73369714D01*
X113601500Y-73405999D01*
X113528929Y-73442285D01*
X113456357Y-73442285D01*
X113383786Y-73405999D01*
X113347500Y-73369714D01*
X113311214Y-73297142D01*
X113311214Y-73115714D01*
X113347500Y-73006857D01*
X114073214Y-72680285D02*
X113311214Y-72680285D01*
X113674071Y-72680285D02*
X113674071Y-72244857D01*
X114073214Y-72244857D02*
X113311214Y-72244857D01*
D12*
X116836000Y-75064714D02*
X116836000Y-74350428D01*
X117264571Y-75207571D02*
X115764571Y-74707571D01*
X117264571Y-74207571D01*
X117264571Y-72921857D02*
X117264571Y-73779000D01*
X117264571Y-73350428D02*
X115764571Y-73350428D01*
X115978857Y-73493285D01*
X116121714Y-73636143D01*
X116193143Y-73779000D01*
X115764571Y-71564714D02*
X115764571Y-72279000D01*
X116478857Y-72350429D01*
X116407429Y-72279000D01*
X116336000Y-72136143D01*
X116336000Y-71779000D01*
X116407429Y-71636143D01*
X116478857Y-71564714D01*
X116621714Y-71493286D01*
X116978857Y-71493286D01*
X117121714Y-71564714D01*
X117193143Y-71636143D01*
X117264571Y-71779000D01*
X117264571Y-72136143D01*
X117193143Y-72279000D01*
X117121714Y-72350429D01*
X119376000Y-75064714D02*
X119376000Y-74350428D01*
X119804571Y-75207571D02*
X118304571Y-74707571D01*
X119804571Y-74207571D01*
X119804571Y-72921857D02*
X119804571Y-73779000D01*
X119804571Y-73350428D02*
X118304571Y-73350428D01*
X118518857Y-73493285D01*
X118661714Y-73636143D01*
X118733143Y-73779000D01*
X118804571Y-71636143D02*
X119804571Y-71636143D01*
X118233143Y-71993286D02*
X119304571Y-72350429D01*
X119304571Y-71421857D01*
X121916000Y-75064714D02*
X121916000Y-74350428D01*
X122344571Y-75207571D02*
X120844571Y-74707571D01*
X122344571Y-74207571D01*
X122344571Y-72921857D02*
X122344571Y-73779000D01*
X122344571Y-73350428D02*
X120844571Y-73350428D01*
X121058857Y-73493285D01*
X121201714Y-73636143D01*
X121273143Y-73779000D01*
X120844571Y-72421857D02*
X120844571Y-71493286D01*
X121416000Y-71993286D01*
X121416000Y-71779000D01*
X121487429Y-71636143D01*
X121558857Y-71564714D01*
X121701714Y-71493286D01*
X122058857Y-71493286D01*
X122201714Y-71564714D01*
X122273143Y-71636143D01*
X122344571Y-71779000D01*
X122344571Y-72207572D01*
X122273143Y-72350429D01*
X122201714Y-72421857D01*
X124456000Y-75064714D02*
X124456000Y-74350428D01*
X124884571Y-75207571D02*
X123384571Y-74707571D01*
X124884571Y-74207571D01*
X124884571Y-72921857D02*
X124884571Y-73779000D01*
X124884571Y-73350428D02*
X123384571Y-73350428D01*
X123598857Y-73493285D01*
X123741714Y-73636143D01*
X123813143Y-73779000D01*
X123527429Y-72350429D02*
X123456000Y-72279000D01*
X123384571Y-72136143D01*
X123384571Y-71779000D01*
X123456000Y-71636143D01*
X123527429Y-71564714D01*
X123670286Y-71493286D01*
X123813143Y-71493286D01*
X124027429Y-71564714D01*
X124884571Y-72421857D01*
X124884571Y-71493286D01*
X126996000Y-75064714D02*
X126996000Y-74350428D01*
X127424571Y-75207571D02*
X125924571Y-74707571D01*
X127424571Y-74207571D01*
X127424571Y-72921857D02*
X127424571Y-73779000D01*
X127424571Y-73350428D02*
X125924571Y-73350428D01*
X126138857Y-73493285D01*
X126281714Y-73636143D01*
X126353143Y-73779000D01*
X127424571Y-71493286D02*
X127424571Y-72350429D01*
X127424571Y-71921857D02*
X125924571Y-71921857D01*
X126138857Y-72064714D01*
X126281714Y-72207572D01*
X126353143Y-72350429D01*
X129536000Y-75064714D02*
X129536000Y-74350428D01*
X129964571Y-75207571D02*
X128464571Y-74707571D01*
X129964571Y-74207571D01*
X129964571Y-72921857D02*
X129964571Y-73779000D01*
X129964571Y-73350428D02*
X128464571Y-73350428D01*
X128678857Y-73493285D01*
X128821714Y-73636143D01*
X128893143Y-73779000D01*
X128464571Y-71993286D02*
X128464571Y-71850429D01*
X128536000Y-71707572D01*
X128607429Y-71636143D01*
X128750286Y-71564714D01*
X129036000Y-71493286D01*
X129393143Y-71493286D01*
X129678857Y-71564714D01*
X129821714Y-71636143D01*
X129893143Y-71707572D01*
X129964571Y-71850429D01*
X129964571Y-71993286D01*
X129893143Y-72136143D01*
X129821714Y-72207572D01*
X129678857Y-72279000D01*
X129393143Y-72350429D01*
X129036000Y-72350429D01*
X128750286Y-72279000D01*
X128607429Y-72207572D01*
X128536000Y-72136143D01*
X128464571Y-71993286D01*
X132076000Y-74985428D02*
X132076000Y-74271142D01*
X132504571Y-75128285D02*
X131004571Y-74628285D01*
X132504571Y-74128285D01*
X132504571Y-73556857D02*
X132504571Y-73271142D01*
X132433143Y-73128285D01*
X132361714Y-73056857D01*
X132147429Y-72913999D01*
X131861714Y-72842571D01*
X131290286Y-72842571D01*
X131147429Y-72913999D01*
X131076000Y-72985428D01*
X131004571Y-73128285D01*
X131004571Y-73413999D01*
X131076000Y-73556857D01*
X131147429Y-73628285D01*
X131290286Y-73699714D01*
X131647429Y-73699714D01*
X131790286Y-73628285D01*
X131861714Y-73556857D01*
X131933143Y-73413999D01*
X131933143Y-73128285D01*
X131861714Y-72985428D01*
X131790286Y-72913999D01*
X131647429Y-72842571D01*
X134616000Y-74985428D02*
X134616000Y-74271142D01*
X135044571Y-75128285D02*
X133544571Y-74628285D01*
X135044571Y-74128285D01*
X134187429Y-73413999D02*
X134116000Y-73556857D01*
X134044571Y-73628285D01*
X133901714Y-73699714D01*
X133830286Y-73699714D01*
X133687429Y-73628285D01*
X133616000Y-73556857D01*
X133544571Y-73413999D01*
X133544571Y-73128285D01*
X133616000Y-72985428D01*
X133687429Y-72913999D01*
X133830286Y-72842571D01*
X133901714Y-72842571D01*
X134044571Y-72913999D01*
X134116000Y-72985428D01*
X134187429Y-73128285D01*
X134187429Y-73413999D01*
X134258857Y-73556857D01*
X134330286Y-73628285D01*
X134473143Y-73699714D01*
X134758857Y-73699714D01*
X134901714Y-73628285D01*
X134973143Y-73556857D01*
X135044571Y-73413999D01*
X135044571Y-73128285D01*
X134973143Y-72985428D01*
X134901714Y-72913999D01*
X134758857Y-72842571D01*
X134473143Y-72842571D01*
X134330286Y-72913999D01*
X134258857Y-72985428D01*
X134187429Y-73128285D01*
X137156000Y-74985428D02*
X137156000Y-74271142D01*
X137584571Y-75128285D02*
X136084571Y-74628285D01*
X137584571Y-74128285D01*
X136084571Y-73771142D02*
X136084571Y-72771142D01*
X137584571Y-73413999D01*
X152523000Y-69016428D02*
X152523000Y-68302142D01*
X152951571Y-69159285D02*
X151451571Y-68659285D01*
X152951571Y-68159285D01*
X151451571Y-66944999D02*
X151451571Y-67659285D01*
X152165857Y-67730714D01*
X152094429Y-67659285D01*
X152023000Y-67516428D01*
X152023000Y-67159285D01*
X152094429Y-67016428D01*
X152165857Y-66944999D01*
X152308714Y-66873571D01*
X152665857Y-66873571D01*
X152808714Y-66944999D01*
X152880143Y-67016428D01*
X152951571Y-67159285D01*
X152951571Y-67516428D01*
X152880143Y-67659285D01*
X152808714Y-67730714D01*
X155063000Y-69016428D02*
X155063000Y-68302142D01*
X155491571Y-69159285D02*
X153991571Y-68659285D01*
X155491571Y-68159285D01*
X154491571Y-67016428D02*
X155491571Y-67016428D01*
X153920143Y-67373571D02*
X154991571Y-67730714D01*
X154991571Y-66802142D01*
X157603000Y-69016428D02*
X157603000Y-68302142D01*
X158031571Y-69159285D02*
X156531571Y-68659285D01*
X158031571Y-68159285D01*
X156531571Y-67802142D02*
X156531571Y-66873571D01*
X157103000Y-67373571D01*
X157103000Y-67159285D01*
X157174429Y-67016428D01*
X157245857Y-66944999D01*
X157388714Y-66873571D01*
X157745857Y-66873571D01*
X157888714Y-66944999D01*
X157960143Y-67016428D01*
X158031571Y-67159285D01*
X158031571Y-67587857D01*
X157960143Y-67730714D01*
X157888714Y-67802142D01*
X160143000Y-69016428D02*
X160143000Y-68302142D01*
X160571571Y-69159285D02*
X159071571Y-68659285D01*
X160571571Y-68159285D01*
X159214429Y-67730714D02*
X159143000Y-67659285D01*
X159071571Y-67516428D01*
X159071571Y-67159285D01*
X159143000Y-67016428D01*
X159214429Y-66944999D01*
X159357286Y-66873571D01*
X159500143Y-66873571D01*
X159714429Y-66944999D01*
X160571571Y-67802142D01*
X160571571Y-66873571D01*
X162683000Y-69016428D02*
X162683000Y-68302142D01*
X163111571Y-69159285D02*
X161611571Y-68659285D01*
X163111571Y-68159285D01*
X163111571Y-66873571D02*
X163111571Y-67730714D01*
X163111571Y-67302142D02*
X161611571Y-67302142D01*
X161825857Y-67444999D01*
X161968714Y-67587857D01*
X162040143Y-67730714D01*
X165223000Y-69016428D02*
X165223000Y-68302142D01*
X165651571Y-69159285D02*
X164151571Y-68659285D01*
X165651571Y-68159285D01*
X164151571Y-67373571D02*
X164151571Y-67230714D01*
X164223000Y-67087857D01*
X164294429Y-67016428D01*
X164437286Y-66944999D01*
X164723000Y-66873571D01*
X165080143Y-66873571D01*
X165365857Y-66944999D01*
X165508714Y-67016428D01*
X165580143Y-67087857D01*
X165651571Y-67230714D01*
X165651571Y-67373571D01*
X165580143Y-67516428D01*
X165508714Y-67587857D01*
X165365857Y-67659285D01*
X165080143Y-67730714D01*
X164723000Y-67730714D01*
X164437286Y-67659285D01*
X164294429Y-67587857D01*
X164223000Y-67516428D01*
X164151571Y-67373571D01*
X168191571Y-68532142D02*
X167477286Y-69032142D01*
X168191571Y-69389285D02*
X166691571Y-69389285D01*
X166691571Y-68817857D01*
X166763000Y-68674999D01*
X166834429Y-68603571D01*
X166977286Y-68532142D01*
X167191571Y-68532142D01*
X167334429Y-68603571D01*
X167405857Y-68674999D01*
X167477286Y-68817857D01*
X167477286Y-69389285D01*
X168191571Y-67889285D02*
X166691571Y-67889285D01*
X167763000Y-67389285D01*
X166691571Y-66889285D01*
X168191571Y-66889285D01*
X168048714Y-65317856D02*
X168120143Y-65389285D01*
X168191571Y-65603571D01*
X168191571Y-65746428D01*
X168120143Y-65960713D01*
X167977286Y-66103571D01*
X167834429Y-66174999D01*
X167548714Y-66246428D01*
X167334429Y-66246428D01*
X167048714Y-66174999D01*
X166905857Y-66103571D01*
X166763000Y-65960713D01*
X166691571Y-65746428D01*
X166691571Y-65603571D01*
X166763000Y-65389285D01*
X166834429Y-65317856D01*
X168191571Y-63889285D02*
X168191571Y-64746428D01*
X168191571Y-64317856D02*
X166691571Y-64317856D01*
X166905857Y-64460713D01*
X167048714Y-64603571D01*
X167120143Y-64746428D01*
X170731571Y-68532142D02*
X170017286Y-69032142D01*
X170731571Y-69389285D02*
X169231571Y-69389285D01*
X169231571Y-68817857D01*
X169303000Y-68674999D01*
X169374429Y-68603571D01*
X169517286Y-68532142D01*
X169731571Y-68532142D01*
X169874429Y-68603571D01*
X169945857Y-68674999D01*
X170017286Y-68817857D01*
X170017286Y-69389285D01*
X170731571Y-67889285D02*
X169231571Y-67889285D01*
X170303000Y-67389285D01*
X169231571Y-66889285D01*
X170731571Y-66889285D01*
X170588714Y-65317856D02*
X170660143Y-65389285D01*
X170731571Y-65603571D01*
X170731571Y-65746428D01*
X170660143Y-65960713D01*
X170517286Y-66103571D01*
X170374429Y-66174999D01*
X170088714Y-66246428D01*
X169874429Y-66246428D01*
X169588714Y-66174999D01*
X169445857Y-66103571D01*
X169303000Y-65960713D01*
X169231571Y-65746428D01*
X169231571Y-65603571D01*
X169303000Y-65389285D01*
X169374429Y-65317856D01*
X169231571Y-64389285D02*
X169231571Y-64246428D01*
X169303000Y-64103571D01*
X169374429Y-64032142D01*
X169517286Y-63960713D01*
X169803000Y-63889285D01*
X170160143Y-63889285D01*
X170445857Y-63960713D01*
X170588714Y-64032142D01*
X170660143Y-64103571D01*
X170731571Y-64246428D01*
X170731571Y-64389285D01*
X170660143Y-64532142D01*
X170588714Y-64603571D01*
X170445857Y-64674999D01*
X170160143Y-64746428D01*
X169803000Y-64746428D01*
X169517286Y-64674999D01*
X169374429Y-64603571D01*
X169303000Y-64532142D01*
X169231571Y-64389285D01*
X173271571Y-68345714D02*
X172557286Y-68845714D01*
X173271571Y-69202857D02*
X171771571Y-69202857D01*
X171771571Y-68631429D01*
X171843000Y-68488571D01*
X171914429Y-68417143D01*
X172057286Y-68345714D01*
X172271571Y-68345714D01*
X172414429Y-68417143D01*
X172485857Y-68488571D01*
X172557286Y-68631429D01*
X172557286Y-69202857D01*
X172843000Y-67774286D02*
X172843000Y-67060000D01*
X173271571Y-67917143D02*
X171771571Y-67417143D01*
X173271571Y-66917143D01*
X173271571Y-66417143D02*
X171771571Y-66417143D01*
X172843000Y-65917143D01*
X171771571Y-65417143D01*
X173271571Y-65417143D01*
X175430571Y-69179142D02*
X173930571Y-69179142D01*
X173930571Y-68821999D01*
X174002000Y-68607714D01*
X174144857Y-68464856D01*
X174287714Y-68393428D01*
X174573429Y-68321999D01*
X174787714Y-68321999D01*
X175073429Y-68393428D01*
X175216286Y-68464856D01*
X175359143Y-68607714D01*
X175430571Y-68821999D01*
X175430571Y-69179142D01*
X173930571Y-67393428D02*
X173930571Y-67250571D01*
X174002000Y-67107714D01*
X174073429Y-67036285D01*
X174216286Y-66964856D01*
X174502000Y-66893428D01*
X174859143Y-66893428D01*
X175144857Y-66964856D01*
X175287714Y-67036285D01*
X175359143Y-67107714D01*
X175430571Y-67250571D01*
X175430571Y-67393428D01*
X175359143Y-67536285D01*
X175287714Y-67607714D01*
X175144857Y-67679142D01*
X174859143Y-67750571D01*
X174502000Y-67750571D01*
X174216286Y-67679142D01*
X174073429Y-67607714D01*
X174002000Y-67536285D01*
X173930571Y-67393428D01*
X177970571Y-69179142D02*
X176470571Y-69179142D01*
X176470571Y-68821999D01*
X176542000Y-68607714D01*
X176684857Y-68464856D01*
X176827714Y-68393428D01*
X177113429Y-68321999D01*
X177327714Y-68321999D01*
X177613429Y-68393428D01*
X177756286Y-68464856D01*
X177899143Y-68607714D01*
X177970571Y-68821999D01*
X177970571Y-69179142D01*
X177970571Y-66893428D02*
X177970571Y-67750571D01*
X177970571Y-67321999D02*
X176470571Y-67321999D01*
X176684857Y-67464856D01*
X176827714Y-67607714D01*
X176899143Y-67750571D01*
X180510571Y-69179142D02*
X179010571Y-69179142D01*
X179010571Y-68821999D01*
X179082000Y-68607714D01*
X179224857Y-68464856D01*
X179367714Y-68393428D01*
X179653429Y-68321999D01*
X179867714Y-68321999D01*
X180153429Y-68393428D01*
X180296286Y-68464856D01*
X180439143Y-68607714D01*
X180510571Y-68821999D01*
X180510571Y-69179142D01*
X179153429Y-67750571D02*
X179082000Y-67679142D01*
X179010571Y-67536285D01*
X179010571Y-67179142D01*
X179082000Y-67036285D01*
X179153429Y-66964856D01*
X179296286Y-66893428D01*
X179439143Y-66893428D01*
X179653429Y-66964856D01*
X180510571Y-67821999D01*
X180510571Y-66893428D01*
X183050571Y-69179142D02*
X181550571Y-69179142D01*
X181550571Y-68821999D01*
X181622000Y-68607714D01*
X181764857Y-68464856D01*
X181907714Y-68393428D01*
X182193429Y-68321999D01*
X182407714Y-68321999D01*
X182693429Y-68393428D01*
X182836286Y-68464856D01*
X182979143Y-68607714D01*
X183050571Y-68821999D01*
X183050571Y-69179142D01*
X181550571Y-67821999D02*
X181550571Y-66893428D01*
X182122000Y-67393428D01*
X182122000Y-67179142D01*
X182193429Y-67036285D01*
X182264857Y-66964856D01*
X182407714Y-66893428D01*
X182764857Y-66893428D01*
X182907714Y-66964856D01*
X182979143Y-67036285D01*
X183050571Y-67179142D01*
X183050571Y-67607714D01*
X182979143Y-67750571D01*
X182907714Y-67821999D01*
X188130571Y-69179142D02*
X186630571Y-69179142D01*
X186630571Y-68821999D01*
X186702000Y-68607714D01*
X186844857Y-68464856D01*
X186987714Y-68393428D01*
X187273429Y-68321999D01*
X187487714Y-68321999D01*
X187773429Y-68393428D01*
X187916286Y-68464856D01*
X188059143Y-68607714D01*
X188130571Y-68821999D01*
X188130571Y-69179142D01*
X186630571Y-66964856D02*
X186630571Y-67679142D01*
X187344857Y-67750571D01*
X187273429Y-67679142D01*
X187202000Y-67536285D01*
X187202000Y-67179142D01*
X187273429Y-67036285D01*
X187344857Y-66964856D01*
X187487714Y-66893428D01*
X187844857Y-66893428D01*
X187987714Y-66964856D01*
X188059143Y-67036285D01*
X188130571Y-67179142D01*
X188130571Y-67536285D01*
X188059143Y-67679142D01*
X187987714Y-67750571D01*
X190670571Y-69179142D02*
X189170571Y-69179142D01*
X189170571Y-68821999D01*
X189242000Y-68607714D01*
X189384857Y-68464856D01*
X189527714Y-68393428D01*
X189813429Y-68321999D01*
X190027714Y-68321999D01*
X190313429Y-68393428D01*
X190456286Y-68464856D01*
X190599143Y-68607714D01*
X190670571Y-68821999D01*
X190670571Y-69179142D01*
X189170571Y-67036285D02*
X189170571Y-67321999D01*
X189242000Y-67464856D01*
X189313429Y-67536285D01*
X189527714Y-67679142D01*
X189813429Y-67750571D01*
X190384857Y-67750571D01*
X190527714Y-67679142D01*
X190599143Y-67607714D01*
X190670571Y-67464856D01*
X190670571Y-67179142D01*
X190599143Y-67036285D01*
X190527714Y-66964856D01*
X190384857Y-66893428D01*
X190027714Y-66893428D01*
X189884857Y-66964856D01*
X189813429Y-67036285D01*
X189742000Y-67179142D01*
X189742000Y-67464856D01*
X189813429Y-67607714D01*
X189884857Y-67679142D01*
X190027714Y-67750571D01*
X193210571Y-69179142D02*
X191710571Y-69179142D01*
X191710571Y-68821999D01*
X191782000Y-68607714D01*
X191924857Y-68464856D01*
X192067714Y-68393428D01*
X192353429Y-68321999D01*
X192567714Y-68321999D01*
X192853429Y-68393428D01*
X192996286Y-68464856D01*
X193139143Y-68607714D01*
X193210571Y-68821999D01*
X193210571Y-69179142D01*
X191710571Y-67821999D02*
X191710571Y-66821999D01*
X193210571Y-67464856D01*
X196004571Y-69480571D02*
X194504571Y-69480571D01*
X195576000Y-68980571D01*
X194504571Y-68480571D01*
X196004571Y-68480571D01*
X194504571Y-67909142D02*
X196004571Y-66909142D01*
X194504571Y-66909142D02*
X196004571Y-67909142D01*
X196004571Y-66337714D02*
X194504571Y-66337714D01*
X194504571Y-65980571D01*
X194576000Y-65766286D01*
X194718857Y-65623428D01*
X194861714Y-65552000D01*
X195147429Y-65480571D01*
X195361714Y-65480571D01*
X195647429Y-65552000D01*
X195790286Y-65623428D01*
X195933143Y-65766286D01*
X196004571Y-65980571D01*
X196004571Y-66337714D01*
X194504571Y-64980571D02*
X194504571Y-63980571D01*
X196004571Y-64623428D01*
X198544571Y-69480571D02*
X197044571Y-69480571D01*
X198116000Y-68980571D01*
X197044571Y-68480571D01*
X198544571Y-68480571D01*
X197044571Y-67909142D02*
X198544571Y-66909142D01*
X197044571Y-66909142D02*
X198544571Y-67909142D01*
X198544571Y-66337714D02*
X197044571Y-66337714D01*
X197044571Y-65980571D01*
X197116000Y-65766286D01*
X197258857Y-65623428D01*
X197401714Y-65552000D01*
X197687429Y-65480571D01*
X197901714Y-65480571D01*
X198187429Y-65552000D01*
X198330286Y-65623428D01*
X198473143Y-65766286D01*
X198544571Y-65980571D01*
X198544571Y-66337714D01*
X197044571Y-64194857D02*
X197044571Y-64480571D01*
X197116000Y-64623428D01*
X197187429Y-64694857D01*
X197401714Y-64837714D01*
X197687429Y-64909143D01*
X198258857Y-64909143D01*
X198401714Y-64837714D01*
X198473143Y-64766286D01*
X198544571Y-64623428D01*
X198544571Y-64337714D01*
X198473143Y-64194857D01*
X198401714Y-64123428D01*
X198258857Y-64052000D01*
X197901714Y-64052000D01*
X197758857Y-64123428D01*
X197687429Y-64194857D01*
X197616000Y-64337714D01*
X197616000Y-64623428D01*
X197687429Y-64766286D01*
X197758857Y-64837714D01*
X197901714Y-64909143D01*
X139696000Y-74985428D02*
X139696000Y-74271142D01*
X140124571Y-75128285D02*
X138624571Y-74628285D01*
X140124571Y-74128285D01*
X138624571Y-72985428D02*
X138624571Y-73271142D01*
X138696000Y-73413999D01*
X138767429Y-73485428D01*
X138981714Y-73628285D01*
X139267429Y-73699714D01*
X139838857Y-73699714D01*
X139981714Y-73628285D01*
X140053143Y-73556857D01*
X140124571Y-73413999D01*
X140124571Y-73128285D01*
X140053143Y-72985428D01*
X139981714Y-72913999D01*
X139838857Y-72842571D01*
X139481714Y-72842571D01*
X139338857Y-72913999D01*
X139267429Y-72985428D01*
X139196000Y-73128285D01*
X139196000Y-73413999D01*
X139267429Y-73556857D01*
X139338857Y-73628285D01*
X139481714Y-73699714D01*
X222388571Y-111081429D02*
X222388571Y-112581429D01*
X221888571Y-111510000D01*
X221388571Y-112581429D01*
X221388571Y-111081429D01*
X220817142Y-112581429D02*
X219817142Y-111081429D01*
X219817142Y-112581429D02*
X220817142Y-111081429D01*
X219245714Y-111081429D02*
X219245714Y-112581429D01*
X218888571Y-112581429D01*
X218674286Y-112510000D01*
X218531428Y-112367143D01*
X218460000Y-112224286D01*
X218388571Y-111938571D01*
X218388571Y-111724286D01*
X218460000Y-111438571D01*
X218531428Y-111295714D01*
X218674286Y-111152857D01*
X218888571Y-111081429D01*
X219245714Y-111081429D01*
X217888571Y-112581429D02*
X216960000Y-112581429D01*
X217460000Y-112010000D01*
X217245714Y-112010000D01*
X217102857Y-111938571D01*
X217031428Y-111867143D01*
X216960000Y-111724286D01*
X216960000Y-111367143D01*
X217031428Y-111224286D01*
X217102857Y-111152857D01*
X217245714Y-111081429D01*
X217674286Y-111081429D01*
X217817143Y-111152857D01*
X217888571Y-111224286D01*
X222388571Y-108541429D02*
X222388571Y-110041429D01*
X221888571Y-108970000D01*
X221388571Y-110041429D01*
X221388571Y-108541429D01*
X220817142Y-110041429D02*
X219817142Y-108541429D01*
X219817142Y-110041429D02*
X220817142Y-108541429D01*
X219245714Y-108541429D02*
X219245714Y-110041429D01*
X218888571Y-110041429D01*
X218674286Y-109970000D01*
X218531428Y-109827143D01*
X218460000Y-109684286D01*
X218388571Y-109398571D01*
X218388571Y-109184286D01*
X218460000Y-108898571D01*
X218531428Y-108755714D01*
X218674286Y-108612857D01*
X218888571Y-108541429D01*
X219245714Y-108541429D01*
X217817143Y-109898571D02*
X217745714Y-109970000D01*
X217602857Y-110041429D01*
X217245714Y-110041429D01*
X217102857Y-109970000D01*
X217031428Y-109898571D01*
X216960000Y-109755714D01*
X216960000Y-109612857D01*
X217031428Y-109398571D01*
X217888571Y-108541429D01*
X216960000Y-108541429D01*
X222388571Y-106001429D02*
X222388571Y-107501429D01*
X221888571Y-106430000D01*
X221388571Y-107501429D01*
X221388571Y-106001429D01*
X220817142Y-107501429D02*
X219817142Y-106001429D01*
X219817142Y-107501429D02*
X220817142Y-106001429D01*
X219245714Y-106001429D02*
X219245714Y-107501429D01*
X218888571Y-107501429D01*
X218674286Y-107430000D01*
X218531428Y-107287143D01*
X218460000Y-107144286D01*
X218388571Y-106858571D01*
X218388571Y-106644286D01*
X218460000Y-106358571D01*
X218531428Y-106215714D01*
X218674286Y-106072857D01*
X218888571Y-106001429D01*
X219245714Y-106001429D01*
X216960000Y-106001429D02*
X217817143Y-106001429D01*
X217388571Y-106001429D02*
X217388571Y-107501429D01*
X217531428Y-107287143D01*
X217674286Y-107144286D01*
X217817143Y-107072857D01*
X222388571Y-103461429D02*
X222388571Y-104961429D01*
X221888571Y-103890000D01*
X221388571Y-104961429D01*
X221388571Y-103461429D01*
X220817142Y-104961429D02*
X219817142Y-103461429D01*
X219817142Y-104961429D02*
X220817142Y-103461429D01*
X219245714Y-103461429D02*
X219245714Y-104961429D01*
X218888571Y-104961429D01*
X218674286Y-104890000D01*
X218531428Y-104747143D01*
X218460000Y-104604286D01*
X218388571Y-104318571D01*
X218388571Y-104104286D01*
X218460000Y-103818571D01*
X218531428Y-103675714D01*
X218674286Y-103532857D01*
X218888571Y-103461429D01*
X219245714Y-103461429D01*
X217460000Y-104961429D02*
X217317143Y-104961429D01*
X217174286Y-104890000D01*
X217102857Y-104818571D01*
X217031428Y-104675714D01*
X216960000Y-104390000D01*
X216960000Y-104032857D01*
X217031428Y-103747143D01*
X217102857Y-103604286D01*
X217174286Y-103532857D01*
X217317143Y-103461429D01*
X217460000Y-103461429D01*
X217602857Y-103532857D01*
X217674286Y-103604286D01*
X217745714Y-103747143D01*
X217817143Y-104032857D01*
X217817143Y-104390000D01*
X217745714Y-104675714D01*
X217674286Y-104818571D01*
X217602857Y-104890000D01*
X217460000Y-104961429D01*
X222194285Y-100921429D02*
X222194285Y-102421429D01*
X221694285Y-101350000D01*
X221194285Y-102421429D01*
X221194285Y-100921429D01*
X219694285Y-100921429D02*
X220551428Y-100921429D01*
X220122856Y-100921429D02*
X220122856Y-102421429D01*
X220265713Y-102207143D01*
X220408571Y-102064286D01*
X220551428Y-101992857D01*
X221265714Y-98381429D02*
X221765714Y-99095714D01*
X222122857Y-98381429D02*
X222122857Y-99881429D01*
X221551429Y-99881429D01*
X221408571Y-99810000D01*
X221337143Y-99738571D01*
X221265714Y-99595714D01*
X221265714Y-99381429D01*
X221337143Y-99238571D01*
X221408571Y-99167143D01*
X221551429Y-99095714D01*
X222122857Y-99095714D01*
X220622857Y-98381429D02*
X220622857Y-99881429D01*
X220265714Y-99881429D01*
X220051429Y-99810000D01*
X219908571Y-99667143D01*
X219837143Y-99524286D01*
X219765714Y-99238571D01*
X219765714Y-99024286D01*
X219837143Y-98738571D01*
X219908571Y-98595714D01*
X220051429Y-98452857D01*
X220265714Y-98381429D01*
X220622857Y-98381429D01*
X222309285Y-95841429D02*
X222309285Y-97341429D01*
X221809285Y-96270000D01*
X221309285Y-97341429D01*
X221309285Y-95841429D01*
X219737856Y-95984286D02*
X219809285Y-95912857D01*
X220023571Y-95841429D01*
X220166428Y-95841429D01*
X220380713Y-95912857D01*
X220523571Y-96055714D01*
X220594999Y-96198571D01*
X220666428Y-96484286D01*
X220666428Y-96698571D01*
X220594999Y-96984286D01*
X220523571Y-97127143D01*
X220380713Y-97270000D01*
X220166428Y-97341429D01*
X220023571Y-97341429D01*
X219809285Y-97270000D01*
X219737856Y-97198571D01*
X218309285Y-95841429D02*
X219166428Y-95841429D01*
X218737856Y-95841429D02*
X218737856Y-97341429D01*
X218880713Y-97127143D01*
X219023571Y-96984286D01*
X219166428Y-96912857D01*
X222309285Y-93301429D02*
X222309285Y-94801429D01*
X221809285Y-93730000D01*
X221309285Y-94801429D01*
X221309285Y-93301429D01*
X219737856Y-93444286D02*
X219809285Y-93372857D01*
X220023571Y-93301429D01*
X220166428Y-93301429D01*
X220380713Y-93372857D01*
X220523571Y-93515714D01*
X220594999Y-93658571D01*
X220666428Y-93944286D01*
X220666428Y-94158571D01*
X220594999Y-94444286D01*
X220523571Y-94587143D01*
X220380713Y-94730000D01*
X220166428Y-94801429D01*
X220023571Y-94801429D01*
X219809285Y-94730000D01*
X219737856Y-94658571D01*
X218809285Y-94801429D02*
X218666428Y-94801429D01*
X218523571Y-94730000D01*
X218452142Y-94658571D01*
X218380713Y-94515714D01*
X218309285Y-94230000D01*
X218309285Y-93872857D01*
X218380713Y-93587143D01*
X218452142Y-93444286D01*
X218523571Y-93372857D01*
X218666428Y-93301429D01*
X218809285Y-93301429D01*
X218952142Y-93372857D01*
X219023571Y-93444286D01*
X219094999Y-93587143D01*
X219166428Y-93872857D01*
X219166428Y-94230000D01*
X219094999Y-94515714D01*
X219023571Y-94658571D01*
X218952142Y-94730000D01*
X218809285Y-94801429D01*
D11*
X221669429Y-84237286D02*
X221488000Y-83475286D01*
X221342857Y-84019571D01*
X221197715Y-83475286D01*
X221016286Y-84237286D01*
X220726000Y-83765571D02*
X220145429Y-83765571D01*
X219782571Y-83475286D02*
X219782571Y-84237286D01*
X219601143Y-84237286D01*
X219492286Y-84201000D01*
X219419714Y-84128429D01*
X219383429Y-84055857D01*
X219347143Y-83910714D01*
X219347143Y-83801857D01*
X219383429Y-83656714D01*
X219419714Y-83584143D01*
X219492286Y-83511571D01*
X219601143Y-83475286D01*
X219782571Y-83475286D01*
X218875429Y-84237286D02*
X218730286Y-84237286D01*
X218657714Y-84201000D01*
X218585143Y-84128429D01*
X218548857Y-83983286D01*
X218548857Y-83729286D01*
X218585143Y-83584143D01*
X218657714Y-83511571D01*
X218730286Y-83475286D01*
X218875429Y-83475286D01*
X218948000Y-83511571D01*
X219020571Y-83584143D01*
X219056857Y-83729286D01*
X219056857Y-83983286D01*
X219020571Y-84128429D01*
X218948000Y-84201000D01*
X218875429Y-84237286D01*
X217823143Y-84201000D02*
X217895714Y-84237286D01*
X218004571Y-84237286D01*
X218113428Y-84201000D01*
X218186000Y-84128429D01*
X218222285Y-84055857D01*
X218258571Y-83910714D01*
X218258571Y-83801857D01*
X218222285Y-83656714D01*
X218186000Y-83584143D01*
X218113428Y-83511571D01*
X218004571Y-83475286D01*
X217932000Y-83475286D01*
X217823143Y-83511571D01*
X217786857Y-83547857D01*
X217786857Y-83801857D01*
X217932000Y-83801857D01*
X221025357Y-81334429D02*
X220916500Y-81298143D01*
X220880215Y-81261857D01*
X220843929Y-81189286D01*
X220843929Y-81080429D01*
X220880215Y-81007857D01*
X220916500Y-80971571D01*
X220989072Y-80935286D01*
X221279357Y-80935286D01*
X221279357Y-81697286D01*
X221025357Y-81697286D01*
X220952786Y-81661000D01*
X220916500Y-81624714D01*
X220880215Y-81552143D01*
X220880215Y-81479571D01*
X220916500Y-81407000D01*
X220952786Y-81370714D01*
X221025357Y-81334429D01*
X221279357Y-81334429D01*
X220517357Y-81697286D02*
X220517357Y-81080429D01*
X220481072Y-81007857D01*
X220444786Y-80971571D01*
X220372215Y-80935286D01*
X220227072Y-80935286D01*
X220154500Y-80971571D01*
X220118215Y-81007857D01*
X220081929Y-81080429D01*
X220081929Y-81697286D01*
X219791643Y-81697286D02*
X219283643Y-81697286D01*
X219791643Y-80935286D01*
X219283643Y-80935286D01*
X218848215Y-81697286D02*
X218703072Y-81697286D01*
X218630500Y-81661000D01*
X218557929Y-81588429D01*
X218521643Y-81443286D01*
X218521643Y-81189286D01*
X218557929Y-81044143D01*
X218630500Y-80971571D01*
X218703072Y-80935286D01*
X218848215Y-80935286D01*
X218920786Y-80971571D01*
X218993357Y-81044143D01*
X219029643Y-81189286D01*
X219029643Y-81443286D01*
X218993357Y-81588429D01*
X218920786Y-81661000D01*
X218848215Y-81697286D01*
X217941071Y-81334429D02*
X218195071Y-81334429D01*
X218195071Y-80935286D02*
X218195071Y-81697286D01*
X217832214Y-81697286D01*
X217287928Y-81334429D02*
X217541928Y-81334429D01*
X217541928Y-80935286D02*
X217541928Y-81697286D01*
X217179071Y-81697286D01*
X221070714Y-78984929D02*
X220961857Y-78948643D01*
X220925572Y-78912357D01*
X220889286Y-78839786D01*
X220889286Y-78730929D01*
X220925572Y-78658357D01*
X220961857Y-78622071D01*
X221034429Y-78585786D01*
X221324714Y-78585786D01*
X221324714Y-79347786D01*
X221070714Y-79347786D01*
X220998143Y-79311500D01*
X220961857Y-79275214D01*
X220925572Y-79202643D01*
X220925572Y-79130071D01*
X220961857Y-79057500D01*
X220998143Y-79021214D01*
X221070714Y-78984929D01*
X221324714Y-78984929D01*
X220562714Y-79347786D02*
X220562714Y-78730929D01*
X220526429Y-78658357D01*
X220490143Y-78622071D01*
X220417572Y-78585786D01*
X220272429Y-78585786D01*
X220199857Y-78622071D01*
X220163572Y-78658357D01*
X220127286Y-78730929D01*
X220127286Y-79347786D01*
X219510428Y-78984929D02*
X219764428Y-78984929D01*
X219764428Y-78585786D02*
X219764428Y-79347786D01*
X219401571Y-79347786D01*
X219147571Y-78803500D02*
X218784714Y-78803500D01*
X219220143Y-78585786D02*
X218966143Y-79347786D01*
X218712143Y-78585786D01*
X218059000Y-78585786D02*
X218494428Y-78585786D01*
X218276714Y-78585786D02*
X218276714Y-79347786D01*
X218349285Y-79238929D01*
X218421857Y-79166357D01*
X218494428Y-79130071D01*
X221007214Y-76508429D02*
X220898357Y-76472143D01*
X220862072Y-76435857D01*
X220825786Y-76363286D01*
X220825786Y-76254429D01*
X220862072Y-76181857D01*
X220898357Y-76145571D01*
X220970929Y-76109286D01*
X221261214Y-76109286D01*
X221261214Y-76871286D01*
X221007214Y-76871286D01*
X220934643Y-76835000D01*
X220898357Y-76798714D01*
X220862072Y-76726143D01*
X220862072Y-76653571D01*
X220898357Y-76581000D01*
X220934643Y-76544714D01*
X221007214Y-76508429D01*
X221261214Y-76508429D01*
X220499214Y-76871286D02*
X220499214Y-76254429D01*
X220462929Y-76181857D01*
X220426643Y-76145571D01*
X220354072Y-76109286D01*
X220208929Y-76109286D01*
X220136357Y-76145571D01*
X220100072Y-76181857D01*
X220063786Y-76254429D01*
X220063786Y-76871286D01*
X219446928Y-76508429D02*
X219700928Y-76508429D01*
X219700928Y-76109286D02*
X219700928Y-76871286D01*
X219338071Y-76871286D01*
X219084071Y-76327000D02*
X218721214Y-76327000D01*
X219156643Y-76109286D02*
X218902643Y-76871286D01*
X218648643Y-76109286D01*
X218249500Y-76871286D02*
X218176928Y-76871286D01*
X218104357Y-76835000D01*
X218068071Y-76798714D01*
X218031785Y-76726143D01*
X217995500Y-76581000D01*
X217995500Y-76399571D01*
X218031785Y-76254429D01*
X218068071Y-76181857D01*
X218104357Y-76145571D01*
X218176928Y-76109286D01*
X218249500Y-76109286D01*
X218322071Y-76145571D01*
X218358357Y-76181857D01*
X218394642Y-76254429D01*
X218430928Y-76399571D01*
X218430928Y-76581000D01*
X218394642Y-76726143D01*
X218358357Y-76798714D01*
X218322071Y-76835000D01*
X218249500Y-76871286D01*
D12*
X222309285Y-72981429D02*
X222309285Y-74481429D01*
X221809285Y-73410000D01*
X221309285Y-74481429D01*
X221309285Y-72981429D01*
X220594999Y-72981429D02*
X220594999Y-74481429D01*
X220237856Y-74481429D01*
X220023571Y-74410000D01*
X219880713Y-74267143D01*
X219809285Y-74124286D01*
X219737856Y-73838571D01*
X219737856Y-73624286D01*
X219809285Y-73338571D01*
X219880713Y-73195714D01*
X220023571Y-73052857D01*
X220237856Y-72981429D01*
X220594999Y-72981429D01*
X218809285Y-74481429D02*
X218666428Y-74481429D01*
X218523571Y-74410000D01*
X218452142Y-74338571D01*
X218380713Y-74195714D01*
X218309285Y-73910000D01*
X218309285Y-73552857D01*
X218380713Y-73267143D01*
X218452142Y-73124286D01*
X218523571Y-73052857D01*
X218666428Y-72981429D01*
X218809285Y-72981429D01*
X218952142Y-73052857D01*
X219023571Y-73124286D01*
X219094999Y-73267143D01*
X219166428Y-73552857D01*
X219166428Y-73910000D01*
X219094999Y-74195714D01*
X219023571Y-74338571D01*
X218952142Y-74410000D01*
X218809285Y-74481429D01*
X222309285Y-70441429D02*
X222309285Y-71941429D01*
X221809285Y-70870000D01*
X221309285Y-71941429D01*
X221309285Y-70441429D01*
X220594999Y-70441429D02*
X220594999Y-71941429D01*
X220237856Y-71941429D01*
X220023571Y-71870000D01*
X219880713Y-71727143D01*
X219809285Y-71584286D01*
X219737856Y-71298571D01*
X219737856Y-71084286D01*
X219809285Y-70798571D01*
X219880713Y-70655714D01*
X220023571Y-70512857D01*
X220237856Y-70441429D01*
X220594999Y-70441429D01*
X218309285Y-70441429D02*
X219166428Y-70441429D01*
X218737856Y-70441429D02*
X218737856Y-71941429D01*
X218880713Y-71727143D01*
X219023571Y-71584286D01*
X219166428Y-71512857D01*
X222309285Y-67901429D02*
X222309285Y-69401429D01*
X221809285Y-68330000D01*
X221309285Y-69401429D01*
X221309285Y-67901429D01*
X220594999Y-67901429D02*
X220594999Y-69401429D01*
X220237856Y-69401429D01*
X220023571Y-69330000D01*
X219880713Y-69187143D01*
X219809285Y-69044286D01*
X219737856Y-68758571D01*
X219737856Y-68544286D01*
X219809285Y-68258571D01*
X219880713Y-68115714D01*
X220023571Y-67972857D01*
X220237856Y-67901429D01*
X220594999Y-67901429D01*
X219166428Y-69258571D02*
X219094999Y-69330000D01*
X218952142Y-69401429D01*
X218594999Y-69401429D01*
X218452142Y-69330000D01*
X218380713Y-69258571D01*
X218309285Y-69115714D01*
X218309285Y-68972857D01*
X218380713Y-68758571D01*
X219237856Y-67901429D01*
X218309285Y-67901429D01*
X235390285Y-111335429D02*
X235390285Y-112835429D01*
X234890285Y-111764000D01*
X234390285Y-112835429D01*
X234390285Y-111335429D01*
X233675999Y-111335429D02*
X233675999Y-112835429D01*
X233318856Y-112835429D01*
X233104571Y-112764000D01*
X232961713Y-112621143D01*
X232890285Y-112478286D01*
X232818856Y-112192571D01*
X232818856Y-111978286D01*
X232890285Y-111692571D01*
X232961713Y-111549714D01*
X233104571Y-111406857D01*
X233318856Y-111335429D01*
X233675999Y-111335429D01*
X231461713Y-112835429D02*
X232175999Y-112835429D01*
X232247428Y-112121143D01*
X232175999Y-112192571D01*
X232033142Y-112264000D01*
X231675999Y-112264000D01*
X231533142Y-112192571D01*
X231461713Y-112121143D01*
X231390285Y-111978286D01*
X231390285Y-111621143D01*
X231461713Y-111478286D01*
X231533142Y-111406857D01*
X231675999Y-111335429D01*
X232033142Y-111335429D01*
X232175999Y-111406857D01*
X232247428Y-111478286D01*
X235390285Y-108795429D02*
X235390285Y-110295429D01*
X234890285Y-109224000D01*
X234390285Y-110295429D01*
X234390285Y-108795429D01*
X233675999Y-108795429D02*
X233675999Y-110295429D01*
X233318856Y-110295429D01*
X233104571Y-110224000D01*
X232961713Y-110081143D01*
X232890285Y-109938286D01*
X232818856Y-109652571D01*
X232818856Y-109438286D01*
X232890285Y-109152571D01*
X232961713Y-109009714D01*
X233104571Y-108866857D01*
X233318856Y-108795429D01*
X233675999Y-108795429D01*
X231533142Y-110295429D02*
X231818856Y-110295429D01*
X231961713Y-110224000D01*
X232033142Y-110152571D01*
X232175999Y-109938286D01*
X232247428Y-109652571D01*
X232247428Y-109081143D01*
X232175999Y-108938286D01*
X232104571Y-108866857D01*
X231961713Y-108795429D01*
X231675999Y-108795429D01*
X231533142Y-108866857D01*
X231461713Y-108938286D01*
X231390285Y-109081143D01*
X231390285Y-109438286D01*
X231461713Y-109581143D01*
X231533142Y-109652571D01*
X231675999Y-109724000D01*
X231961713Y-109724000D01*
X232104571Y-109652571D01*
X232175999Y-109581143D01*
X232247428Y-109438286D01*
X235390285Y-106255429D02*
X235390285Y-107755429D01*
X234890285Y-106684000D01*
X234390285Y-107755429D01*
X234390285Y-106255429D01*
X233675999Y-106255429D02*
X233675999Y-107755429D01*
X233318856Y-107755429D01*
X233104571Y-107684000D01*
X232961713Y-107541143D01*
X232890285Y-107398286D01*
X232818856Y-107112571D01*
X232818856Y-106898286D01*
X232890285Y-106612571D01*
X232961713Y-106469714D01*
X233104571Y-106326857D01*
X233318856Y-106255429D01*
X233675999Y-106255429D01*
X232318856Y-107755429D02*
X231318856Y-107755429D01*
X231961713Y-106255429D01*
X235283142Y-103715429D02*
X235283142Y-105215429D01*
X234783142Y-104144000D01*
X234283142Y-105215429D01*
X234283142Y-103715429D01*
X233640285Y-104144000D02*
X232925999Y-104144000D01*
X233783142Y-103715429D02*
X233283142Y-105215429D01*
X232783142Y-103715429D01*
X231568856Y-105215429D02*
X232283142Y-105215429D01*
X232354571Y-104501143D01*
X232283142Y-104572571D01*
X232140285Y-104644000D01*
X231783142Y-104644000D01*
X231640285Y-104572571D01*
X231568856Y-104501143D01*
X231497428Y-104358286D01*
X231497428Y-104001143D01*
X231568856Y-103858286D01*
X231640285Y-103786857D01*
X231783142Y-103715429D01*
X232140285Y-103715429D01*
X232283142Y-103786857D01*
X232354571Y-103858286D01*
X235283142Y-101175429D02*
X235283142Y-102675429D01*
X234783142Y-101604000D01*
X234283142Y-102675429D01*
X234283142Y-101175429D01*
X233640285Y-101604000D02*
X232925999Y-101604000D01*
X233783142Y-101175429D02*
X233283142Y-102675429D01*
X232783142Y-101175429D01*
X231640285Y-102175429D02*
X231640285Y-101175429D01*
X231997428Y-102746857D02*
X232354571Y-101675429D01*
X231425999Y-101675429D01*
X235283142Y-98635429D02*
X235283142Y-100135429D01*
X234783142Y-99064000D01*
X234283142Y-100135429D01*
X234283142Y-98635429D01*
X233640285Y-99064000D02*
X232925999Y-99064000D01*
X233783142Y-98635429D02*
X233283142Y-100135429D01*
X232783142Y-98635429D01*
X232425999Y-100135429D02*
X231497428Y-100135429D01*
X231997428Y-99564000D01*
X231783142Y-99564000D01*
X231640285Y-99492571D01*
X231568856Y-99421143D01*
X231497428Y-99278286D01*
X231497428Y-98921143D01*
X231568856Y-98778286D01*
X231640285Y-98706857D01*
X231783142Y-98635429D01*
X232211714Y-98635429D01*
X232354571Y-98706857D01*
X232425999Y-98778286D01*
X235283142Y-96095429D02*
X235283142Y-97595429D01*
X234783142Y-96524000D01*
X234283142Y-97595429D01*
X234283142Y-96095429D01*
X233640285Y-96524000D02*
X232925999Y-96524000D01*
X233783142Y-96095429D02*
X233283142Y-97595429D01*
X232783142Y-96095429D01*
X232354571Y-97452571D02*
X232283142Y-97524000D01*
X232140285Y-97595429D01*
X231783142Y-97595429D01*
X231640285Y-97524000D01*
X231568856Y-97452571D01*
X231497428Y-97309714D01*
X231497428Y-97166857D01*
X231568856Y-96952571D01*
X232425999Y-96095429D01*
X231497428Y-96095429D01*
X235283142Y-93555429D02*
X235283142Y-95055429D01*
X234783142Y-93984000D01*
X234283142Y-95055429D01*
X234283142Y-93555429D01*
X233640285Y-93984000D02*
X232925999Y-93984000D01*
X233783142Y-93555429D02*
X233283142Y-95055429D01*
X232783142Y-93555429D01*
X231497428Y-93555429D02*
X232354571Y-93555429D01*
X231925999Y-93555429D02*
X231925999Y-95055429D01*
X232068856Y-94841143D01*
X232211714Y-94698286D01*
X232354571Y-94626857D01*
X235283142Y-91015429D02*
X235283142Y-92515429D01*
X234783142Y-91444000D01*
X234283142Y-92515429D01*
X234283142Y-91015429D01*
X233640285Y-91444000D02*
X232925999Y-91444000D01*
X233783142Y-91015429D02*
X233283142Y-92515429D01*
X232783142Y-91015429D01*
X231997428Y-92515429D02*
X231854571Y-92515429D01*
X231711714Y-92444000D01*
X231640285Y-92372571D01*
X231568856Y-92229714D01*
X231497428Y-91944000D01*
X231497428Y-91586857D01*
X231568856Y-91301143D01*
X231640285Y-91158286D01*
X231711714Y-91086857D01*
X231854571Y-91015429D01*
X231997428Y-91015429D01*
X232140285Y-91086857D01*
X232211714Y-91158286D01*
X232283142Y-91301143D01*
X232354571Y-91586857D01*
X232354571Y-91944000D01*
X232283142Y-92229714D01*
X232211714Y-92372571D01*
X232140285Y-92444000D01*
X231997428Y-92515429D01*
X235176000Y-88475429D02*
X235176000Y-89975429D01*
X234818857Y-89975429D01*
X234604572Y-89904000D01*
X234461714Y-89761143D01*
X234390286Y-89618286D01*
X234318857Y-89332571D01*
X234318857Y-89118286D01*
X234390286Y-88832571D01*
X234461714Y-88689714D01*
X234604572Y-88546857D01*
X234818857Y-88475429D01*
X235176000Y-88475429D01*
X233890286Y-89975429D02*
X233033143Y-89975429D01*
X233461714Y-88475429D02*
X233461714Y-89975429D01*
X232533143Y-88475429D02*
X232533143Y-89975429D01*
X231676000Y-88475429D01*
X231676000Y-89975429D01*
X234318856Y-86078286D02*
X234390285Y-86006857D01*
X234604571Y-85935429D01*
X234747428Y-85935429D01*
X234961713Y-86006857D01*
X235104571Y-86149714D01*
X235175999Y-86292571D01*
X235247428Y-86578286D01*
X235247428Y-86792571D01*
X235175999Y-87078286D01*
X235104571Y-87221143D01*
X234961713Y-87364000D01*
X234747428Y-87435429D01*
X234604571Y-87435429D01*
X234390285Y-87364000D01*
X234318856Y-87292571D01*
X233747428Y-86364000D02*
X233033142Y-86364000D01*
X233890285Y-85935429D02*
X233390285Y-87435429D01*
X232890285Y-85935429D01*
X232461714Y-86006857D02*
X232247428Y-85935429D01*
X231890285Y-85935429D01*
X231747428Y-86006857D01*
X231675999Y-86078286D01*
X231604571Y-86221143D01*
X231604571Y-86364000D01*
X231675999Y-86506857D01*
X231747428Y-86578286D01*
X231890285Y-86649714D01*
X232175999Y-86721143D01*
X232318857Y-86792571D01*
X232390285Y-86864000D01*
X232461714Y-87006857D01*
X232461714Y-87149714D01*
X232390285Y-87292571D01*
X232318857Y-87364000D01*
X232175999Y-87435429D01*
X231818857Y-87435429D01*
X231604571Y-87364000D01*
X235414142Y-83395429D02*
X235914142Y-84109714D01*
X236271285Y-83395429D02*
X236271285Y-84895429D01*
X235699857Y-84895429D01*
X235556999Y-84824000D01*
X235485571Y-84752571D01*
X235414142Y-84609714D01*
X235414142Y-84395429D01*
X235485571Y-84252571D01*
X235556999Y-84181143D01*
X235699857Y-84109714D01*
X236271285Y-84109714D01*
X234842714Y-83824000D02*
X234128428Y-83824000D01*
X234985571Y-83395429D02*
X234485571Y-84895429D01*
X233985571Y-83395429D01*
X233557000Y-83466857D02*
X233342714Y-83395429D01*
X232985571Y-83395429D01*
X232842714Y-83466857D01*
X232771285Y-83538286D01*
X232699857Y-83681143D01*
X232699857Y-83824000D01*
X232771285Y-83966857D01*
X232842714Y-84038286D01*
X232985571Y-84109714D01*
X233271285Y-84181143D01*
X233414143Y-84252571D01*
X233485571Y-84324000D01*
X233557000Y-84466857D01*
X233557000Y-84609714D01*
X233485571Y-84752571D01*
X233414143Y-84824000D01*
X233271285Y-84895429D01*
X232914143Y-84895429D01*
X232699857Y-84824000D01*
X231771286Y-84895429D02*
X231628429Y-84895429D01*
X231485572Y-84824000D01*
X231414143Y-84752571D01*
X231342714Y-84609714D01*
X231271286Y-84324000D01*
X231271286Y-83966857D01*
X231342714Y-83681143D01*
X231414143Y-83538286D01*
X231485572Y-83466857D01*
X231628429Y-83395429D01*
X231771286Y-83395429D01*
X231914143Y-83466857D01*
X231985572Y-83538286D01*
X232057000Y-83681143D01*
X232128429Y-83966857D01*
X232128429Y-84324000D01*
X232057000Y-84609714D01*
X231985572Y-84752571D01*
X231914143Y-84824000D01*
X231771286Y-84895429D01*
X235414142Y-80855429D02*
X235914142Y-81569714D01*
X236271285Y-80855429D02*
X236271285Y-82355429D01*
X235699857Y-82355429D01*
X235556999Y-82284000D01*
X235485571Y-82212571D01*
X235414142Y-82069714D01*
X235414142Y-81855429D01*
X235485571Y-81712571D01*
X235556999Y-81641143D01*
X235699857Y-81569714D01*
X236271285Y-81569714D01*
X234842714Y-81284000D02*
X234128428Y-81284000D01*
X234985571Y-80855429D02*
X234485571Y-82355429D01*
X233985571Y-80855429D01*
X233557000Y-80926857D02*
X233342714Y-80855429D01*
X232985571Y-80855429D01*
X232842714Y-80926857D01*
X232771285Y-80998286D01*
X232699857Y-81141143D01*
X232699857Y-81284000D01*
X232771285Y-81426857D01*
X232842714Y-81498286D01*
X232985571Y-81569714D01*
X233271285Y-81641143D01*
X233414143Y-81712571D01*
X233485571Y-81784000D01*
X233557000Y-81926857D01*
X233557000Y-82069714D01*
X233485571Y-82212571D01*
X233414143Y-82284000D01*
X233271285Y-82355429D01*
X232914143Y-82355429D01*
X232699857Y-82284000D01*
X231271286Y-80855429D02*
X232128429Y-80855429D01*
X231699857Y-80855429D02*
X231699857Y-82355429D01*
X231842714Y-82141143D01*
X231985572Y-81998286D01*
X232128429Y-81926857D01*
X235414142Y-78315429D02*
X235914142Y-79029714D01*
X236271285Y-78315429D02*
X236271285Y-79815429D01*
X235699857Y-79815429D01*
X235556999Y-79744000D01*
X235485571Y-79672571D01*
X235414142Y-79529714D01*
X235414142Y-79315429D01*
X235485571Y-79172571D01*
X235556999Y-79101143D01*
X235699857Y-79029714D01*
X236271285Y-79029714D01*
X234842714Y-78744000D02*
X234128428Y-78744000D01*
X234985571Y-78315429D02*
X234485571Y-79815429D01*
X233985571Y-78315429D01*
X233557000Y-78386857D02*
X233342714Y-78315429D01*
X232985571Y-78315429D01*
X232842714Y-78386857D01*
X232771285Y-78458286D01*
X232699857Y-78601143D01*
X232699857Y-78744000D01*
X232771285Y-78886857D01*
X232842714Y-78958286D01*
X232985571Y-79029714D01*
X233271285Y-79101143D01*
X233414143Y-79172571D01*
X233485571Y-79244000D01*
X233557000Y-79386857D01*
X233557000Y-79529714D01*
X233485571Y-79672571D01*
X233414143Y-79744000D01*
X233271285Y-79815429D01*
X232914143Y-79815429D01*
X232699857Y-79744000D01*
X232128429Y-79672571D02*
X232057000Y-79744000D01*
X231914143Y-79815429D01*
X231557000Y-79815429D01*
X231414143Y-79744000D01*
X231342714Y-79672571D01*
X231271286Y-79529714D01*
X231271286Y-79386857D01*
X231342714Y-79172571D01*
X232199857Y-78315429D01*
X231271286Y-78315429D01*
X235414142Y-75775429D02*
X235914142Y-76489714D01*
X236271285Y-75775429D02*
X236271285Y-77275429D01*
X235699857Y-77275429D01*
X235556999Y-77204000D01*
X235485571Y-77132571D01*
X235414142Y-76989714D01*
X235414142Y-76775429D01*
X235485571Y-76632571D01*
X235556999Y-76561143D01*
X235699857Y-76489714D01*
X236271285Y-76489714D01*
X234842714Y-76204000D02*
X234128428Y-76204000D01*
X234985571Y-75775429D02*
X234485571Y-77275429D01*
X233985571Y-75775429D01*
X233557000Y-75846857D02*
X233342714Y-75775429D01*
X232985571Y-75775429D01*
X232842714Y-75846857D01*
X232771285Y-75918286D01*
X232699857Y-76061143D01*
X232699857Y-76204000D01*
X232771285Y-76346857D01*
X232842714Y-76418286D01*
X232985571Y-76489714D01*
X233271285Y-76561143D01*
X233414143Y-76632571D01*
X233485571Y-76704000D01*
X233557000Y-76846857D01*
X233557000Y-76989714D01*
X233485571Y-77132571D01*
X233414143Y-77204000D01*
X233271285Y-77275429D01*
X232914143Y-77275429D01*
X232699857Y-77204000D01*
X232199857Y-77275429D02*
X231271286Y-77275429D01*
X231771286Y-76704000D01*
X231557000Y-76704000D01*
X231414143Y-76632571D01*
X231342714Y-76561143D01*
X231271286Y-76418286D01*
X231271286Y-76061143D01*
X231342714Y-75918286D01*
X231414143Y-75846857D01*
X231557000Y-75775429D01*
X231985572Y-75775429D01*
X232128429Y-75846857D01*
X232199857Y-75918286D01*
X236378428Y-73306857D02*
X236164142Y-73235429D01*
X235806999Y-73235429D01*
X235664142Y-73306857D01*
X235592713Y-73378286D01*
X235521285Y-73521143D01*
X235521285Y-73664000D01*
X235592713Y-73806857D01*
X235664142Y-73878286D01*
X235806999Y-73949714D01*
X236092713Y-74021143D01*
X236235571Y-74092571D01*
X236306999Y-74164000D01*
X236378428Y-74306857D01*
X236378428Y-74449714D01*
X236306999Y-74592571D01*
X236235571Y-74664000D01*
X236092713Y-74735429D01*
X235735571Y-74735429D01*
X235521285Y-74664000D01*
X234878428Y-74021143D02*
X234378428Y-74021143D01*
X234164142Y-73235429D02*
X234878428Y-73235429D01*
X234878428Y-74735429D01*
X234164142Y-74735429D01*
X232664142Y-73235429D02*
X233164142Y-73949714D01*
X233521285Y-73235429D02*
X233521285Y-74735429D01*
X232949857Y-74735429D01*
X232806999Y-74664000D01*
X232735571Y-74592571D01*
X232664142Y-74449714D01*
X232664142Y-74235429D01*
X232735571Y-74092571D01*
X232806999Y-74021143D01*
X232949857Y-73949714D01*
X233521285Y-73949714D01*
X231735571Y-74735429D02*
X231592714Y-74735429D01*
X231449857Y-74664000D01*
X231378428Y-74592571D01*
X231306999Y-74449714D01*
X231235571Y-74164000D01*
X231235571Y-73806857D01*
X231306999Y-73521143D01*
X231378428Y-73378286D01*
X231449857Y-73306857D01*
X231592714Y-73235429D01*
X231735571Y-73235429D01*
X231878428Y-73306857D01*
X231949857Y-73378286D01*
X232021285Y-73521143D01*
X232092714Y-73806857D01*
X232092714Y-74164000D01*
X232021285Y-74449714D01*
X231949857Y-74592571D01*
X231878428Y-74664000D01*
X231735571Y-74735429D01*
X236378428Y-70766857D02*
X236164142Y-70695429D01*
X235806999Y-70695429D01*
X235664142Y-70766857D01*
X235592713Y-70838286D01*
X235521285Y-70981143D01*
X235521285Y-71124000D01*
X235592713Y-71266857D01*
X235664142Y-71338286D01*
X235806999Y-71409714D01*
X236092713Y-71481143D01*
X236235571Y-71552571D01*
X236306999Y-71624000D01*
X236378428Y-71766857D01*
X236378428Y-71909714D01*
X236306999Y-72052571D01*
X236235571Y-72124000D01*
X236092713Y-72195429D01*
X235735571Y-72195429D01*
X235521285Y-72124000D01*
X234878428Y-71481143D02*
X234378428Y-71481143D01*
X234164142Y-70695429D02*
X234878428Y-70695429D01*
X234878428Y-72195429D01*
X234164142Y-72195429D01*
X232664142Y-70695429D02*
X233164142Y-71409714D01*
X233521285Y-70695429D02*
X233521285Y-72195429D01*
X232949857Y-72195429D01*
X232806999Y-72124000D01*
X232735571Y-72052571D01*
X232664142Y-71909714D01*
X232664142Y-71695429D01*
X232735571Y-71552571D01*
X232806999Y-71481143D01*
X232949857Y-71409714D01*
X233521285Y-71409714D01*
X231235571Y-70695429D02*
X232092714Y-70695429D01*
X231664142Y-70695429D02*
X231664142Y-72195429D01*
X231806999Y-71981143D01*
X231949857Y-71838286D01*
X232092714Y-71766857D01*
X235382428Y-69655429D02*
X235025285Y-68155429D01*
X234739571Y-69226857D01*
X234453857Y-68155429D01*
X234096714Y-69655429D01*
X233525285Y-68941143D02*
X233025285Y-68941143D01*
X232810999Y-68155429D02*
X233525285Y-68155429D01*
X233525285Y-69655429D01*
X232810999Y-69655429D01*
D11*
X238633000Y-103813428D02*
X238596714Y-103885999D01*
X238596714Y-103994856D01*
X238633000Y-104103713D01*
X238705571Y-104176285D01*
X238778143Y-104212570D01*
X238923286Y-104248856D01*
X239032143Y-104248856D01*
X239177286Y-104212570D01*
X239249857Y-104176285D01*
X239322429Y-104103713D01*
X239358714Y-103994856D01*
X239358714Y-103922285D01*
X239322429Y-103813428D01*
X239286143Y-103777142D01*
X239032143Y-103777142D01*
X239032143Y-103922285D01*
X238596714Y-103305428D02*
X238596714Y-103160285D01*
X238633000Y-103087713D01*
X238705571Y-103015142D01*
X238850714Y-102978856D01*
X239104714Y-102978856D01*
X239249857Y-103015142D01*
X239322429Y-103087713D01*
X239358714Y-103160285D01*
X239358714Y-103305428D01*
X239322429Y-103377999D01*
X239249857Y-103450570D01*
X239104714Y-103486856D01*
X238850714Y-103486856D01*
X238705571Y-103450570D01*
X238633000Y-103377999D01*
X238596714Y-103305428D01*
X239358714Y-102216856D02*
X238995857Y-102470856D01*
X239358714Y-102652284D02*
X238596714Y-102652284D01*
X238596714Y-102361999D01*
X238633000Y-102289427D01*
X238669286Y-102253142D01*
X238741857Y-102216856D01*
X238850714Y-102216856D01*
X238923286Y-102253142D01*
X238959571Y-102289427D01*
X238995857Y-102361999D01*
X238995857Y-102652284D01*
X238959571Y-101636284D02*
X238959571Y-101890284D01*
X239358714Y-101890284D02*
X238596714Y-101890284D01*
X238596714Y-101527427D01*
X239358714Y-100656570D02*
X238596714Y-100656570D01*
X238596714Y-100366285D01*
X238633000Y-100293713D01*
X238669286Y-100257428D01*
X238741857Y-100221142D01*
X238850714Y-100221142D01*
X238923286Y-100257428D01*
X238959571Y-100293713D01*
X238995857Y-100366285D01*
X238995857Y-100656570D01*
X239358714Y-99459142D02*
X238995857Y-99713142D01*
X239358714Y-99894570D02*
X238596714Y-99894570D01*
X238596714Y-99604285D01*
X238633000Y-99531713D01*
X238669286Y-99495428D01*
X238741857Y-99459142D01*
X238850714Y-99459142D01*
X238923286Y-99495428D01*
X238959571Y-99531713D01*
X238995857Y-99604285D01*
X238995857Y-99894570D01*
X238596714Y-98987428D02*
X238596714Y-98842285D01*
X238633000Y-98769713D01*
X238705571Y-98697142D01*
X238850714Y-98660856D01*
X239104714Y-98660856D01*
X239249857Y-98697142D01*
X239322429Y-98769713D01*
X239358714Y-98842285D01*
X239358714Y-98987428D01*
X239322429Y-99059999D01*
X239249857Y-99132570D01*
X239104714Y-99168856D01*
X238850714Y-99168856D01*
X238705571Y-99132570D01*
X238633000Y-99059999D01*
X238596714Y-98987428D01*
X238596714Y-98443142D02*
X238596714Y-98007713D01*
X239358714Y-98225427D02*
X238596714Y-98225427D01*
X238596714Y-97608571D02*
X238596714Y-97463428D01*
X238633000Y-97390856D01*
X238705571Y-97318285D01*
X238850714Y-97281999D01*
X239104714Y-97281999D01*
X239249857Y-97318285D01*
X239322429Y-97390856D01*
X239358714Y-97463428D01*
X239358714Y-97608571D01*
X239322429Y-97681142D01*
X239249857Y-97753713D01*
X239104714Y-97789999D01*
X238850714Y-97789999D01*
X238705571Y-97753713D01*
X238633000Y-97681142D01*
X238596714Y-97608571D01*
X238596714Y-97064285D02*
X238596714Y-96628856D01*
X239358714Y-96846570D02*
X238596714Y-96846570D01*
X238995857Y-96229714D02*
X239358714Y-96229714D01*
X238596714Y-96483714D02*
X238995857Y-96229714D01*
X238596714Y-95975714D01*
X239358714Y-95721713D02*
X238596714Y-95721713D01*
X238596714Y-95431428D01*
X238633000Y-95358856D01*
X238669286Y-95322571D01*
X238741857Y-95286285D01*
X238850714Y-95286285D01*
X238923286Y-95322571D01*
X238959571Y-95358856D01*
X238995857Y-95431428D01*
X238995857Y-95721713D01*
X238959571Y-94959713D02*
X238959571Y-94705713D01*
X239358714Y-94596856D02*
X239358714Y-94959713D01*
X238596714Y-94959713D01*
X238596714Y-94596856D01*
X238596714Y-93798571D02*
X239358714Y-93544571D01*
X238596714Y-93290571D01*
X238669286Y-93072856D02*
X238633000Y-93036570D01*
X238596714Y-92963999D01*
X238596714Y-92782570D01*
X238633000Y-92709999D01*
X238669286Y-92673713D01*
X238741857Y-92637428D01*
X238814429Y-92637428D01*
X238923286Y-92673713D01*
X239358714Y-93109142D01*
X239358714Y-92637428D01*
X239286143Y-92310856D02*
X239322429Y-92274571D01*
X239358714Y-92310856D01*
X239322429Y-92347142D01*
X239286143Y-92310856D01*
X239358714Y-92310856D01*
X238596714Y-91802857D02*
X238596714Y-91730285D01*
X238633000Y-91657714D01*
X238669286Y-91621428D01*
X238741857Y-91585142D01*
X238887000Y-91548857D01*
X239068429Y-91548857D01*
X239213571Y-91585142D01*
X239286143Y-91621428D01*
X239322429Y-91657714D01*
X239358714Y-91730285D01*
X239358714Y-91802857D01*
X239322429Y-91875428D01*
X239286143Y-91911714D01*
X239213571Y-91947999D01*
X239068429Y-91984285D01*
X238887000Y-91984285D01*
X238741857Y-91947999D01*
X238669286Y-91911714D01*
X238633000Y-91875428D01*
X238596714Y-91802857D01*
X238596714Y-90424000D02*
X239141000Y-90424000D01*
X239249857Y-90460286D01*
X239322429Y-90532857D01*
X239358714Y-90641714D01*
X239358714Y-90714286D01*
X239358714Y-89952286D02*
X239322429Y-90024858D01*
X239286143Y-90061143D01*
X239213571Y-90097429D01*
X238995857Y-90097429D01*
X238923286Y-90061143D01*
X238887000Y-90024858D01*
X238850714Y-89952286D01*
X238850714Y-89843429D01*
X238887000Y-89770858D01*
X238923286Y-89734572D01*
X238995857Y-89698286D01*
X239213571Y-89698286D01*
X239286143Y-89734572D01*
X239322429Y-89770858D01*
X239358714Y-89843429D01*
X239358714Y-89952286D01*
X239358714Y-89371714D02*
X238596714Y-89371714D01*
X239358714Y-89045143D02*
X238959571Y-89045143D01*
X238887000Y-89081429D01*
X238850714Y-89154000D01*
X238850714Y-89262857D01*
X238887000Y-89335429D01*
X238923286Y-89371714D01*
X238850714Y-88682285D02*
X239358714Y-88682285D01*
X238923286Y-88682285D02*
X238887000Y-88646000D01*
X238850714Y-88573428D01*
X238850714Y-88464571D01*
X238887000Y-88392000D01*
X238959571Y-88355714D01*
X239358714Y-88355714D01*
X239358714Y-86976857D02*
X238995857Y-87230857D01*
X239358714Y-87412285D02*
X238596714Y-87412285D01*
X238596714Y-87122000D01*
X238633000Y-87049428D01*
X238669286Y-87013143D01*
X238741857Y-86976857D01*
X238850714Y-86976857D01*
X238923286Y-87013143D01*
X238959571Y-87049428D01*
X238995857Y-87122000D01*
X238995857Y-87412285D01*
X239358714Y-86541428D02*
X239322429Y-86614000D01*
X239286143Y-86650285D01*
X239213571Y-86686571D01*
X238995857Y-86686571D01*
X238923286Y-86650285D01*
X238887000Y-86614000D01*
X238850714Y-86541428D01*
X238850714Y-86432571D01*
X238887000Y-86360000D01*
X238923286Y-86323714D01*
X238995857Y-86287428D01*
X239213571Y-86287428D01*
X239286143Y-86323714D01*
X239322429Y-86360000D01*
X239358714Y-86432571D01*
X239358714Y-86541428D01*
X239322429Y-85997142D02*
X239358714Y-85924571D01*
X239358714Y-85779428D01*
X239322429Y-85706856D01*
X239249857Y-85670571D01*
X239213571Y-85670571D01*
X239141000Y-85706856D01*
X239104714Y-85779428D01*
X239104714Y-85888285D01*
X239068429Y-85960856D01*
X238995857Y-85997142D01*
X238959571Y-85997142D01*
X238887000Y-85960856D01*
X238850714Y-85888285D01*
X238850714Y-85779428D01*
X238887000Y-85706856D01*
X238850714Y-85452857D02*
X238850714Y-85162571D01*
X238596714Y-85343999D02*
X239249857Y-85343999D01*
X239322429Y-85307714D01*
X239358714Y-85235142D01*
X239358714Y-85162571D01*
X239358714Y-84908570D02*
X238850714Y-84908570D01*
X238995857Y-84908570D02*
X238923286Y-84872285D01*
X238887000Y-84835999D01*
X238850714Y-84763428D01*
X238850714Y-84690856D01*
X239358714Y-84327999D02*
X239322429Y-84400571D01*
X239286143Y-84436856D01*
X239213571Y-84473142D01*
X238995857Y-84473142D01*
X238923286Y-84436856D01*
X238887000Y-84400571D01*
X238850714Y-84327999D01*
X238850714Y-84219142D01*
X238887000Y-84146571D01*
X238923286Y-84110285D01*
X238995857Y-84073999D01*
X239213571Y-84073999D01*
X239286143Y-84110285D01*
X239322429Y-84146571D01*
X239358714Y-84219142D01*
X239358714Y-84327999D01*
X238850714Y-83747427D02*
X239358714Y-83747427D01*
X238923286Y-83747427D02*
X238887000Y-83711142D01*
X238850714Y-83638570D01*
X238850714Y-83529713D01*
X238887000Y-83457142D01*
X238959571Y-83420856D01*
X239358714Y-83420856D01*
X239649000Y-82259713D02*
X239612714Y-82295999D01*
X239503857Y-82368570D01*
X239431286Y-82404856D01*
X239322429Y-82441142D01*
X239141000Y-82477427D01*
X238995857Y-82477427D01*
X238814429Y-82441142D01*
X238705571Y-82404856D01*
X238633000Y-82368570D01*
X238524143Y-82295999D01*
X238487857Y-82259713D01*
X238596714Y-81751713D02*
X239141000Y-81751713D01*
X239249857Y-81787999D01*
X239322429Y-81860570D01*
X239358714Y-81969427D01*
X239358714Y-82041999D01*
X239358714Y-81062285D02*
X238959571Y-81062285D01*
X238887000Y-81098571D01*
X238850714Y-81171142D01*
X238850714Y-81316285D01*
X238887000Y-81388856D01*
X239322429Y-81062285D02*
X239358714Y-81134856D01*
X239358714Y-81316285D01*
X239322429Y-81388856D01*
X239249857Y-81425142D01*
X239177286Y-81425142D01*
X239104714Y-81388856D01*
X239068429Y-81316285D01*
X239068429Y-81134856D01*
X239032143Y-81062285D01*
X238850714Y-80699427D02*
X239358714Y-80699427D01*
X238923286Y-80699427D02*
X238887000Y-80663142D01*
X238850714Y-80590570D01*
X238850714Y-80481713D01*
X238887000Y-80409142D01*
X238959571Y-80372856D01*
X239358714Y-80372856D01*
X238669286Y-79465713D02*
X238633000Y-79429427D01*
X238596714Y-79356856D01*
X238596714Y-79175427D01*
X238633000Y-79102856D01*
X238669286Y-79066570D01*
X238741857Y-79030285D01*
X238814429Y-79030285D01*
X238923286Y-79066570D01*
X239358714Y-79501999D01*
X239358714Y-79030285D01*
X238596714Y-78558571D02*
X238596714Y-78485999D01*
X238633000Y-78413428D01*
X238669286Y-78377142D01*
X238741857Y-78340856D01*
X238887000Y-78304571D01*
X239068429Y-78304571D01*
X239213571Y-78340856D01*
X239286143Y-78377142D01*
X239322429Y-78413428D01*
X239358714Y-78485999D01*
X239358714Y-78558571D01*
X239322429Y-78631142D01*
X239286143Y-78667428D01*
X239213571Y-78703713D01*
X239068429Y-78739999D01*
X238887000Y-78739999D01*
X238741857Y-78703713D01*
X238669286Y-78667428D01*
X238633000Y-78631142D01*
X238596714Y-78558571D01*
X239358714Y-77578857D02*
X239358714Y-78014285D01*
X239358714Y-77796571D02*
X238596714Y-77796571D01*
X238705571Y-77869142D01*
X238778143Y-77941714D01*
X238814429Y-78014285D01*
X238923286Y-77143428D02*
X238887000Y-77216000D01*
X238850714Y-77252285D01*
X238778143Y-77288571D01*
X238741857Y-77288571D01*
X238669286Y-77252285D01*
X238633000Y-77216000D01*
X238596714Y-77143428D01*
X238596714Y-76998285D01*
X238633000Y-76925714D01*
X238669286Y-76889428D01*
X238741857Y-76853143D01*
X238778143Y-76853143D01*
X238850714Y-76889428D01*
X238887000Y-76925714D01*
X238923286Y-76998285D01*
X238923286Y-77143428D01*
X238959571Y-77216000D01*
X238995857Y-77252285D01*
X239068429Y-77288571D01*
X239213571Y-77288571D01*
X239286143Y-77252285D01*
X239322429Y-77216000D01*
X239358714Y-77143428D01*
X239358714Y-76998285D01*
X239322429Y-76925714D01*
X239286143Y-76889428D01*
X239213571Y-76853143D01*
X239068429Y-76853143D01*
X238995857Y-76889428D01*
X238959571Y-76925714D01*
X238923286Y-76998285D01*
X239649000Y-76599143D02*
X239612714Y-76562857D01*
X239503857Y-76490286D01*
X239431286Y-76454000D01*
X239322429Y-76417714D01*
X239141000Y-76381429D01*
X238995857Y-76381429D01*
X238814429Y-76417714D01*
X238705571Y-76454000D01*
X238633000Y-76490286D01*
X238524143Y-76562857D01*
X238487857Y-76599143D01*
D12*
X222166428Y-89721429D02*
X221666428Y-88221429D01*
X221166428Y-89721429D01*
X219809285Y-88221429D02*
X220309285Y-88935714D01*
X220666428Y-88221429D02*
X220666428Y-89721429D01*
X220095000Y-89721429D01*
X219952142Y-89650000D01*
X219880714Y-89578571D01*
X219809285Y-89435714D01*
X219809285Y-89221429D01*
X219880714Y-89078571D01*
X219952142Y-89007143D01*
X220095000Y-88935714D01*
X220666428Y-88935714D01*
X219380714Y-89721429D02*
X218523571Y-89721429D01*
X218952142Y-88221429D02*
X218952142Y-89721429D01*
X222309286Y-90761429D02*
X222309286Y-92261429D01*
X222309286Y-91547143D02*
X221452143Y-91547143D01*
X221452143Y-90761429D02*
X221452143Y-92261429D01*
X220452143Y-92261429D02*
X220166429Y-92261429D01*
X220023571Y-92190000D01*
X219880714Y-92047143D01*
X219809286Y-91761429D01*
X219809286Y-91261429D01*
X219880714Y-90975714D01*
X220023571Y-90832857D01*
X220166429Y-90761429D01*
X220452143Y-90761429D01*
X220595000Y-90832857D01*
X220737857Y-90975714D01*
X220809286Y-91261429D01*
X220809286Y-91761429D01*
X220737857Y-92047143D01*
X220595000Y-92190000D01*
X220452143Y-92261429D01*
X218309285Y-90761429D02*
X218809285Y-91475714D01*
X219166428Y-90761429D02*
X219166428Y-92261429D01*
X218595000Y-92261429D01*
X218452142Y-92190000D01*
X218380714Y-92118571D01*
X218309285Y-91975714D01*
X218309285Y-91761429D01*
X218380714Y-91618571D01*
X218452142Y-91547143D01*
X218595000Y-91475714D01*
X219166428Y-91475714D01*
D11*
X73496714Y-61468000D02*
X73496714Y-61322857D01*
X73460429Y-61250285D01*
X73424143Y-61214000D01*
X73315286Y-61141428D01*
X73170143Y-61105143D01*
X72879857Y-61105143D01*
X72807286Y-61141428D01*
X72771000Y-61177714D01*
X72734714Y-61250285D01*
X72734714Y-61395428D01*
X72771000Y-61468000D01*
X72807286Y-61504285D01*
X72879857Y-61540571D01*
X73061286Y-61540571D01*
X73133857Y-61504285D01*
X73170143Y-61468000D01*
X73206429Y-61395428D01*
X73206429Y-61250285D01*
X73170143Y-61177714D01*
X73133857Y-61141428D01*
X73061286Y-61105143D01*
X73496714Y-60742286D02*
X73496714Y-60597143D01*
X73460429Y-60524571D01*
X73424143Y-60488286D01*
X73315286Y-60415714D01*
X73170143Y-60379429D01*
X72879857Y-60379429D01*
X72807286Y-60415714D01*
X72771000Y-60452000D01*
X72734714Y-60524571D01*
X72734714Y-60669714D01*
X72771000Y-60742286D01*
X72807286Y-60778571D01*
X72879857Y-60814857D01*
X73061286Y-60814857D01*
X73133857Y-60778571D01*
X73170143Y-60742286D01*
X73206429Y-60669714D01*
X73206429Y-60524571D01*
X73170143Y-60452000D01*
X73133857Y-60415714D01*
X73061286Y-60379429D01*
D12*
X68476571Y-107588857D02*
X67333714Y-107588857D01*
X65905142Y-108517429D02*
X66619428Y-108517429D01*
X66690857Y-107803143D01*
X66619428Y-107874571D01*
X66476571Y-107946000D01*
X66119428Y-107946000D01*
X65976571Y-107874571D01*
X65905142Y-107803143D01*
X65833714Y-107660286D01*
X65833714Y-107303143D01*
X65905142Y-107160286D01*
X65976571Y-107088857D01*
X66119428Y-107017429D01*
X66476571Y-107017429D01*
X66619428Y-107088857D01*
X66690857Y-107160286D01*
X65405143Y-108517429D02*
X64905143Y-107017429D01*
X64405143Y-108517429D01*
X67222571Y-109557429D02*
X68079714Y-109557429D01*
X67651142Y-109557429D02*
X67651142Y-111057429D01*
X67793999Y-110843143D01*
X67936857Y-110700286D01*
X68079714Y-110628857D01*
X66651143Y-110914571D02*
X66579714Y-110986000D01*
X66436857Y-111057429D01*
X66079714Y-111057429D01*
X65936857Y-110986000D01*
X65865428Y-110914571D01*
X65794000Y-110771714D01*
X65794000Y-110628857D01*
X65865428Y-110414571D01*
X66722571Y-109557429D01*
X65794000Y-109557429D01*
X65365429Y-111057429D02*
X64865429Y-109557429D01*
X64365429Y-111057429D01*
X67690857Y-78093000D02*
X67833714Y-78164429D01*
X68048000Y-78164429D01*
X68262285Y-78093000D01*
X68405143Y-77950143D01*
X68476571Y-77807286D01*
X68548000Y-77521571D01*
X68548000Y-77307286D01*
X68476571Y-77021571D01*
X68405143Y-76878714D01*
X68262285Y-76735857D01*
X68048000Y-76664429D01*
X67905143Y-76664429D01*
X67690857Y-76735857D01*
X67619428Y-76807286D01*
X67619428Y-77307286D01*
X67905143Y-77307286D01*
X66976571Y-76664429D02*
X66976571Y-78164429D01*
X66119428Y-76664429D01*
X66119428Y-78164429D01*
X65405142Y-76664429D02*
X65405142Y-78164429D01*
X65047999Y-78164429D01*
X64833714Y-78093000D01*
X64690856Y-77950143D01*
X64619428Y-77807286D01*
X64547999Y-77521571D01*
X64547999Y-77307286D01*
X64619428Y-77021571D01*
X64690856Y-76878714D01*
X64833714Y-76735857D01*
X65047999Y-76664429D01*
X65405142Y-76664429D01*
D14*
X63433000Y-111633000D02*
X63433000Y-73473000D01*
X63433000Y-73473000D02*
X60773000Y-73473000D01*
X60773000Y-73473000D02*
X60773000Y-111633000D01*
X60773000Y-111633000D02*
X63433000Y-111633000D01*
X63433000Y-112903000D02*
X63433000Y-114233000D01*
X63433000Y-114233000D02*
X62103000Y-114233000D01*
D15*
X157755000Y-87950000D02*
X157755000Y-83500000D01*
X150855000Y-89475000D02*
X150855000Y-83500000D01*
X92604000Y-91633000D02*
X92604000Y-87183000D01*
X85704000Y-93158000D02*
X85704000Y-87183000D01*
X200427000Y-87569000D02*
X200427000Y-83119000D01*
X193527000Y-89094000D02*
X193527000Y-83119000D01*
X120290000Y-91125000D02*
X120290000Y-86675000D01*
X113390000Y-92650000D02*
X113390000Y-86675000D01*
X180932000Y-87569000D02*
X180932000Y-83119000D01*
X174032000Y-89094000D02*
X174032000Y-83119000D01*
D14*
X133290000Y-105934000D02*
G75*
G02X133290000Y-107934000I0J-1000000D01*
G01*
X133290000Y-107934000D02*
X133290000Y-113394000D01*
X133290000Y-113394000D02*
X184210000Y-113394000D01*
X184210000Y-113394000D02*
X184210000Y-100474000D01*
X184210000Y-100474000D02*
X133290000Y-100474000D01*
X133290000Y-100474000D02*
X133290000Y-105934000D01*
X77124000Y-89123000D02*
X77124000Y-88423000D01*
X78324000Y-88423000D02*
X78324000Y-89123000D01*
X133444000Y-84934500D02*
X134144000Y-84934500D01*
X134144000Y-86134500D02*
X133444000Y-86134500D01*
X77124000Y-84043000D02*
X77124000Y-83343000D01*
X78324000Y-83343000D02*
X78324000Y-84043000D01*
X138524000Y-84934500D02*
X139224000Y-84934500D01*
X139224000Y-86134500D02*
X138524000Y-86134500D01*
X197012000Y-100299000D02*
X197012000Y-99599000D01*
X198212000Y-99599000D02*
X198212000Y-100299000D01*
X197012000Y-95219000D02*
X197012000Y-94519000D01*
X198212000Y-94519000D02*
X198212000Y-95219000D01*
X103350000Y-92234500D02*
X103350000Y-91534500D01*
X104550000Y-91534500D02*
X104550000Y-92234500D01*
X166722000Y-88234000D02*
X166722000Y-87534000D01*
X167922000Y-87534000D02*
X167922000Y-88234000D01*
X103350000Y-87154500D02*
X103350000Y-86454500D01*
X104550000Y-86454500D02*
X104550000Y-87154500D01*
X166722000Y-83154000D02*
X166722000Y-82454000D01*
X167922000Y-82454000D02*
X167922000Y-83154000D01*
X122996000Y-103438000D02*
X122996000Y-100778000D01*
X74676000Y-103438000D02*
X122996000Y-103438000D01*
X74676000Y-100778000D02*
X122996000Y-100778000D01*
X74676000Y-103438000D02*
X74676000Y-100778000D01*
X73406000Y-103438000D02*
X72076000Y-103438000D01*
X72076000Y-103438000D02*
X72076000Y-102108000D01*
X122996000Y-98358000D02*
X122996000Y-95698000D01*
X74676000Y-98358000D02*
X122996000Y-98358000D01*
X74676000Y-95698000D02*
X122996000Y-95698000D01*
X74676000Y-98358000D02*
X74676000Y-95698000D01*
X73406000Y-98358000D02*
X72076000Y-98358000D01*
X72076000Y-98358000D02*
X72076000Y-97028000D01*
X122996000Y-114868000D02*
X122996000Y-109668000D01*
X74676000Y-114868000D02*
X122996000Y-114868000D01*
X72076000Y-109668000D02*
X122996000Y-109668000D01*
X74676000Y-114868000D02*
X74676000Y-112268000D01*
X74676000Y-112268000D02*
X72076000Y-112268000D01*
X72076000Y-112268000D02*
X72076000Y-109668000D01*
X73406000Y-114868000D02*
X72076000Y-114868000D01*
X72076000Y-114868000D02*
X72076000Y-113538000D01*
D16*
X66860420Y-50424080D02*
X66860420Y-59822080D01*
X232849420Y-50424080D02*
X232849420Y-59822080D01*
X239453420Y-50424080D02*
X60256420Y-50424080D01*
X60256420Y-59822080D02*
X239453420Y-59822080D01*
X60256420Y-59822080D02*
X60256420Y-50424080D01*
X239453420Y-59822080D02*
X239453420Y-50424080D01*
D14*
X188047000Y-115102000D02*
X188047000Y-109982000D01*
X190667000Y-115102000D02*
X190667000Y-109982000D01*
X188047000Y-115102000D02*
X190667000Y-115102000D01*
X188047000Y-109982000D02*
X190667000Y-109982000D01*
X129834000Y-113157000D02*
G75*
G03X129834000Y-113157000I-1310000J0D01*
G01*
X128524000Y-111847000D02*
X128524000Y-111717000D01*
X65218000Y-64456000D02*
X65218000Y-69656000D01*
X113538000Y-64456000D02*
X65218000Y-64456000D01*
X116138000Y-69656000D02*
X65218000Y-69656000D01*
X113538000Y-64456000D02*
X113538000Y-67056000D01*
X113538000Y-67056000D02*
X116138000Y-67056000D01*
X116138000Y-67056000D02*
X116138000Y-69656000D01*
X114808000Y-64456000D02*
X116138000Y-64456000D01*
X116138000Y-64456000D02*
X116138000Y-65786000D01*
X89602000Y-76140000D02*
X89602000Y-81340000D01*
X137922000Y-76140000D02*
X89602000Y-76140000D01*
X140522000Y-81340000D02*
X89602000Y-81340000D01*
X137922000Y-76140000D02*
X137922000Y-78740000D01*
X137922000Y-78740000D02*
X140522000Y-78740000D01*
X140522000Y-78740000D02*
X140522000Y-81340000D01*
X139192000Y-76140000D02*
X140522000Y-76140000D01*
X140522000Y-76140000D02*
X140522000Y-77470000D01*
X150833000Y-75740000D02*
X150833000Y-70540000D01*
X199153000Y-75740000D02*
X150833000Y-75740000D01*
X201753000Y-70540000D02*
X150833000Y-70540000D01*
X199153000Y-75740000D02*
X199153000Y-73140000D01*
X199153000Y-73140000D02*
X201753000Y-73140000D01*
X201753000Y-73140000D02*
X201753000Y-70540000D01*
X200423000Y-75740000D02*
X201753000Y-75740000D01*
X201753000Y-75740000D02*
X201753000Y-74410000D01*
X215694000Y-115867000D02*
X210494000Y-115867000D01*
X215694000Y-67547000D02*
X215694000Y-115867000D01*
X210494000Y-64947000D02*
X210494000Y-115867000D01*
X215694000Y-67547000D02*
X213094000Y-67547000D01*
X213094000Y-67547000D02*
X213094000Y-64947000D01*
X213094000Y-64947000D02*
X210494000Y-64947000D01*
X215694000Y-66277000D02*
X215694000Y-64947000D01*
X215694000Y-64947000D02*
X214364000Y-64947000D01*
X229918000Y-115867000D02*
X224718000Y-115867000D01*
X229918000Y-67547000D02*
X229918000Y-115867000D01*
X224718000Y-64947000D02*
X224718000Y-115867000D01*
X229918000Y-67547000D02*
X227318000Y-67547000D01*
X227318000Y-67547000D02*
X227318000Y-64947000D01*
X227318000Y-64947000D02*
X224718000Y-64947000D01*
X229918000Y-66277000D02*
X229918000Y-64947000D01*
X229918000Y-64947000D02*
X228588000Y-64947000D01*
D11*
X59272714Y-74167999D02*
X59817000Y-74167999D01*
X59925857Y-74204285D01*
X59998429Y-74276856D01*
X60034714Y-74385713D01*
X60034714Y-74458285D01*
X59345286Y-73841428D02*
X59309000Y-73805142D01*
X59272714Y-73732571D01*
X59272714Y-73551142D01*
X59309000Y-73478571D01*
X59345286Y-73442285D01*
X59417857Y-73406000D01*
X59490429Y-73406000D01*
X59599286Y-73442285D01*
X60034714Y-73877714D01*
X60034714Y-73406000D01*
X150712714Y-81225571D02*
X151329571Y-81225571D01*
X151402143Y-81189286D01*
X151438429Y-81153000D01*
X151474714Y-81080429D01*
X151474714Y-80935286D01*
X151438429Y-80862714D01*
X151402143Y-80826429D01*
X151329571Y-80790143D01*
X150712714Y-80790143D01*
X150785286Y-80463571D02*
X150749000Y-80427285D01*
X150712714Y-80354714D01*
X150712714Y-80173285D01*
X150749000Y-80100714D01*
X150785286Y-80064428D01*
X150857857Y-80028143D01*
X150930429Y-80028143D01*
X151039286Y-80064428D01*
X151474714Y-80499857D01*
X151474714Y-80028143D01*
X85561714Y-84908571D02*
X86178571Y-84908571D01*
X86251143Y-84872286D01*
X86287429Y-84836000D01*
X86323714Y-84763429D01*
X86323714Y-84618286D01*
X86287429Y-84545714D01*
X86251143Y-84509429D01*
X86178571Y-84473143D01*
X85561714Y-84473143D01*
X86323714Y-83711143D02*
X86323714Y-84146571D01*
X86323714Y-83928857D02*
X85561714Y-83928857D01*
X85670571Y-84001428D01*
X85743143Y-84074000D01*
X85779429Y-84146571D01*
X194019714Y-80844571D02*
X194636571Y-80844571D01*
X194709143Y-80808286D01*
X194745429Y-80772000D01*
X194781714Y-80699429D01*
X194781714Y-80554286D01*
X194745429Y-80481714D01*
X194709143Y-80445429D01*
X194636571Y-80409143D01*
X194019714Y-80409143D01*
X194019714Y-80118857D02*
X194019714Y-79647143D01*
X194310000Y-79901143D01*
X194310000Y-79792285D01*
X194346286Y-79719714D01*
X194382571Y-79683428D01*
X194455143Y-79647143D01*
X194636571Y-79647143D01*
X194709143Y-79683428D01*
X194745429Y-79719714D01*
X194781714Y-79792285D01*
X194781714Y-80010000D01*
X194745429Y-80082571D01*
X194709143Y-80118857D01*
X113247714Y-84400571D02*
X113864571Y-84400571D01*
X113937143Y-84364286D01*
X113973429Y-84328000D01*
X114009714Y-84255429D01*
X114009714Y-84110286D01*
X113973429Y-84037714D01*
X113937143Y-84001429D01*
X113864571Y-83965143D01*
X113247714Y-83965143D01*
X113501714Y-83275714D02*
X114009714Y-83275714D01*
X113211429Y-83457143D02*
X113755714Y-83638571D01*
X113755714Y-83166857D01*
X173889714Y-80844571D02*
X174506571Y-80844571D01*
X174579143Y-80808286D01*
X174615429Y-80772000D01*
X174651714Y-80699429D01*
X174651714Y-80554286D01*
X174615429Y-80481714D01*
X174579143Y-80445429D01*
X174506571Y-80409143D01*
X173889714Y-80409143D01*
X173889714Y-79683428D02*
X173889714Y-80046285D01*
X174252571Y-80082571D01*
X174216286Y-80046285D01*
X174180000Y-79973714D01*
X174180000Y-79792285D01*
X174216286Y-79719714D01*
X174252571Y-79683428D01*
X174325143Y-79647143D01*
X174506571Y-79647143D01*
X174579143Y-79683428D01*
X174615429Y-79719714D01*
X174651714Y-79792285D01*
X174651714Y-79973714D01*
X174615429Y-80046285D01*
X174579143Y-80082571D01*
X76746143Y-88900000D02*
X76782429Y-88936286D01*
X76818714Y-89045143D01*
X76818714Y-89117714D01*
X76782429Y-89226571D01*
X76709857Y-89299143D01*
X76637286Y-89335428D01*
X76492143Y-89371714D01*
X76383286Y-89371714D01*
X76238143Y-89335428D01*
X76165571Y-89299143D01*
X76093000Y-89226571D01*
X76056714Y-89117714D01*
X76056714Y-89045143D01*
X76093000Y-88936286D01*
X76129286Y-88900000D01*
X76129286Y-88609714D02*
X76093000Y-88573428D01*
X76056714Y-88500857D01*
X76056714Y-88319428D01*
X76093000Y-88246857D01*
X76129286Y-88210571D01*
X76201857Y-88174286D01*
X76274429Y-88174286D01*
X76383286Y-88210571D01*
X76818714Y-88646000D01*
X76818714Y-88174286D01*
X133667000Y-84556643D02*
X133630714Y-84592929D01*
X133521857Y-84629214D01*
X133449286Y-84629214D01*
X133340429Y-84592929D01*
X133267857Y-84520357D01*
X133231572Y-84447786D01*
X133195286Y-84302643D01*
X133195286Y-84193786D01*
X133231572Y-84048643D01*
X133267857Y-83976071D01*
X133340429Y-83903500D01*
X133449286Y-83867214D01*
X133521857Y-83867214D01*
X133630714Y-83903500D01*
X133667000Y-83939786D01*
X133921000Y-83867214D02*
X134392714Y-83867214D01*
X134138714Y-84157500D01*
X134247572Y-84157500D01*
X134320143Y-84193786D01*
X134356429Y-84230071D01*
X134392714Y-84302643D01*
X134392714Y-84484071D01*
X134356429Y-84556643D01*
X134320143Y-84592929D01*
X134247572Y-84629214D01*
X134029857Y-84629214D01*
X133957286Y-84592929D01*
X133921000Y-84556643D01*
X76746143Y-83820000D02*
X76782429Y-83856286D01*
X76818714Y-83965143D01*
X76818714Y-84037714D01*
X76782429Y-84146571D01*
X76709857Y-84219143D01*
X76637286Y-84255428D01*
X76492143Y-84291714D01*
X76383286Y-84291714D01*
X76238143Y-84255428D01*
X76165571Y-84219143D01*
X76093000Y-84146571D01*
X76056714Y-84037714D01*
X76056714Y-83965143D01*
X76093000Y-83856286D01*
X76129286Y-83820000D01*
X76310714Y-83166857D02*
X76818714Y-83166857D01*
X76020429Y-83348286D02*
X76564714Y-83529714D01*
X76564714Y-83058000D01*
X138747000Y-84556643D02*
X138710714Y-84592929D01*
X138601857Y-84629214D01*
X138529286Y-84629214D01*
X138420429Y-84592929D01*
X138347857Y-84520357D01*
X138311572Y-84447786D01*
X138275286Y-84302643D01*
X138275286Y-84193786D01*
X138311572Y-84048643D01*
X138347857Y-83976071D01*
X138420429Y-83903500D01*
X138529286Y-83867214D01*
X138601857Y-83867214D01*
X138710714Y-83903500D01*
X138747000Y-83939786D01*
X139436429Y-83867214D02*
X139073572Y-83867214D01*
X139037286Y-84230071D01*
X139073572Y-84193786D01*
X139146143Y-84157500D01*
X139327572Y-84157500D01*
X139400143Y-84193786D01*
X139436429Y-84230071D01*
X139472714Y-84302643D01*
X139472714Y-84484071D01*
X139436429Y-84556643D01*
X139400143Y-84592929D01*
X139327572Y-84629214D01*
X139146143Y-84629214D01*
X139073572Y-84592929D01*
X139037286Y-84556643D01*
X102972143Y-92011500D02*
X103008429Y-92047786D01*
X103044714Y-92156643D01*
X103044714Y-92229214D01*
X103008429Y-92338071D01*
X102935857Y-92410643D01*
X102863286Y-92446928D01*
X102718143Y-92483214D01*
X102609286Y-92483214D01*
X102464143Y-92446928D01*
X102391571Y-92410643D01*
X102319000Y-92338071D01*
X102282714Y-92229214D01*
X102282714Y-92156643D01*
X102319000Y-92047786D01*
X102355286Y-92011500D01*
X102609286Y-91576071D02*
X102573000Y-91648643D01*
X102536714Y-91684928D01*
X102464143Y-91721214D01*
X102427857Y-91721214D01*
X102355286Y-91684928D01*
X102319000Y-91648643D01*
X102282714Y-91576071D01*
X102282714Y-91430928D01*
X102319000Y-91358357D01*
X102355286Y-91322071D01*
X102427857Y-91285786D01*
X102464143Y-91285786D01*
X102536714Y-91322071D01*
X102573000Y-91358357D01*
X102609286Y-91430928D01*
X102609286Y-91576071D01*
X102645571Y-91648643D01*
X102681857Y-91684928D01*
X102754429Y-91721214D01*
X102899571Y-91721214D01*
X102972143Y-91684928D01*
X103008429Y-91648643D01*
X103044714Y-91576071D01*
X103044714Y-91430928D01*
X103008429Y-91358357D01*
X102972143Y-91322071D01*
X102899571Y-91285786D01*
X102754429Y-91285786D01*
X102681857Y-91322071D01*
X102645571Y-91358357D01*
X102609286Y-91430928D01*
X166344143Y-88011000D02*
X166380429Y-88047286D01*
X166416714Y-88156143D01*
X166416714Y-88228714D01*
X166380429Y-88337571D01*
X166307857Y-88410143D01*
X166235286Y-88446428D01*
X166090143Y-88482714D01*
X165981286Y-88482714D01*
X165836143Y-88446428D01*
X165763571Y-88410143D01*
X165691000Y-88337571D01*
X165654714Y-88228714D01*
X165654714Y-88156143D01*
X165691000Y-88047286D01*
X165727286Y-88011000D01*
X166416714Y-87648143D02*
X166416714Y-87503000D01*
X166380429Y-87430428D01*
X166344143Y-87394143D01*
X166235286Y-87321571D01*
X166090143Y-87285286D01*
X165799857Y-87285286D01*
X165727286Y-87321571D01*
X165691000Y-87357857D01*
X165654714Y-87430428D01*
X165654714Y-87575571D01*
X165691000Y-87648143D01*
X165727286Y-87684428D01*
X165799857Y-87720714D01*
X165981286Y-87720714D01*
X166053857Y-87684428D01*
X166090143Y-87648143D01*
X166126429Y-87575571D01*
X166126429Y-87430428D01*
X166090143Y-87357857D01*
X166053857Y-87321571D01*
X165981286Y-87285286D01*
X102972143Y-87294357D02*
X103008429Y-87330643D01*
X103044714Y-87439500D01*
X103044714Y-87512071D01*
X103008429Y-87620928D01*
X102935857Y-87693500D01*
X102863286Y-87729785D01*
X102718143Y-87766071D01*
X102609286Y-87766071D01*
X102464143Y-87729785D01*
X102391571Y-87693500D01*
X102319000Y-87620928D01*
X102282714Y-87512071D01*
X102282714Y-87439500D01*
X102319000Y-87330643D01*
X102355286Y-87294357D01*
X103044714Y-86568643D02*
X103044714Y-87004071D01*
X103044714Y-86786357D02*
X102282714Y-86786357D01*
X102391571Y-86858928D01*
X102464143Y-86931500D01*
X102500429Y-87004071D01*
X102282714Y-86096929D02*
X102282714Y-86024357D01*
X102319000Y-85951786D01*
X102355286Y-85915500D01*
X102427857Y-85879214D01*
X102573000Y-85842929D01*
X102754429Y-85842929D01*
X102899571Y-85879214D01*
X102972143Y-85915500D01*
X103008429Y-85951786D01*
X103044714Y-86024357D01*
X103044714Y-86096929D01*
X103008429Y-86169500D01*
X102972143Y-86205786D01*
X102899571Y-86242071D01*
X102754429Y-86278357D01*
X102573000Y-86278357D01*
X102427857Y-86242071D01*
X102355286Y-86205786D01*
X102319000Y-86169500D01*
X102282714Y-86096929D01*
X166344143Y-83293857D02*
X166380429Y-83330143D01*
X166416714Y-83439000D01*
X166416714Y-83511571D01*
X166380429Y-83620428D01*
X166307857Y-83693000D01*
X166235286Y-83729285D01*
X166090143Y-83765571D01*
X165981286Y-83765571D01*
X165836143Y-83729285D01*
X165763571Y-83693000D01*
X165691000Y-83620428D01*
X165654714Y-83511571D01*
X165654714Y-83439000D01*
X165691000Y-83330143D01*
X165727286Y-83293857D01*
X166416714Y-82568143D02*
X166416714Y-83003571D01*
X166416714Y-82785857D02*
X165654714Y-82785857D01*
X165763571Y-82858428D01*
X165836143Y-82931000D01*
X165872429Y-83003571D01*
X166416714Y-81842429D02*
X166416714Y-82277857D01*
X166416714Y-82060143D02*
X165654714Y-82060143D01*
X165763571Y-82132714D01*
X165836143Y-82205286D01*
X165872429Y-82277857D01*
X70448714Y-102361999D02*
X70993000Y-102361999D01*
X71101857Y-102398285D01*
X71174429Y-102470856D01*
X71210714Y-102579713D01*
X71210714Y-102652285D01*
X70448714Y-102071714D02*
X70448714Y-101600000D01*
X70739000Y-101854000D01*
X70739000Y-101745142D01*
X70775286Y-101672571D01*
X70811571Y-101636285D01*
X70884143Y-101600000D01*
X71065571Y-101600000D01*
X71138143Y-101636285D01*
X71174429Y-101672571D01*
X71210714Y-101745142D01*
X71210714Y-101962857D01*
X71174429Y-102035428D01*
X71138143Y-102071714D01*
X70448714Y-97281999D02*
X70993000Y-97281999D01*
X71101857Y-97318285D01*
X71174429Y-97390856D01*
X71210714Y-97499713D01*
X71210714Y-97572285D01*
X70702714Y-96592571D02*
X71210714Y-96592571D01*
X70412429Y-96774000D02*
X70956714Y-96955428D01*
X70956714Y-96483714D01*
X70321714Y-112521999D02*
X70866000Y-112521999D01*
X70974857Y-112558285D01*
X71047429Y-112630856D01*
X71083714Y-112739713D01*
X71083714Y-112812285D01*
X71083714Y-111760000D02*
X71083714Y-112195428D01*
X71083714Y-111977714D02*
X70321714Y-111977714D01*
X70430571Y-112050285D01*
X70503143Y-112122857D01*
X70539429Y-112195428D01*
X149297572Y-50763714D02*
X149297572Y-50001714D01*
X149587857Y-50001714D01*
X149660429Y-50038000D01*
X149696714Y-50074286D01*
X149733000Y-50146857D01*
X149733000Y-50255714D01*
X149696714Y-50328286D01*
X149660429Y-50364571D01*
X149587857Y-50400857D01*
X149297572Y-50400857D01*
X150458714Y-50763714D02*
X150023286Y-50763714D01*
X150241000Y-50763714D02*
X150241000Y-50001714D01*
X150168429Y-50110571D01*
X150095857Y-50183143D01*
X150023286Y-50219429D01*
X116720714Y-67309999D02*
X117265000Y-67309999D01*
X117373857Y-67346285D01*
X117446429Y-67418856D01*
X117482714Y-67527713D01*
X117482714Y-67600285D01*
X116720714Y-66584285D02*
X116720714Y-66947142D01*
X117083571Y-66983428D01*
X117047286Y-66947142D01*
X117011000Y-66874571D01*
X117011000Y-66693142D01*
X117047286Y-66620571D01*
X117083571Y-66584285D01*
X117156143Y-66548000D01*
X117337571Y-66548000D01*
X117410143Y-66584285D01*
X117446429Y-66620571D01*
X117482714Y-66693142D01*
X117482714Y-66874571D01*
X117446429Y-66947142D01*
X117410143Y-66983428D01*
X141104714Y-78993999D02*
X141649000Y-78993999D01*
X141757857Y-79030285D01*
X141830429Y-79102856D01*
X141866714Y-79211713D01*
X141866714Y-79284285D01*
X141104714Y-78304571D02*
X141104714Y-78449714D01*
X141141000Y-78522285D01*
X141177286Y-78558571D01*
X141286143Y-78631142D01*
X141431286Y-78667428D01*
X141721571Y-78667428D01*
X141794143Y-78631142D01*
X141830429Y-78594857D01*
X141866714Y-78522285D01*
X141866714Y-78377142D01*
X141830429Y-78304571D01*
X141794143Y-78268285D01*
X141721571Y-78232000D01*
X141540143Y-78232000D01*
X141467571Y-78268285D01*
X141431286Y-78304571D01*
X141395000Y-78377142D01*
X141395000Y-78522285D01*
X141431286Y-78594857D01*
X141467571Y-78631142D01*
X141540143Y-78667428D01*
X202335714Y-73393999D02*
X202880000Y-73393999D01*
X202988857Y-73430285D01*
X203061429Y-73502856D01*
X203097714Y-73611713D01*
X203097714Y-73684285D01*
X202335714Y-73103714D02*
X202335714Y-72595714D01*
X203097714Y-72922285D01*
X212840001Y-63529714D02*
X212840001Y-64074000D01*
X212803715Y-64182857D01*
X212731144Y-64255429D01*
X212622287Y-64291714D01*
X212549715Y-64291714D01*
X213311715Y-63856286D02*
X213239143Y-63820000D01*
X213202858Y-63783714D01*
X213166572Y-63711143D01*
X213166572Y-63674857D01*
X213202858Y-63602286D01*
X213239143Y-63566000D01*
X213311715Y-63529714D01*
X213456858Y-63529714D01*
X213529429Y-63566000D01*
X213565715Y-63602286D01*
X213602000Y-63674857D01*
X213602000Y-63711143D01*
X213565715Y-63783714D01*
X213529429Y-63820000D01*
X213456858Y-63856286D01*
X213311715Y-63856286D01*
X213239143Y-63892571D01*
X213202858Y-63928857D01*
X213166572Y-64001429D01*
X213166572Y-64146571D01*
X213202858Y-64219143D01*
X213239143Y-64255429D01*
X213311715Y-64291714D01*
X213456858Y-64291714D01*
X213529429Y-64255429D01*
X213565715Y-64219143D01*
X213602000Y-64146571D01*
X213602000Y-64001429D01*
X213565715Y-63928857D01*
X213529429Y-63892571D01*
X213456858Y-63856286D01*
X227064001Y-63529714D02*
X227064001Y-64074000D01*
X227027715Y-64182857D01*
X226955144Y-64255429D01*
X226846287Y-64291714D01*
X226773715Y-64291714D01*
X227463143Y-64291714D02*
X227608286Y-64291714D01*
X227680858Y-64255429D01*
X227717143Y-64219143D01*
X227789715Y-64110286D01*
X227826000Y-63965143D01*
X227826000Y-63674857D01*
X227789715Y-63602286D01*
X227753429Y-63566000D01*
X227680858Y-63529714D01*
X227535715Y-63529714D01*
X227463143Y-63566000D01*
X227426858Y-63602286D01*
X227390572Y-63674857D01*
X227390572Y-63856286D01*
X227426858Y-63928857D01*
X227463143Y-63965143D01*
X227535715Y-64001429D01*
X227680858Y-64001429D01*
X227753429Y-63965143D01*
X227789715Y-63928857D01*
X227826000Y-63856286D01*
%LPC*%
D17*
X62103000Y-112903000D03*
D18*
X62103000Y-110363000D03*
X62103000Y-107823000D03*
X62103000Y-105283000D03*
X62103000Y-102743000D03*
X62103000Y-100203000D03*
X62103000Y-97663000D03*
X62103000Y-95123000D03*
X62103000Y-92583000D03*
X62103000Y-90043000D03*
X62103000Y-87503000D03*
X62103000Y-84963000D03*
X62103000Y-82423000D03*
X62103000Y-79883000D03*
X62103000Y-77343000D03*
X62103000Y-74803000D03*
D19*
X151380000Y-88675000D03*
X152030000Y-88675000D03*
X152680000Y-88675000D03*
X153330000Y-88675000D03*
X153980000Y-88675000D03*
X154630000Y-88675000D03*
X155280000Y-88675000D03*
X155930000Y-88675000D03*
X156580000Y-88675000D03*
X157230000Y-88675000D03*
X157230000Y-82775000D03*
X156580000Y-82775000D03*
X155930000Y-82775000D03*
X155280000Y-82775000D03*
X154630000Y-82775000D03*
X153980000Y-82775000D03*
X153330000Y-82775000D03*
X152680000Y-82775000D03*
X152030000Y-82775000D03*
X151380000Y-82775000D03*
X86229000Y-92358000D03*
X86879000Y-92358000D03*
X87529000Y-92358000D03*
X88179000Y-92358000D03*
X88829000Y-92358000D03*
X89479000Y-92358000D03*
X90129000Y-92358000D03*
X90779000Y-92358000D03*
X91429000Y-92358000D03*
X92079000Y-92358000D03*
X92079000Y-86458000D03*
X91429000Y-86458000D03*
X90779000Y-86458000D03*
X90129000Y-86458000D03*
X89479000Y-86458000D03*
X88829000Y-86458000D03*
X88179000Y-86458000D03*
X87529000Y-86458000D03*
X86879000Y-86458000D03*
X86229000Y-86458000D03*
X194052000Y-88294000D03*
X194702000Y-88294000D03*
X195352000Y-88294000D03*
X196002000Y-88294000D03*
X196652000Y-88294000D03*
X197302000Y-88294000D03*
X197952000Y-88294000D03*
X198602000Y-88294000D03*
X199252000Y-88294000D03*
X199902000Y-88294000D03*
X199902000Y-82394000D03*
X199252000Y-82394000D03*
X198602000Y-82394000D03*
X197952000Y-82394000D03*
X197302000Y-82394000D03*
X196652000Y-82394000D03*
X196002000Y-82394000D03*
X195352000Y-82394000D03*
X194702000Y-82394000D03*
X194052000Y-82394000D03*
X113915000Y-91850000D03*
X114565000Y-91850000D03*
X115215000Y-91850000D03*
X115865000Y-91850000D03*
X116515000Y-91850000D03*
X117165000Y-91850000D03*
X117815000Y-91850000D03*
X118465000Y-91850000D03*
X119115000Y-91850000D03*
X119765000Y-91850000D03*
X119765000Y-85950000D03*
X119115000Y-85950000D03*
X118465000Y-85950000D03*
X117815000Y-85950000D03*
X117165000Y-85950000D03*
X116515000Y-85950000D03*
X115865000Y-85950000D03*
X115215000Y-85950000D03*
X114565000Y-85950000D03*
X113915000Y-85950000D03*
X174557000Y-88294000D03*
X175207000Y-88294000D03*
X175857000Y-88294000D03*
X176507000Y-88294000D03*
X177157000Y-88294000D03*
X177807000Y-88294000D03*
X178457000Y-88294000D03*
X179107000Y-88294000D03*
X179757000Y-88294000D03*
X180407000Y-88294000D03*
X180407000Y-82394000D03*
X179757000Y-82394000D03*
X179107000Y-82394000D03*
X178457000Y-82394000D03*
X177807000Y-82394000D03*
X177157000Y-82394000D03*
X176507000Y-82394000D03*
X175857000Y-82394000D03*
X175207000Y-82394000D03*
X174557000Y-82394000D03*
D20*
X134620000Y-114554000D03*
D21*
X182880000Y-99314000D03*
X137160000Y-114554000D03*
X180340000Y-99314000D03*
X139700000Y-114554000D03*
X177800000Y-99314000D03*
X142240000Y-114554000D03*
X175260000Y-99314000D03*
X144780000Y-114554000D03*
X172720000Y-99314000D03*
X147320000Y-114554000D03*
X170180000Y-99314000D03*
X149860000Y-114554000D03*
X167640000Y-99314000D03*
X152400000Y-114554000D03*
X165100000Y-99314000D03*
X154940000Y-114554000D03*
X162560000Y-99314000D03*
X157480000Y-114554000D03*
X160020000Y-99314000D03*
X160020000Y-114554000D03*
X157480000Y-99314000D03*
X162560000Y-114554000D03*
X154940000Y-99314000D03*
X165100000Y-114554000D03*
X152400000Y-99314000D03*
X167640000Y-114554000D03*
X149860000Y-99314000D03*
X170180000Y-114554000D03*
X147320000Y-99314000D03*
X172720000Y-114554000D03*
X144780000Y-99314000D03*
X175260000Y-114554000D03*
X142240000Y-99314000D03*
X177800000Y-114554000D03*
X139700000Y-99314000D03*
X180340000Y-114554000D03*
X137160000Y-99314000D03*
X182880000Y-114554000D03*
X134620000Y-99314000D03*
D22*
X77724000Y-89723000D03*
X77724000Y-87823000D03*
D23*
X132844000Y-85534500D03*
X134744000Y-85534500D03*
D22*
X77724000Y-84643000D03*
X77724000Y-82743000D03*
D23*
X137924000Y-85534500D03*
X139824000Y-85534500D03*
D22*
X197612000Y-100899000D03*
X197612000Y-98999000D03*
X197612000Y-95819000D03*
X197612000Y-93919000D03*
X103950000Y-92834500D03*
X103950000Y-90934500D03*
X167322000Y-88834000D03*
X167322000Y-86934000D03*
X103950000Y-87754500D03*
X103950000Y-85854500D03*
X167322000Y-83754000D03*
X167322000Y-81854000D03*
D17*
X73406000Y-102108000D03*
D18*
X75946000Y-102108000D03*
X78486000Y-102108000D03*
X81026000Y-102108000D03*
X83566000Y-102108000D03*
X86106000Y-102108000D03*
X88646000Y-102108000D03*
X91186000Y-102108000D03*
X93726000Y-102108000D03*
X96266000Y-102108000D03*
X98806000Y-102108000D03*
X101346000Y-102108000D03*
X103886000Y-102108000D03*
X106426000Y-102108000D03*
X108966000Y-102108000D03*
X111506000Y-102108000D03*
X114046000Y-102108000D03*
X116586000Y-102108000D03*
X119126000Y-102108000D03*
X121666000Y-102108000D03*
D17*
X73406000Y-97028000D03*
D18*
X75946000Y-97028000D03*
X78486000Y-97028000D03*
X81026000Y-97028000D03*
X83566000Y-97028000D03*
X86106000Y-97028000D03*
X88646000Y-97028000D03*
X91186000Y-97028000D03*
X93726000Y-97028000D03*
X96266000Y-97028000D03*
X98806000Y-97028000D03*
X101346000Y-97028000D03*
X103886000Y-97028000D03*
X106426000Y-97028000D03*
X108966000Y-97028000D03*
X111506000Y-97028000D03*
X114046000Y-97028000D03*
X116586000Y-97028000D03*
X119126000Y-97028000D03*
X121666000Y-97028000D03*
D17*
X73406000Y-113538000D03*
D18*
X73406000Y-110998000D03*
X75946000Y-113538000D03*
X75946000Y-110998000D03*
X78486000Y-113538000D03*
X78486000Y-110998000D03*
X81026000Y-113538000D03*
X81026000Y-110998000D03*
X83566000Y-113538000D03*
X83566000Y-110998000D03*
X86106000Y-113538000D03*
X86106000Y-110998000D03*
X88646000Y-113538000D03*
X88646000Y-110998000D03*
X91186000Y-113538000D03*
X91186000Y-110998000D03*
X93726000Y-113538000D03*
X93726000Y-110998000D03*
X96266000Y-113538000D03*
X96266000Y-110998000D03*
X98806000Y-113538000D03*
X98806000Y-110998000D03*
X101346000Y-113538000D03*
X101346000Y-110998000D03*
X103886000Y-113538000D03*
X103886000Y-110998000D03*
X106426000Y-113538000D03*
X106426000Y-110998000D03*
X108966000Y-113538000D03*
X108966000Y-110998000D03*
X111506000Y-113538000D03*
X111506000Y-110998000D03*
X114046000Y-113538000D03*
X114046000Y-110998000D03*
X116586000Y-113538000D03*
X116586000Y-110998000D03*
X119126000Y-113538000D03*
X119126000Y-110998000D03*
X121666000Y-113538000D03*
X121666000Y-110998000D03*
D24*
X72067420Y-51948080D03*
D25*
X72067420Y-58298080D03*
D24*
X87942420Y-51948080D03*
X75242420Y-58298080D03*
X91117420Y-51948080D03*
X78417420Y-58298080D03*
X94292420Y-51948080D03*
X81592420Y-58298080D03*
X97467420Y-51948080D03*
X84767420Y-58298080D03*
X100642420Y-51948080D03*
X87942420Y-58298080D03*
X103817420Y-51948080D03*
X91117420Y-58298080D03*
X106992420Y-51948080D03*
X94292420Y-58298080D03*
X110167420Y-51948080D03*
X97467420Y-58298080D03*
X113342420Y-51948080D03*
X100642420Y-58298080D03*
X116517420Y-51948080D03*
X103817420Y-58298080D03*
X119692420Y-51948080D03*
X106992420Y-58298080D03*
X110167420Y-58298080D03*
X122867420Y-51948080D03*
X113342420Y-58298080D03*
X119692420Y-58298080D03*
X122867420Y-58298080D03*
X126042420Y-58298080D03*
X129217420Y-58298080D03*
X126042420Y-51948080D03*
X129217420Y-51948080D03*
X75242420Y-51948080D03*
X78417420Y-51948080D03*
X81592420Y-51948080D03*
X84767420Y-51948080D03*
X132392420Y-51948080D03*
X132392420Y-58298080D03*
X116517420Y-58298080D03*
X135567420Y-58298080D03*
X135567420Y-51948080D03*
X138742420Y-58298080D03*
X138742420Y-51948080D03*
X141917420Y-58298080D03*
X141917420Y-51948080D03*
X145092420Y-58298080D03*
X145092420Y-51948080D03*
X148267420Y-58298080D03*
X148267420Y-51948080D03*
X151442420Y-58298080D03*
X151442420Y-51948080D03*
X154617420Y-58298080D03*
X154617420Y-51948080D03*
X157792420Y-58298080D03*
X157792420Y-51948080D03*
X160967420Y-58298080D03*
X160967420Y-51948080D03*
X164142420Y-58298080D03*
X164142420Y-51948080D03*
X167317420Y-58298080D03*
X167317420Y-51948080D03*
X170492420Y-58298080D03*
X170492420Y-51948080D03*
X173667420Y-58298080D03*
X173667420Y-51948080D03*
X176842420Y-58298080D03*
X176842420Y-51948080D03*
X180017420Y-58298080D03*
X180017420Y-51948080D03*
X183192420Y-58298080D03*
X183192420Y-51948080D03*
X186367420Y-58298080D03*
X186367420Y-51948080D03*
X189542420Y-58298080D03*
X189542420Y-51948080D03*
X192717420Y-58298080D03*
X192717420Y-51948080D03*
X195892420Y-58298080D03*
X195892420Y-51948080D03*
X199067420Y-58298080D03*
X199067420Y-51948080D03*
X202242420Y-58298080D03*
X202242420Y-51948080D03*
X205417420Y-58298080D03*
X205417420Y-51948080D03*
X208592420Y-58298080D03*
X208592420Y-51948080D03*
X211767420Y-58298080D03*
X211767420Y-51948080D03*
X214942420Y-58298080D03*
X214942420Y-51948080D03*
X218117420Y-58298080D03*
X218117420Y-51948080D03*
X221292420Y-58298080D03*
X221292420Y-51948080D03*
X224467420Y-58298080D03*
X224467420Y-51948080D03*
X227642420Y-58298080D03*
X227642420Y-51948080D03*
D26*
X236151420Y-55123080D03*
X63558420Y-55123080D03*
D27*
X189357000Y-113792000D03*
X189357000Y-111292000D03*
X128524000Y-113157000D03*
D21*
X128524000Y-110617000D03*
D17*
X114808000Y-65786000D03*
D18*
X114808000Y-68326000D03*
X112268000Y-65786000D03*
X112268000Y-68326000D03*
X109728000Y-65786000D03*
X109728000Y-68326000D03*
X107188000Y-65786000D03*
X107188000Y-68326000D03*
X104648000Y-65786000D03*
X104648000Y-68326000D03*
X102108000Y-65786000D03*
X102108000Y-68326000D03*
X99568000Y-65786000D03*
X99568000Y-68326000D03*
X97028000Y-65786000D03*
X97028000Y-68326000D03*
X94488000Y-65786000D03*
X94488000Y-68326000D03*
X91948000Y-65786000D03*
X91948000Y-68326000D03*
X89408000Y-65786000D03*
X89408000Y-68326000D03*
X86868000Y-65786000D03*
X86868000Y-68326000D03*
X84328000Y-65786000D03*
X84328000Y-68326000D03*
X81788000Y-65786000D03*
X81788000Y-68326000D03*
X79248000Y-65786000D03*
X79248000Y-68326000D03*
X76708000Y-65786000D03*
X76708000Y-68326000D03*
X74168000Y-65786000D03*
X74168000Y-68326000D03*
X71628000Y-65786000D03*
X71628000Y-68326000D03*
X69088000Y-65786000D03*
X69088000Y-68326000D03*
X66548000Y-65786000D03*
X66548000Y-68326000D03*
D17*
X139192000Y-77470000D03*
D18*
X139192000Y-80010000D03*
X136652000Y-77470000D03*
X136652000Y-80010000D03*
X134112000Y-77470000D03*
X134112000Y-80010000D03*
X131572000Y-77470000D03*
X131572000Y-80010000D03*
X129032000Y-77470000D03*
X129032000Y-80010000D03*
X126492000Y-77470000D03*
X126492000Y-80010000D03*
X123952000Y-77470000D03*
X123952000Y-80010000D03*
X121412000Y-77470000D03*
X121412000Y-80010000D03*
X118872000Y-77470000D03*
X118872000Y-80010000D03*
X116332000Y-77470000D03*
X116332000Y-80010000D03*
X113792000Y-77470000D03*
X113792000Y-80010000D03*
X111252000Y-77470000D03*
X111252000Y-80010000D03*
X108712000Y-77470000D03*
X108712000Y-80010000D03*
X106172000Y-77470000D03*
X106172000Y-80010000D03*
X103632000Y-77470000D03*
X103632000Y-80010000D03*
X101092000Y-77470000D03*
X101092000Y-80010000D03*
X98552000Y-77470000D03*
X98552000Y-80010000D03*
X96012000Y-77470000D03*
X96012000Y-80010000D03*
X93472000Y-77470000D03*
X93472000Y-80010000D03*
X90932000Y-77470000D03*
X90932000Y-80010000D03*
D17*
X200423000Y-74410000D03*
D18*
X200423000Y-71870000D03*
X197883000Y-74410000D03*
X197883000Y-71870000D03*
X195343000Y-74410000D03*
X195343000Y-71870000D03*
X192803000Y-74410000D03*
X192803000Y-71870000D03*
X190263000Y-74410000D03*
X190263000Y-71870000D03*
X187723000Y-74410000D03*
X187723000Y-71870000D03*
X185183000Y-74410000D03*
X185183000Y-71870000D03*
X182643000Y-74410000D03*
X182643000Y-71870000D03*
X180103000Y-74410000D03*
X180103000Y-71870000D03*
X177563000Y-74410000D03*
X177563000Y-71870000D03*
X175023000Y-74410000D03*
X175023000Y-71870000D03*
X172483000Y-74410000D03*
X172483000Y-71870000D03*
X169943000Y-74410000D03*
X169943000Y-71870000D03*
X167403000Y-74410000D03*
X167403000Y-71870000D03*
X164863000Y-74410000D03*
X164863000Y-71870000D03*
X162323000Y-74410000D03*
X162323000Y-71870000D03*
X159783000Y-74410000D03*
X159783000Y-71870000D03*
X157243000Y-74410000D03*
X157243000Y-71870000D03*
X154703000Y-74410000D03*
X154703000Y-71870000D03*
X152163000Y-74410000D03*
X152163000Y-71870000D03*
D17*
X214364000Y-66277000D03*
D18*
X211824000Y-66277000D03*
X214364000Y-68817000D03*
X211824000Y-68817000D03*
X214364000Y-71357000D03*
X211824000Y-71357000D03*
X214364000Y-73897000D03*
X211824000Y-73897000D03*
X214364000Y-76437000D03*
X211824000Y-76437000D03*
X214364000Y-78977000D03*
X211824000Y-78977000D03*
X214364000Y-81517000D03*
X211824000Y-81517000D03*
X214364000Y-84057000D03*
X211824000Y-84057000D03*
X214364000Y-86597000D03*
X211824000Y-86597000D03*
X214364000Y-89137000D03*
X211824000Y-89137000D03*
X214364000Y-91677000D03*
X211824000Y-91677000D03*
X214364000Y-94217000D03*
X211824000Y-94217000D03*
X214364000Y-96757000D03*
X211824000Y-96757000D03*
X214364000Y-99297000D03*
X211824000Y-99297000D03*
X214364000Y-101837000D03*
X211824000Y-101837000D03*
X214364000Y-104377000D03*
X211824000Y-104377000D03*
X214364000Y-106917000D03*
X211824000Y-106917000D03*
X214364000Y-109457000D03*
X211824000Y-109457000D03*
X214364000Y-111997000D03*
X211824000Y-111997000D03*
X214364000Y-114537000D03*
X211824000Y-114537000D03*
D17*
X228588000Y-66277000D03*
D18*
X226048000Y-66277000D03*
X228588000Y-68817000D03*
X226048000Y-68817000D03*
X228588000Y-71357000D03*
X226048000Y-71357000D03*
X228588000Y-73897000D03*
X226048000Y-73897000D03*
X228588000Y-76437000D03*
X226048000Y-76437000D03*
X228588000Y-78977000D03*
X226048000Y-78977000D03*
X228588000Y-81517000D03*
X226048000Y-81517000D03*
X228588000Y-84057000D03*
X226048000Y-84057000D03*
X228588000Y-86597000D03*
X226048000Y-86597000D03*
X228588000Y-89137000D03*
X226048000Y-89137000D03*
X228588000Y-91677000D03*
X226048000Y-91677000D03*
X228588000Y-94217000D03*
X226048000Y-94217000D03*
X228588000Y-96757000D03*
X226048000Y-96757000D03*
X228588000Y-99297000D03*
X226048000Y-99297000D03*
X228588000Y-101837000D03*
X226048000Y-101837000D03*
X228588000Y-104377000D03*
X226048000Y-104377000D03*
X228588000Y-106917000D03*
X226048000Y-106917000D03*
X228588000Y-109457000D03*
X226048000Y-109457000D03*
X228588000Y-111997000D03*
X226048000Y-111997000D03*
X228588000Y-114537000D03*
X226048000Y-114537000D03*
M02*
