M48
;DRILL file {KiCad 4.0.7} date 01/03/18 18:18:53
;FORMAT={2:4/ absolute / inch / suppress trailing zeros}
FMAT,2
INCH,LZ
T1C0.013
T2C0.031
T3C0.039
T4C0.040
T5C0.138
%
G90
G05
M72
T1
X033163Y-02756
X034472Y-035838
X035525Y-035829
X03716Y-031961
X038308Y-02843
X038754Y-029843
X040003Y-029174
X040328Y-024381
X040617Y-033332
X041717Y-036612
X042577Y-036428
X042912Y-034623
X044504Y-034161
X045643Y-033279
X045752Y-034598
X046214Y-033106
X04664Y-034414
X04667Y-036686
X046986Y-033313
X047046Y-036842
X047248Y-02903
X047478Y-036136
X047723Y-037027
X047745Y-036393
X04803Y-036673
X048066Y-029905
X048615Y-02873
X048713Y-037363
X049681Y-039677
X050264Y-040993
X050509Y-04249
X050524Y-038811
X051306Y-039991
X051617Y-04031
X051695Y-042026
X053967Y-029929
X05459Y-033166
X054991Y-042797
X055048Y-041725
X0565Y-03882
X057Y-033306
X057866Y-035261
X058245Y-041535
X060366Y-033131
X060633Y-031986
X060698Y-035432
X060925Y-034328
X061027Y-032061
X061506Y-035679
X06161Y-03319
X062312Y-034719
X062615Y-032573
X062631Y-031986
X064259Y-03186
X064587Y-03421
X067201Y-032512
X067383Y-04139
X068707Y-044302
X068716Y-043859
X068903Y-040859
X069235Y-033031
X069285Y-034219
X069689Y-032967
X069781Y-031011
X07019Y-040568
X070317Y-034234
X07077Y-035351
X071186Y-030361
X073803Y-023792
X074929Y-030374
X075205Y-033625
X075474Y-030403
X076069Y-034452
X076561Y-031913
X077076Y-036973
X077554Y-03835
X078616Y-033348
X080399Y-033135
T2
X0506Y-04355
X0506Y-04455
X053Y-0391
X053Y-0451
X054Y-0391
X054Y-0451
X055Y-0391
X055Y-0451
X056Y-0391
X056Y-0451
X057Y-0391
X057Y-0451
X058Y-0391
X058Y-0451
X059Y-0391
X059Y-0451
X06Y-0391
X06Y-0451
X061Y-0391
X061Y-0451
X062Y-0391
X062Y-0451
X063Y-0391
X063Y-0451
X064Y-0391
X064Y-0451
X065Y-0391
X065Y-0451
X066Y-0391
X066Y-0451
X067Y-0391
X067Y-0451
X068Y-0391
X068Y-0451
X069Y-0391
X069Y-0451
X07Y-0391
X07Y-0451
X071Y-0391
X071Y-0451
X072Y-0391
X072Y-0451
X07455Y-043816
X07455Y-0448
T3
X02445Y-02945
X02445Y-03045
X02445Y-03145
X02445Y-03245
X02445Y-03345
X02445Y-03445
X02445Y-03545
X02445Y-03645
X02445Y-03745
X02445Y-03845
X02445Y-03945
X02445Y-04045
X02445Y-04145
X02445Y-04245
X02445Y-04345
X02445Y-04445
X0262Y-0259
X0262Y-0269
X0272Y-0259
X0272Y-0269
X0282Y-0259
X0282Y-0269
X0289Y-0382
X0289Y-0402
X0289Y-0437
X0289Y-0447
X0292Y-0259
X0292Y-0269
X0299Y-0382
X0299Y-0402
X0299Y-0437
X0299Y-0447
X0302Y-0259
X0302Y-0269
X0309Y-0382
X0309Y-0402
X0309Y-0437
X0309Y-0447
X0312Y-0259
X0312Y-0269
X0319Y-0382
X0319Y-0402
X0319Y-0437
X0319Y-0447
X0322Y-0259
X0322Y-0269
X0329Y-0382
X0329Y-0402
X0329Y-0437
X0329Y-0447
X0332Y-0259
X0332Y-0269
X0339Y-0382
X0339Y-0402
X0339Y-0437
X0339Y-0447
X0342Y-0259
X0342Y-0269
X0349Y-0382
X0349Y-0402
X0349Y-0437
X0349Y-0447
X0352Y-0259
X0352Y-0269
X0358Y-0305
X0358Y-0315
X0359Y-0382
X0359Y-0402
X0359Y-0437
X0359Y-0447
X0362Y-0259
X0362Y-0269
X0368Y-0305
X0368Y-0315
X0369Y-0382
X0369Y-0402
X0369Y-0437
X0369Y-0447
X0372Y-0259
X0372Y-0269
X0378Y-0305
X0378Y-0315
X0379Y-0382
X0379Y-0402
X0379Y-0437
X0379Y-0447
X0382Y-0259
X0382Y-0269
X0388Y-0305
X0388Y-0315
X0389Y-0382
X0389Y-0402
X0389Y-0437
X0389Y-0447
X0392Y-0259
X0392Y-0269
X0398Y-0305
X0398Y-0315
X0399Y-0382
X0399Y-0402
X0399Y-0437
X0399Y-0447
X0402Y-0259
X0402Y-0269
X0408Y-0305
X0408Y-0315
X0409Y-0382
X0409Y-0402
X0409Y-0437
X0409Y-0447
X0412Y-0259
X0412Y-0269
X0418Y-0305
X0418Y-0315
X0419Y-0382
X0419Y-0402
X0419Y-0437
X0419Y-0447
X0422Y-0259
X0422Y-0269
X0428Y-0305
X0428Y-0315
X0429Y-0382
X0429Y-0402
X0429Y-0437
X0429Y-0447
X0432Y-0259
X0432Y-0269
X0438Y-0305
X0438Y-0315
X0439Y-0382
X0439Y-0402
X0439Y-0437
X0439Y-0447
X0442Y-0259
X0442Y-0269
X0448Y-0305
X0448Y-0315
X0449Y-0382
X0449Y-0402
X0449Y-0437
X0449Y-0447
X0452Y-0259
X0452Y-0269
X0458Y-0305
X0458Y-0315
X0459Y-0382
X0459Y-0402
X0459Y-0437
X0459Y-0447
X0468Y-0305
X0468Y-0315
X0469Y-0382
X0469Y-0402
X0469Y-0437
X0469Y-0447
X0478Y-0305
X0478Y-0315
X0479Y-0382
X0479Y-0402
X0479Y-0437
X0479Y-0447
X0488Y-0305
X0488Y-0315
X0498Y-0305
X0498Y-0315
X0508Y-0305
X0508Y-0315
X0518Y-0305
X0518Y-0315
X0528Y-0305
X0528Y-0315
X0538Y-0305
X0538Y-0315
X0548Y-0305
X0548Y-0315
X059907Y-028295
X059907Y-029295
X060907Y-028295
X060907Y-029295
X061907Y-028295
X061907Y-029295
X062907Y-028295
X062907Y-029295
X063907Y-028295
X063907Y-029295
X064907Y-028295
X064907Y-029295
X065907Y-028295
X065907Y-029295
X066907Y-028295
X066907Y-029295
X067907Y-028295
X067907Y-029295
X068907Y-028295
X068907Y-029295
X069907Y-028295
X069907Y-029295
X070907Y-028295
X070907Y-029295
X071907Y-028295
X071907Y-029295
X072907Y-028295
X072907Y-029295
X073907Y-028295
X073907Y-029295
X074907Y-028295
X074907Y-029295
X075907Y-028295
X075907Y-029295
X076907Y-028295
X076907Y-029295
X077907Y-028295
X077907Y-029295
X078907Y-028295
X078907Y-029295
X083395Y-026093
X083395Y-027093
X083395Y-028093
X083395Y-029093
X083395Y-030093
X083395Y-031093
X083395Y-032093
X083395Y-033093
X083395Y-034093
X083395Y-035093
X083395Y-036093
X083395Y-037093
X083395Y-038093
X083395Y-039093
X083395Y-040093
X083395Y-041093
X083395Y-042093
X083395Y-043093
X083395Y-044093
X083395Y-045093
X084395Y-026093
X084395Y-027093
X084395Y-028093
X084395Y-029093
X084395Y-030093
X084395Y-031093
X084395Y-032093
X084395Y-033093
X084395Y-034093
X084395Y-035093
X084395Y-036093
X084395Y-037093
X084395Y-038093
X084395Y-039093
X084395Y-040093
X084395Y-041093
X084395Y-042093
X084395Y-043093
X084395Y-044093
X084395Y-045093
X088995Y-026093
X088995Y-027093
X088995Y-028093
X088995Y-029093
X088995Y-030093
X088995Y-031093
X088995Y-032093
X088995Y-033093
X088995Y-034093
X088995Y-035093
X088995Y-036093
X088995Y-037093
X088995Y-038093
X088995Y-039093
X088995Y-040093
X088995Y-041093
X088995Y-042093
X088995Y-043093
X088995Y-044093
X088995Y-045093
X089995Y-026093
X089995Y-027093
X089995Y-028093
X089995Y-029093
X089995Y-030093
X089995Y-031093
X089995Y-032093
X089995Y-033093
X089995Y-034093
X089995Y-035093
X089995Y-036093
X089995Y-037093
X089995Y-038093
X089995Y-039093
X089995Y-040093
X089995Y-041093
X089995Y-042093
X089995Y-043093
X089995Y-044093
X089995Y-045093
T4
X028373Y-020452
X028373Y-022952
X029623Y-020452
X029623Y-022952
X030873Y-020452
X030873Y-022952
X032123Y-020452
X032123Y-022952
X033373Y-020452
X033373Y-022952
X034623Y-020452
X034623Y-022952
X035873Y-020452
X035873Y-022952
X037123Y-020452
X037123Y-022952
X038373Y-020452
X038373Y-022952
X039623Y-020452
X039623Y-022952
X040873Y-020452
X040873Y-022952
X042123Y-020452
X042123Y-022952
X043373Y-020452
X043373Y-022952
X044623Y-020452
X044623Y-022952
X045873Y-020452
X045873Y-022952
X047123Y-020452
X047123Y-022952
X048373Y-020452
X048373Y-022952
X049623Y-020452
X049623Y-022952
X050873Y-020452
X050873Y-022952
X052123Y-020452
X052123Y-022952
X053373Y-020452
X053373Y-022952
X054623Y-020452
X054623Y-022952
X055873Y-020452
X055873Y-022952
X057123Y-020452
X057123Y-022952
X058373Y-020452
X058373Y-022952
X059623Y-020452
X059623Y-022952
X060873Y-020452
X060873Y-022952
X062123Y-020452
X062123Y-022952
X063373Y-020452
X063373Y-022952
X064623Y-020452
X064623Y-022952
X065873Y-020452
X065873Y-022952
X067123Y-020452
X067123Y-022952
X068373Y-020452
X068373Y-022952
X069623Y-020452
X069623Y-022952
X070873Y-020452
X070873Y-022952
X072123Y-020452
X072123Y-022952
X073373Y-020452
X073373Y-022952
X074623Y-020452
X074623Y-022952
X075873Y-020452
X075873Y-022952
X077123Y-020452
X077123Y-022952
X078373Y-020452
X078373Y-022952
X079623Y-020452
X079623Y-022952
X080873Y-020452
X080873Y-022952
X082123Y-020452
X082123Y-022952
X083373Y-020452
X083373Y-022952
X084623Y-020452
X084623Y-022952
X085873Y-020452
X085873Y-022952
X087123Y-020452
X087123Y-022952
X088373Y-020452
X088373Y-022952
X089623Y-020452
X089623Y-022952
T5
X025023Y-021702
X092973Y-021702
T0
M30
